OFF
928 1852 0
60 40 9 
59.31852 34.82362 9 
57.32051 30 9 
54.14214 25.85786 9 
50 22.67949 9 
45.17638 20.68148 9 
40 20 9 
34.82362 20.68148 9 
30 22.67949 9 
25.85786 25.85786 9 
22.67949 30 9 
20.68148 34.82362 9 
20 40 9 
20.68148 45.17638 9 
22.67949 50 9 
25.85786 54.14214 9 
30 57.32051 9 
34.82362 59.31852 9 
40 60 9 
45.17638 59.31852 9 
50 57.32051 9 
54.14214 54.14214 9 
57.32051 50 9 
59.31852 45.17638 9 
60 40 109 
59.31852 34.82362 109 
57.32051 30 109 
54.14214 25.85786 109 
50 22.67949 109 
45.17638 20.68148 109 
40 20 109 
34.82362 20.68148 109 
30 22.67949 109 
25.85786 25.85786 109 
22.67949 30 109 
20.68148 34.82362 109 
20 40 109 
20.68148 45.17638 109 
22.67949 50 109 
25.85786 54.14214 109 
30 57.32051 109 
34.82362 59.31852 109 
40 60 109 
45.17638 59.31852 109 
50 57.32051 109 
54.14214 54.14214 109 
57.32051 50 109 
59.31852 45.17638 109 
59.65926 37.41181 9 
58.31951 32.41181 9 
55.73132 27.92893 9 
52.07107 24.26868 9 
47.58819 21.68049 9 
42.58819 20.34074 9 
37.41181 20.34074 9 
32.41181 21.68049 9 
27.92893 24.26868 9 
24.26868 27.92893 9 
21.68049 32.41181 9 
20.34074 37.41181 9 
20.34074 42.58819 9 
21.68049 47.58819 9 
24.26868 52.07107 9 
27.92893 55.73132 9 
32.41181 58.31951 9 
37.41181 59.65926 9 
42.58819 59.65926 9 
47.58819 58.31951 9 
52.07107 55.73132 9 
55.73132 52.07107 9 
58.31951 47.58819 9 
59.65926 42.58819 9 
59.65926 37.41181 109 
58.31951 32.41181 109 
55.73132 27.92893 109 
52.07107 24.26868 109 
47.58819 21.68049 109 
42.58819 20.34074 109 
37.41181 20.34074 109 
32.41181 21.68049 109 
27.92893 24.26868 109 
24.26868 27.92893 109 
21.68049 32.41181 109 
20.34074 37.41181 109 
20.34074 42.58819 109 
21.68049 47.58819 109 
24.26868 52.07107 109 
27.92893 55.73132 109 
32.41181 58.31951 109 
37.41181 59.65926 109 
42.58819 59.65926 109 
47.58819 58.31951 109 
52.07107 55.73132 109 
55.73132 52.07107 109 
58.31951 47.58819 109 
59.65926 42.58819 109 
60 40 19 
60 40 29 
60 40 39 
60 40 49 
60 40 59 
60 40 69 
60 40 79 
60 40 89 
60 40 99 
59.31852 34.82362 19 
59.31852 34.82362 29 
59.31852 34.82362 39 
59.31852 34.82362 49 
59.31852 34.82362 59 
59.31852 34.82362 69 
59.31852 34.82362 79 
59.31852 34.82362 89 
59.31852 34.82362 99 
57.32051 30 19 
57.32051 30 29 
57.32051 30 39 
57.32051 30 49 
57.32051 30 59 
57.32051 30 69 
57.32051 30 79 
57.32051 30 89 
57.32051 30 99 
54.14214 25.85786 19 
54.14214 25.85786 29 
54.14214 25.85786 39 
54.14214 25.85786 49 
54.14214 25.85786 59 
54.14214 25.85786 69 
54.14214 25.85786 79 
54.14214 25.85786 89 
54.14214 25.85786 99 
50 22.67949 19 
50 22.67949 29 
50 22.67949 39 
50 22.67949 49 
50 22.67949 59 
50 22.67949 69 
50 22.67949 79 
50 22.67949 89 
50 22.67949 99 
45.17638 20.68148 19 
45.17638 20.68148 29 
45.17638 20.68148 39 
45.17638 20.68148 49 
45.17638 20.68148 59 
45.17638 20.68148 69 
45.17638 20.68148 79 
45.17638 20.68148 89 
45.17638 20.68148 99 
40 20 19 
40 20 29 
40 20 39 
40 20 49 
40 20 59 
40 20 69 
40 20 79 
40 20 89 
40 20 99 
34.82362 20.68148 19 
34.82362 20.68148 29 
34.82362 20.68148 39 
34.82362 20.68148 49 
34.82362 20.68148 59 
34.82362 20.68148 69 
34.82362 20.68148 79 
34.82362 20.68148 89 
34.82362 20.68148 99 
30 22.67949 19 
30 22.67949 29 
30 22.67949 39 
30 22.67949 49 
30 22.67949 59 
30 22.67949 69 
30 22.67949 79 
30 22.67949 89 
30 22.67949 99 
25.85786 25.85786 19 
25.85786 25.85786 29 
25.85786 25.85786 39 
25.85786 25.85786 49 
25.85786 25.85786 59 
25.85786 25.85786 69 
25.85786 25.85786 79 
25.85786 25.85786 89 
25.85786 25.85786 99 
22.67949 30 19 
22.67949 30 29 
22.67949 30 39 
22.67949 30 49 
22.67949 30 59 
22.67949 30 69 
22.67949 30 79 
22.67949 30 89 
22.67949 30 99 
20.68148 34.82362 19 
20.68148 34.82362 29 
20.68148 34.82362 39 
20.68148 34.82362 49 
20.68148 34.82362 59 
20.68148 34.82362 69 
20.68148 34.82362 79 
20.68148 34.82362 89 
20.68148 34.82362 99 
20 40 19 
20 40 29 
20 40 39 
20 40 49 
20 40 59 
20 40 69 
20 40 79 
20 40 89 
20 40 99 
20.68148 45.17638 19 
20.68148 45.17638 29 
20.68148 45.17638 39 
20.68148 45.17638 49 
20.68148 45.17638 59 
20.68148 45.17638 69 
20.68148 45.17638 79 
20.68148 45.17638 89 
20.68148 45.17638 99 
22.67949 50 19 
22.67949 50 29 
22.67949 50 39 
22.67949 50 49 
22.67949 50 59 
22.67949 50 69 
22.67949 50 79 
22.67949 50 89 
22.67949 50 99 
25.85786 54.14214 19 
25.85786 54.14214 29 
25.85786 54.14214 39 
25.85786 54.14214 49 
25.85786 54.14214 59 
25.85786 54.14214 69 
25.85786 54.14214 79 
25.85786 54.14214 89 
25.85786 54.14214 99 
30 57.32051 19 
30 57.32051 29 
30 57.32051 39 
30 57.32051 49 
30 57.32051 59 
30 57.32051 69 
30 57.32051 79 
30 57.32051 89 
30 57.32051 99 
34.82362 59.31852 19 
34.82362 59.31852 29 
34.82362 59.31852 39 
34.82362 59.31852 49 
34.82362 59.31852 59 
34.82362 59.31852 69 
34.82362 59.31852 79 
34.82362 59.31852 89 
34.82362 59.31852 99 
40 60 19 
40 60 29 
40 60 39 
40 60 49 
40 60 59 
40 60 69 
40 60 79 
40 60 89 
40 60 99 
45.17638 59.31852 19 
45.17638 59.31852 29 
45.17638 59.31852 39 
45.17638 59.31852 49 
45.17638 59.31852 59 
45.17638 59.31852 69 
45.17638 59.31852 79 
45.17638 59.31852 89 
45.17638 59.31852 99 
50 57.32051 19 
50 57.32051 29 
50 57.32051 39 
50 57.32051 49 
50 57.32051 59 
50 57.32051 69 
50 57.32051 79 
50 57.32051 89 
50 57.32051 99 
54.14214 54.14214 19 
54.14214 54.14214 29 
54.14214 54.14214 39 
54.14214 54.14214 49 
54.14214 54.14214 59 
54.14214 54.14214 69 
54.14214 54.14214 79 
54.14214 54.14214 89 
54.14214 54.14214 99 
57.32051 50 19 
57.32051 50 29 
57.32051 50 39 
57.32051 50 49 
57.32051 50 59 
57.32051 50 69 
57.32051 50 79 
57.32051 50 89 
57.32051 50 99 
59.31852 45.17638 19 
59.31852 45.17638 29 
59.31852 45.17638 39 
59.31852 45.17638 49 
59.31852 45.17638 59 
59.31852 45.17638 69 
59.31852 45.17638 79 
59.31852 45.17638 89 
59.31852 45.17638 99 
59.65926 37.41181 19 
59.65926 37.41181 29 
59.65926 37.41181 39 
59.65926 37.41181 49 
59.65926 37.41181 59 
59.65926 37.41181 69 
59.65926 37.41181 79 
59.65926 37.41181 89 
59.65926 37.41181 99 
58.31951 32.41181 19 
58.31951 32.41181 29 
58.31951 32.41181 39 
58.31951 32.41181 49 
58.31951 32.41181 59 
58.31951 32.41181 69 
58.31951 32.41181 79 
58.31951 32.41181 89 
58.31951 32.41181 99 
55.73132 27.92893 19 
55.73132 27.92893 29 
55.73132 27.92893 39 
55.73132 27.92893 49 
55.73132 27.92893 59 
55.73132 27.92893 69 
55.73132 27.92893 79 
55.73132 27.92893 89 
55.73132 27.92893 99 
52.07107 24.26868 19 
52.07107 24.26868 29 
52.07107 24.26868 39 
52.07107 24.26868 49 
52.07107 24.26868 59 
52.07107 24.26868 69 
52.07107 24.26868 79 
52.07107 24.26868 89 
52.07107 24.26868 99 
47.58819 21.68049 19 
47.58819 21.68049 29 
47.58819 21.68049 39 
47.58819 21.68049 49 
47.58819 21.68049 59 
47.58819 21.68049 69 
47.58819 21.68049 79 
47.58819 21.68049 89 
47.58819 21.68049 99 
42.58819 20.34074 19 
42.58819 20.34074 29 
42.58819 20.34074 39 
42.58819 20.34074 49 
42.58819 20.34074 59 
42.58819 20.34074 69 
42.58819 20.34074 79 
42.58819 20.34074 89 
42.58819 20.34074 99 
37.41181 20.34074 19 
37.41181 20.34074 29 
37.41181 20.34074 39 
37.41181 20.34074 49 
37.41181 20.34074 59 
37.41181 20.34074 69 
37.41181 20.34074 79 
37.41181 20.34074 89 
37.41181 20.34074 99 
32.41181 21.68049 19 
32.41181 21.68049 29 
32.41181 21.68049 39 
32.41181 21.68049 49 
32.41181 21.68049 59 
32.41181 21.68049 69 
32.41181 21.68049 79 
32.41181 21.68049 89 
32.41181 21.68049 99 
27.92893 24.26868 19 
27.92893 24.26868 29 
27.92893 24.26868 39 
27.92893 24.26868 49 
27.92893 24.26868 59 
27.92893 24.26868 69 
27.92893 24.26868 79 
27.92893 24.26868 89 
27.92893 24.26868 99 
24.26868 27.92893 19 
24.26868 27.92893 29 
24.26868 27.92893 39 
24.26868 27.92893 49 
24.26868 27.92893 59 
24.26868 27.92893 69 
24.26868 27.92893 79 
24.26868 27.92893 89 
24.26868 27.92893 99 
21.68049 32.41181 19 
21.68049 32.41181 29 
21.68049 32.41181 39 
21.68049 32.41181 49 
21.68049 32.41181 59 
21.68049 32.41181 69 
21.68049 32.41181 79 
21.68049 32.41181 89 
21.68049 32.41181 99 
20.34074 37.41181 19 
20.34074 37.41181 29 
20.34074 37.41181 39 
20.34074 37.41181 49 
20.34074 37.41181 59 
20.34074 37.41181 69 
20.34074 37.41181 79 
20.34074 37.41181 89 
20.34074 37.41181 99 
20.34074 42.58819 19 
20.34074 42.58819 29 
20.34074 42.58819 39 
20.34074 42.58819 49 
20.34074 42.58819 59 
20.34074 42.58819 69 
20.34074 42.58819 79 
20.34074 42.58819 89 
20.34074 42.58819 99 
21.68049 47.58819 19 
21.68049 47.58819 29 
21.68049 47.58819 39 
21.68049 47.58819 49 
21.68049 47.58819 59 
21.68049 47.58819 69 
21.68049 47.58819 79 
21.68049 47.58819 89 
21.68049 47.58819 99 
24.26868 52.07107 19 
24.26868 52.07107 29 
24.26868 52.07107 39 
24.26868 52.07107 49 
24.26868 52.07107 59 
24.26868 52.07107 69 
24.26868 52.07107 79 
24.26868 52.07107 89 
24.26868 52.07107 99 
27.92893 55.73132 19 
27.92893 55.73132 29 
27.92893 55.73132 39 
27.92893 55.73132 49 
27.92893 55.73132 59 
27.92893 55.73132 69 
27.92893 55.73132 79 
27.92893 55.73132 89 
27.92893 55.73132 99 
32.41181 58.31951 19 
32.41181 58.31951 29 
32.41181 58.31951 39 
32.41181 58.31951 49 
32.41181 58.31951 59 
32.41181 58.31951 69 
32.41181 58.31951 79 
32.41181 58.31951 89 
32.41181 58.31951 99 
37.41181 59.65926 19 
37.41181 59.65926 29 
37.41181 59.65926 39 
37.41181 59.65926 49 
37.41181 59.65926 59 
37.41181 59.65926 69 
37.41181 59.65926 79 
37.41181 59.65926 89 
37.41181 59.65926 99 
42.58819 59.65926 19 
42.58819 59.65926 29 
42.58819 59.65926 39 
42.58819 59.65926 49 
42.58819 59.65926 59 
42.58819 59.65926 69 
42.58819 59.65926 79 
42.58819 59.65926 89 
42.58819 59.65926 99 
47.58819 58.31951 19 
47.58819 58.31951 29 
47.58819 58.31951 39 
47.58819 58.31951 49 
47.58819 58.31951 59 
47.58819 58.31951 69 
47.58819 58.31951 79 
47.58819 58.31951 89 
47.58819 58.31951 99 
52.07107 55.73132 19 
52.07107 55.73132 29 
52.07107 55.73132 39 
52.07107 55.73132 49 
52.07107 55.73132 59 
52.07107 55.73132 69 
52.07107 55.73132 79 
52.07107 55.73132 89 
52.07107 55.73132 99 
55.73132 52.07107 19 
55.73132 52.07107 29 
55.73132 52.07107 39 
55.73132 52.07107 49 
55.73132 52.07107 59 
55.73132 52.07107 69 
55.73132 52.07107 79 
55.73132 52.07107 89 
55.73132 52.07107 99 
58.31951 47.58819 19 
58.31951 47.58819 29 
58.31951 47.58819 39 
58.31951 47.58819 49 
58.31951 47.58819 59 
58.31951 47.58819 69 
58.31951 47.58819 79 
58.31951 47.58819 89 
58.31951 47.58819 99 
59.65926 42.58819 19 
59.65926 42.58819 29 
59.65926 42.58819 39 
59.65926 42.58819 49 
59.65926 42.58819 59 
59.65926 42.58819 69 
59.65926 42.58819 79 
59.65926 42.58819 89 
59.65926 42.58819 99 
25.00262 49.89872 109 
49.58855 54.59292 109 
30.13667 25.3859 109 
54.70126 30.27467 109 
38.78492 22.17496 109 
22.37243 41.08599 109 
57.60529 38.97419 109 
40.999 57.58819 109 
47.92893 24.26868 109 
55.73132 47.92893 109 
24.15418 31.85715 109 
32.33659 55.74374 109 
57.48865 43.39297 109 
43.5872 22.75255 109 
22.59538 36.51168 109 
36.31783 57.22719 109 
56.83391 34.5463 109 
45.55502 56.84943 109 
34.48288 23.26967 109 
23.15784 45.70051 109 
51.86235 26.64754 109 
53.14313 51.73033 109 
26.83174 28.57828 109 
28.68479 53.05567 109 
55.8592 32.46136 109 
53.38291 32.58252 109 
52.03476 30.43839 109 
50.83954 32.63101 109 
52.14669 34.8819 109 
49.59559 34.9047 109 
48.2536 32.66626 109 
46.99944 34.95046 109 
48.35196 37.18316 109 
45.74528 37.23526 109 
44.39309 35.00225 109 
43.13566 37.28918 109 
44.48758 39.52238 109 
41.87769 39.57647 109 
40.52582 37.34325 109 
39.26776 39.6306 109 
40.61963 41.86382 109 
38.00967 41.91796 109 
36.6578 39.68474 109 
39.36155 44.15118 109 
35.39971 41.97211 109 
34.04784 39.73889 109 
41.9715 44.09704 109 
35.30593 37.45152 109 
40.71342 46.3844 109 
38.10345 46.43855 109 
43.32338 46.33026 109 
32.78975 42.02625 109 
32.69596 37.50566 109 
33.95406 35.2183 109 
39.45533 48.67177 109 
36.84536 48.72592 109 
31.3441 35.27244 109 
30.086 37.55981 109 
32.60218 32.98508 109 
35.21215 32.93093 109 
33.86028 30.69771 109 
36.47024 30.64357 109 
38.19724 50.95914 109 
40.8072 50.90499 109 
35.58727 51.01328 109 
34.2354 48.78006 109 
29.99222 33.03922 109 
44.58147 44.04289 109 
45.93334 46.27612 109 
47.19143 43.98875 109 
48.5433 46.22197 109 
49.8014 43.9346 109 
47.28521 48.50933 109 
37.82211 32.87679 109 
39.0802 30.58942 109 
37.72833 28.3562 109 
40.33829 28.30206 109 
41.69016 30.53528 109 
42.94825 28.24791 109 
32.97692 51.04871 109 
31.62538 48.83109 109 
51.15327 46.16782 109 
52.3814 43.89859 109 
51.05449 41.65026 109 
53.66964 41.56252 109 
39.54821 53.1489 109 
42.15764 53.06942 109 
52.31677 39.35528 109 
44.30017 30.48112 109 
45.50751 28.22452 109 
43.41692 50.83938 109 
34.14162 44.25947 109 
31.53166 44.31362 109 
30.17979 42.0804 109 
28.9217 44.36776 109 
27.56982 42.13454 109 
44.76049 52.94904 109 
41.49115 26.16291 109 
34.34693 53.59163 109 
26.36771 44.38802 109 
27.71532 46.62382 109 
30.36735 51.12157 109 
24.91942 42.16146 109 
26.30689 39.86761 109 
54.94785 39.21766 109 
53.85949 46.05502 109 
52.78651 48.70135 109 
49.41306 30.44914 109 
53.48401 37.11378 109 
46.8825 30.44584 109 
47.82815 28.31247 109 
47.09692 39.46862 109 
50.95407 37.13229 109 
45.64514 32.71907 109 
41.78378 35.05597 109 
45.83942 41.75562 109 
43.04073 32.76939 109 
39.17395 35.11003 109 
46.02566 50.77229 109 
47.40746 53.11231 109 
48.48122 50.66402 109 
40.43182 32.82281 109 
44.67497 48.5575 109 
36.56401 35.16416 109 
28.84274 39.84156 109 
27.50529 37.61397 109 
28.73901 35.32659 109 
26.34983 35.26033 109 
27.58168 33.07689 109 
28.62845 30.76337 109 
31.24833 30.74475 109 
32.61889 28.52426 109 
29.95525 28.16184 109 
42.0652 48.61472 109 
49.89518 48.45519 109 
37.05581 53.21481 109 
35.13678 28.42031 109 
36.30054 26.07861 109 
38.83674 26.14339 109 
31.44035 39.7921 109 
37.91589 37.39738 109 
43.22958 41.80968 109 
48.44854 41.70198 109 
44.01669 25.55092 109 
36.75158 44.20533 109 
33.77347 26.14764 109 
35.49349 46.49269 109 
30.28218 46.59525 109 
32.88495 46.54536 109 
29.01548 48.88835 109 
49.70379 39.41526 109 
38.23783 55.39085 109 
24.83324 37.57138 109 
31.52775 53.22617 109 
43.78445 55.04417 109 
37.12128 23.80758 109 
56.02451 37.11589 109 
56.16234 41.36518 109 
34.50706 55.73014 109 
26.21464 31.24524 109 
55.05611 43.68869 109 
40.91129 55.30327 109 
50.77793 50.83711 109 
23.87661 34.45886 109 
51.49348 53.2661 109 
47.7022 55.81848 109 
32.10438 24.29336 109 
50.08613 25.42145 109 
54.75386 50.02247 109 
24.13168 47.93795 109 
41.31652 22.28029 109 
22.28029 38.68348 109 
56.62893 45.63837 109 
45.80146 23.50418 109 
22.62213 43.41554 109 
53.46065 28.4012 109 
28.14209 26.45051 109 
26.53276 51.42458 109 
38.76725 57.68142 109 
46.51138 26.09098 109 
30.09561 55.01548 109 
54.53359 34.9328 109 
43.16905 57.29381 109 
39.96069 24.12031 109 
50.39065 28.10624 109 
24.12206 39.78948 109 
45.84192 54.75469 109 
25.59576 46.3811 109 
57.90302 36.45197 109 
26.62525 48.85021 109 
28.38313 50.79693 109 
31.82144 26.59698 109 
42.07445 24.1734 109 
36.17067 55.05537 109 
58.29962 41.18796 109 
49.54973 52.49449 109 
36.35893 21.94009 109 
24.44998 44.02313 109 
48.54905 26.43996 109 
34.11448 57.46061 109 
24.74678 29.88191 109 
25.58265 33.32853 109 
23.82005 47.78867 9 
49.39267 54.70869 9 
32.28823 24.2847 9 
55.72385 32.12786 9 
30.3433 54.95285 9 
25.40247 30.35849 9 
49.89354 24.84957 9 
39.001 57.58819 9 
56.67751 45.43106 9 
40.9508 22.46131 9 
22.50125 38.76944 9 
57.8342 38.96367 9 
45.66588 56.57195 9 
54.73232 49.65926 9 
36.31009 22.98639 9 
22.75255 43.5872 9 
34.14297 56.51949 9 
45.51712 23.26967 9 
23.12206 34.40449 9 
26.85687 51.73033 9 
28.51639 26.59978 9 
53.34522 28.12151 9 
56.68364 34.45747 9 
54.13885 34.14404 9 
53.03257 31.83886 9 
51.53497 33.8198 9 
52.54924 36.21659 9 
49.96098 35.87609 9 
48.96196 33.46432 9 
47.37657 35.53172 9 
48.37494 37.94414 9 
45.78728 37.60289 9 
46.78627 40.01472 9 
44.1982 39.67386 9 
43.19917 37.26207 9 
41.61 39.33312 9 
40.611 36.92131 9 
39.02182 38.99237 9 
40.02082 41.40418 9 
37.43263 41.06344 9 
38.43163 43.47525 9 
36.43362 38.65163 9 
34.84444 40.7227 9 
33.84544 38.31089 9 
41.01982 43.81599 9 
39.43064 45.88706 9 
42.01883 46.2278 9 
35.43462 36.23982 9 
36.84245 45.54632 9 
46.37693 33.12053 9 
32.25625 40.38196 9 
37.84145 47.95813 9 
32.84643 35.89908 9 
34.43562 33.82801 9 
35.25326 47.61739 9 
49.37458 40.35534 9 
47.78537 42.42643 9 
31.84743 33.48727 9 
30.25824 35.55834 9 
33.43661 31.4162 9 
36.0248 31.75695 9 
50.37358 42.76715 9 
48.78439 44.83822 9 
36.25227 50.0292 9 
38.84046 50.36994 9 
33.66408 49.68846 9 
32.66507 47.27665 9 
35.0258 29.34514 9 
37.61399 29.68588 9 
47.96601 31.04956 9 
45.37833 30.70832 9 
51.37259 45.17896 9 
49.7834 47.25003 9 
47.19521 46.90929 9 
48.19421 49.32109 9 
45.60603 48.98035 9 
38.61299 32.09769 9 
40.20218 30.02662 9 
39.20317 27.61481 9 
41.79137 27.95555 9 
41.20118 32.43843 9 
51.96277 40.69608 9 
37.25246 52.43199 9 
39.83966 52.78025 9 
46.62337 51.25286 9 
30.86353 31.08706 9 
31.07589 49.34771 9 
30.07688 46.93591 9 
44.01989 51.02821 9 
43.60802 44.15673 9 
33.25525 42.79377 9 
30.66706 42.45303 9 
29.66806 40.04122 9 
28.07887 42.11229 9 
27.11766 39.72947 9 
46.88778 28.67025 9 
50.68019 49.5834 9 
49.437 28.99722 9 
32.09539 51.60383 9 
45.27631 53.60291 9 
25.27469 42.10773 9 
26.64359 44.28238 9 
28.4877 49.00697 9 
40.90699 25.22373 9 
43.54877 25.7851 9 
38.24139 24.95716 9 
38.25027 54.85282 9 
40.77446 55.20987 9 
42.42765 53.12249 9 
41.42919 50.70656 9 
44.60702 46.56854 9 
49.39777 51.97888 9 
51.84403 51.99622 9 
36.73265 27.31863 9 
34.11041 26.64381 9 
52.66198 47.73232 9 
53.96078 45.5197 9 
32.46678 28.98771 9 
45.19718 42.08569 9 
42.20018 34.85024 9 
42.609 41.74493 9 
39.612 34.5095 9 
40.42973 48.29818 9 
28.67535 37.63424 9 
26.29956 37.48872 9 
35.84344 43.13451 9 
29.26175 33.14846 9 
28.11304 30.7557 9 
26.6442 32.81638 9 
50.41148 31.45667 9 
43.78938 32.77917 9 
42.79033 30.3674 9 
29.5581 51.3634 9 
38.02281 36.58057 9 
31.25829 37.97095 9 
34.66788 52.06379 9 
32.79718 54.08995 9 
27.76016 35.29732 9 
37.02381 34.16875 9 
27.63358 46.70778 9 
46.1962 44.49748 9 
43.01845 48.63494 9 
50.96241 38.28554 9 
53.44982 38.66775 9 
54.39495 41.08145 9 
54.96843 36.5648 9 
44.39422 28.28531 9 
46.02428 26.12844 9 
44.78825 35.1911 9 
34.25426 45.20558 9 
52.91882 43.10232 9 
29.12768 44.55937 9 
31.67437 44.87072 9 
35.65992 54.44898 9 
43.26427 55.55027 9 
47.14322 54.80883 9 
29.65389 28.75537 9 
31.29586 26.70815 9 
34.57959 24.47757 9 
55.43957 43.34867 9 
57.11879 41.33604 9 
41.41936 57.54159 9 
25.59045 49.05112 9 
43.12347 23.22543 9 
24.76636 39.5135 9 
36.72505 56.84193 9 
55.53645 47.58305 9 
22.60593 41.09434 9 
24.15843 32.52148 9 
47.8502 24.22866 9 
54.68746 30 9 
38.76673 22.4485 9 
23.22481 45.85786 9 
22.71024 36.37111 9 
57.45667 36.68547 9 
26.84604 28.38321 9 
51.21478 26.91849 9 
28.52562 53.46941 9 
24.98409 35.22558 9 
31.99479 56.18895 9 
30.0042 24.9401 9 
57.6605 43.54587 9 
48.41607 26.66988 9 
43.58535 57.72749 9 
25.28516 46.25203 9 
51.53638 29.57026 9 
55.53239 39.21749 9 
53.84142 51.48013 9 
52.75199 50.09027 9 
34.14657 22.64676 9 
48.09053 56.39923 9 
39.70168 23.85727 9 
24.63616 44.41744 9 
47.66035 53.07834 9 
36.2093 25.34974 9 
24.19402 37.67954 9 
51.39848 53.94428 9 
30.62882 52.96912 9 
3 0 48 312 
3 0 312 96 
3 96 312 313 
3 96 313 97 
3 97 313 314 
3 97 314 98 
3 98 314 315 
3 98 315 99 
3 99 315 316 
3 99 316 100 
3 100 316 317 
3 100 317 101 
3 101 317 318 
3 101 318 102 
3 102 318 319 
3 102 319 103 
3 103 319 320 
3 103 320 104 
3 104 320 72 
3 104 72 24 
3 48 1 105 
3 48 105 312 
3 312 105 106 
3 312 106 313 
3 313 106 107 
3 313 107 314 
3 314 107 108 
3 314 108 315 
3 315 108 109 
3 315 109 316 
3 316 109 110 
3 316 110 317 
3 317 110 111 
3 317 111 318 
3 318 111 112 
3 318 112 319 
3 319 112 113 
3 319 113 320 
3 320 113 25 
3 320 25 72 
3 1 49 321 
3 1 321 105 
3 105 321 322 
3 105 322 106 
3 106 322 323 
3 106 323 107 
3 107 323 324 
3 107 324 108 
3 108 324 325 
3 108 325 109 
3 109 325 326 
3 109 326 110 
3 110 326 327 
3 110 327 111 
3 111 327 328 
3 111 328 112 
3 112 328 329 
3 112 329 113 
3 113 329 73 
3 113 73 25 
3 49 2 114 
3 49 114 321 
3 321 114 115 
3 321 115 322 
3 322 115 116 
3 322 116 323 
3 323 116 117 
3 323 117 324 
3 324 117 118 
3 324 118 325 
3 325 118 119 
3 325 119 326 
3 326 119 120 
3 326 120 327 
3 327 120 121 
3 327 121 328 
3 328 121 122 
3 328 122 329 
3 329 122 26 
3 329 26 73 
3 2 50 330 
3 2 330 114 
3 114 330 331 
3 114 331 115 
3 115 331 332 
3 115 332 116 
3 116 332 333 
3 116 333 117 
3 117 333 334 
3 117 334 118 
3 118 334 335 
3 118 335 119 
3 119 335 336 
3 119 336 120 
3 120 336 337 
3 120 337 121 
3 121 337 338 
3 121 338 122 
3 122 338 74 
3 122 74 26 
3 50 3 123 
3 50 123 330 
3 330 123 124 
3 330 124 331 
3 331 124 125 
3 331 125 332 
3 332 125 126 
3 332 126 333 
3 333 126 127 
3 333 127 334 
3 334 127 128 
3 334 128 335 
3 335 128 129 
3 335 129 336 
3 336 129 130 
3 336 130 337 
3 337 130 131 
3 337 131 338 
3 338 131 27 
3 338 27 74 
3 3 51 339 
3 3 339 123 
3 123 339 340 
3 123 340 124 
3 124 340 341 
3 124 341 125 
3 125 341 342 
3 125 342 126 
3 126 342 343 
3 126 343 127 
3 127 343 344 
3 127 344 128 
3 128 344 345 
3 128 345 129 
3 129 345 346 
3 129 346 130 
3 130 346 347 
3 130 347 131 
3 131 347 75 
3 131 75 27 
3 51 4 132 
3 51 132 339 
3 339 132 133 
3 339 133 340 
3 340 133 134 
3 340 134 341 
3 341 134 135 
3 341 135 342 
3 342 135 136 
3 342 136 343 
3 343 136 137 
3 343 137 344 
3 344 137 138 
3 344 138 345 
3 345 138 139 
3 345 139 346 
3 346 139 140 
3 346 140 347 
3 347 140 28 
3 347 28 75 
3 4 52 348 
3 4 348 132 
3 132 348 349 
3 132 349 133 
3 133 349 350 
3 133 350 134 
3 134 350 351 
3 134 351 135 
3 135 351 352 
3 135 352 136 
3 136 352 353 
3 136 353 137 
3 137 353 354 
3 137 354 138 
3 138 354 355 
3 138 355 139 
3 139 355 356 
3 139 356 140 
3 140 356 76 
3 140 76 28 
3 52 5 141 
3 52 141 348 
3 348 141 142 
3 348 142 349 
3 349 142 143 
3 349 143 350 
3 350 143 144 
3 350 144 351 
3 351 144 145 
3 351 145 352 
3 352 145 146 
3 352 146 353 
3 353 146 147 
3 353 147 354 
3 354 147 148 
3 354 148 355 
3 355 148 149 
3 355 149 356 
3 356 149 29 
3 356 29 76 
3 5 53 357 
3 5 357 141 
3 141 357 358 
3 141 358 142 
3 142 358 359 
3 142 359 143 
3 143 359 360 
3 143 360 144 
3 144 360 361 
3 144 361 145 
3 145 361 362 
3 145 362 146 
3 146 362 363 
3 146 363 147 
3 147 363 364 
3 147 364 148 
3 148 364 365 
3 148 365 149 
3 149 365 77 
3 149 77 29 
3 53 6 150 
3 53 150 357 
3 357 150 151 
3 357 151 358 
3 358 151 152 
3 358 152 359 
3 359 152 153 
3 359 153 360 
3 360 153 154 
3 360 154 361 
3 361 154 155 
3 361 155 362 
3 362 155 156 
3 362 156 363 
3 363 156 157 
3 363 157 364 
3 364 157 158 
3 364 158 365 
3 365 158 30 
3 365 30 77 
3 6 54 366 
3 6 366 150 
3 150 366 367 
3 150 367 151 
3 151 367 368 
3 151 368 152 
3 152 368 369 
3 152 369 153 
3 153 369 370 
3 153 370 154 
3 154 370 371 
3 154 371 155 
3 155 371 372 
3 155 372 156 
3 156 372 373 
3 156 373 157 
3 157 373 374 
3 157 374 158 
3 158 374 78 
3 158 78 30 
3 54 7 159 
3 54 159 366 
3 366 159 160 
3 366 160 367 
3 367 160 161 
3 367 161 368 
3 368 161 162 
3 368 162 369 
3 369 162 163 
3 369 163 370 
3 370 163 164 
3 370 164 371 
3 371 164 165 
3 371 165 372 
3 372 165 166 
3 372 166 373 
3 373 166 167 
3 373 167 374 
3 374 167 31 
3 374 31 78 
3 7 55 375 
3 7 375 159 
3 159 375 376 
3 159 376 160 
3 160 376 377 
3 160 377 161 
3 161 377 378 
3 161 378 162 
3 162 378 379 
3 162 379 163 
3 163 379 380 
3 163 380 164 
3 164 380 381 
3 164 381 165 
3 165 381 382 
3 165 382 166 
3 166 382 383 
3 166 383 167 
3 167 383 79 
3 167 79 31 
3 55 8 168 
3 55 168 375 
3 375 168 169 
3 375 169 376 
3 376 169 170 
3 376 170 377 
3 377 170 171 
3 377 171 378 
3 378 171 172 
3 378 172 379 
3 379 172 173 
3 379 173 380 
3 380 173 174 
3 380 174 381 
3 381 174 175 
3 381 175 382 
3 382 175 176 
3 382 176 383 
3 383 176 32 
3 383 32 79 
3 8 56 384 
3 8 384 168 
3 168 384 385 
3 168 385 169 
3 169 385 386 
3 169 386 170 
3 170 386 387 
3 170 387 171 
3 171 387 388 
3 171 388 172 
3 172 388 389 
3 172 389 173 
3 173 389 390 
3 173 390 174 
3 174 390 391 
3 174 391 175 
3 175 391 392 
3 175 392 176 
3 176 392 80 
3 176 80 32 
3 56 9 177 
3 56 177 384 
3 384 177 178 
3 384 178 385 
3 385 178 179 
3 385 179 386 
3 386 179 180 
3 386 180 387 
3 387 180 181 
3 387 181 388 
3 388 181 182 
3 388 182 389 
3 389 182 183 
3 389 183 390 
3 390 183 184 
3 390 184 391 
3 391 184 185 
3 391 185 392 
3 392 185 33 
3 392 33 80 
3 9 57 393 
3 9 393 177 
3 177 393 394 
3 177 394 178 
3 178 394 395 
3 178 395 179 
3 179 395 396 
3 179 396 180 
3 180 396 397 
3 180 397 181 
3 181 397 398 
3 181 398 182 
3 182 398 399 
3 182 399 183 
3 183 399 400 
3 183 400 184 
3 184 400 401 
3 184 401 185 
3 185 401 81 
3 185 81 33 
3 57 10 186 
3 57 186 393 
3 393 186 187 
3 393 187 394 
3 394 187 188 
3 394 188 395 
3 395 188 189 
3 395 189 396 
3 396 189 190 
3 396 190 397 
3 397 190 191 
3 397 191 398 
3 398 191 192 
3 398 192 399 
3 399 192 193 
3 399 193 400 
3 400 193 194 
3 400 194 401 
3 401 194 34 
3 401 34 81 
3 10 58 402 
3 10 402 186 
3 186 402 403 
3 186 403 187 
3 187 403 404 
3 187 404 188 
3 188 404 405 
3 188 405 189 
3 189 405 406 
3 189 406 190 
3 190 406 407 
3 190 407 191 
3 191 407 408 
3 191 408 192 
3 192 408 409 
3 192 409 193 
3 193 409 410 
3 193 410 194 
3 194 410 82 
3 194 82 34 
3 58 11 195 
3 58 195 402 
3 402 195 196 
3 402 196 403 
3 403 196 197 
3 403 197 404 
3 404 197 198 
3 404 198 405 
3 405 198 199 
3 405 199 406 
3 406 199 200 
3 406 200 407 
3 407 200 201 
3 407 201 408 
3 408 201 202 
3 408 202 409 
3 409 202 203 
3 409 203 410 
3 410 203 35 
3 410 35 82 
3 11 59 411 
3 11 411 195 
3 195 411 412 
3 195 412 196 
3 196 412 413 
3 196 413 197 
3 197 413 414 
3 197 414 198 
3 198 414 415 
3 198 415 199 
3 199 415 416 
3 199 416 200 
3 200 416 417 
3 200 417 201 
3 201 417 418 
3 201 418 202 
3 202 418 419 
3 202 419 203 
3 203 419 83 
3 203 83 35 
3 59 12 204 
3 59 204 411 
3 411 204 205 
3 411 205 412 
3 412 205 206 
3 412 206 413 
3 413 206 207 
3 413 207 414 
3 414 207 208 
3 414 208 415 
3 415 208 209 
3 415 209 416 
3 416 209 210 
3 416 210 417 
3 417 210 211 
3 417 211 418 
3 418 211 212 
3 418 212 419 
3 419 212 36 
3 419 36 83 
3 12 60 420 
3 12 420 204 
3 204 420 421 
3 204 421 205 
3 205 421 422 
3 205 422 206 
3 206 422 423 
3 206 423 207 
3 207 423 424 
3 207 424 208 
3 208 424 425 
3 208 425 209 
3 209 425 426 
3 209 426 210 
3 210 426 427 
3 210 427 211 
3 211 427 428 
3 211 428 212 
3 212 428 84 
3 212 84 36 
3 60 13 213 
3 60 213 420 
3 420 213 214 
3 420 214 421 
3 421 214 215 
3 421 215 422 
3 422 215 216 
3 422 216 423 
3 423 216 217 
3 423 217 424 
3 424 217 218 
3 424 218 425 
3 425 218 219 
3 425 219 426 
3 426 219 220 
3 426 220 427 
3 427 220 221 
3 427 221 428 
3 428 221 37 
3 428 37 84 
3 13 61 429 
3 13 429 213 
3 213 429 430 
3 213 430 214 
3 214 430 431 
3 214 431 215 
3 215 431 432 
3 215 432 216 
3 216 432 433 
3 216 433 217 
3 217 433 434 
3 217 434 218 
3 218 434 435 
3 218 435 219 
3 219 435 436 
3 219 436 220 
3 220 436 437 
3 220 437 221 
3 221 437 85 
3 221 85 37 
3 61 14 222 
3 61 222 429 
3 429 222 223 
3 429 223 430 
3 430 223 224 
3 430 224 431 
3 431 224 225 
3 431 225 432 
3 432 225 226 
3 432 226 433 
3 433 226 227 
3 433 227 434 
3 434 227 228 
3 434 228 435 
3 435 228 229 
3 435 229 436 
3 436 229 230 
3 436 230 437 
3 437 230 38 
3 437 38 85 
3 14 62 438 
3 14 438 222 
3 222 438 439 
3 222 439 223 
3 223 439 440 
3 223 440 224 
3 224 440 441 
3 224 441 225 
3 225 441 442 
3 225 442 226 
3 226 442 443 
3 226 443 227 
3 227 443 444 
3 227 444 228 
3 228 444 445 
3 228 445 229 
3 229 445 446 
3 229 446 230 
3 230 446 86 
3 230 86 38 
3 62 15 231 
3 62 231 438 
3 438 231 232 
3 438 232 439 
3 439 232 233 
3 439 233 440 
3 440 233 234 
3 440 234 441 
3 441 234 235 
3 441 235 442 
3 442 235 236 
3 442 236 443 
3 443 236 237 
3 443 237 444 
3 444 237 238 
3 444 238 445 
3 445 238 239 
3 445 239 446 
3 446 239 39 
3 446 39 86 
3 15 63 447 
3 15 447 231 
3 231 447 448 
3 231 448 232 
3 232 448 449 
3 232 449 233 
3 233 449 450 
3 233 450 234 
3 234 450 451 
3 234 451 235 
3 235 451 452 
3 235 452 236 
3 236 452 453 
3 236 453 237 
3 237 453 454 
3 237 454 238 
3 238 454 455 
3 238 455 239 
3 239 455 87 
3 239 87 39 
3 63 16 240 
3 63 240 447 
3 447 240 241 
3 447 241 448 
3 448 241 242 
3 448 242 449 
3 449 242 243 
3 449 243 450 
3 450 243 244 
3 450 244 451 
3 451 244 245 
3 451 245 452 
3 452 245 246 
3 452 246 453 
3 453 246 247 
3 453 247 454 
3 454 247 248 
3 454 248 455 
3 455 248 40 
3 455 40 87 
3 16 64 456 
3 16 456 240 
3 240 456 457 
3 240 457 241 
3 241 457 458 
3 241 458 242 
3 242 458 459 
3 242 459 243 
3 243 459 460 
3 243 460 244 
3 244 460 461 
3 244 461 245 
3 245 461 462 
3 245 462 246 
3 246 462 463 
3 246 463 247 
3 247 463 464 
3 247 464 248 
3 248 464 88 
3 248 88 40 
3 64 17 249 
3 64 249 456 
3 456 249 250 
3 456 250 457 
3 457 250 251 
3 457 251 458 
3 458 251 252 
3 458 252 459 
3 459 252 253 
3 459 253 460 
3 460 253 254 
3 460 254 461 
3 461 254 255 
3 461 255 462 
3 462 255 256 
3 462 256 463 
3 463 256 257 
3 463 257 464 
3 464 257 41 
3 464 41 88 
3 17 65 465 
3 17 465 249 
3 249 465 466 
3 249 466 250 
3 250 466 467 
3 250 467 251 
3 251 467 468 
3 251 468 252 
3 252 468 469 
3 252 469 253 
3 253 469 470 
3 253 470 254 
3 254 470 471 
3 254 471 255 
3 255 471 472 
3 255 472 256 
3 256 472 473 
3 256 473 257 
3 257 473 89 
3 257 89 41 
3 65 18 258 
3 65 258 465 
3 465 258 259 
3 465 259 466 
3 466 259 260 
3 466 260 467 
3 467 260 261 
3 467 261 468 
3 468 261 262 
3 468 262 469 
3 469 262 263 
3 469 263 470 
3 470 263 264 
3 470 264 471 
3 471 264 265 
3 471 265 472 
3 472 265 266 
3 472 266 473 
3 473 266 42 
3 473 42 89 
3 18 66 474 
3 18 474 258 
3 258 474 475 
3 258 475 259 
3 259 475 476 
3 259 476 260 
3 260 476 477 
3 260 477 261 
3 261 477 478 
3 261 478 262 
3 262 478 479 
3 262 479 263 
3 263 479 480 
3 263 480 264 
3 264 480 481 
3 264 481 265 
3 265 481 482 
3 265 482 266 
3 266 482 90 
3 266 90 42 
3 66 19 267 
3 66 267 474 
3 474 267 268 
3 474 268 475 
3 475 268 269 
3 475 269 476 
3 476 269 270 
3 476 270 477 
3 477 270 271 
3 477 271 478 
3 478 271 272 
3 478 272 479 
3 479 272 273 
3 479 273 480 
3 480 273 274 
3 480 274 481 
3 481 274 275 
3 481 275 482 
3 482 275 43 
3 482 43 90 
3 19 67 483 
3 19 483 267 
3 267 483 484 
3 267 484 268 
3 268 484 485 
3 268 485 269 
3 269 485 486 
3 269 486 270 
3 270 486 487 
3 270 487 271 
3 271 487 488 
3 271 488 272 
3 272 488 489 
3 272 489 273 
3 273 489 490 
3 273 490 274 
3 274 490 491 
3 274 491 275 
3 275 491 91 
3 275 91 43 
3 67 20 276 
3 67 276 483 
3 483 276 277 
3 483 277 484 
3 484 277 278 
3 484 278 485 
3 485 278 279 
3 485 279 486 
3 486 279 280 
3 486 280 487 
3 487 280 281 
3 487 281 488 
3 488 281 282 
3 488 282 489 
3 489 282 283 
3 489 283 490 
3 490 283 284 
3 490 284 491 
3 491 284 44 
3 491 44 91 
3 20 68 492 
3 20 492 276 
3 276 492 493 
3 276 493 277 
3 277 493 494 
3 277 494 278 
3 278 494 495 
3 278 495 279 
3 279 495 496 
3 279 496 280 
3 280 496 497 
3 280 497 281 
3 281 497 498 
3 281 498 282 
3 282 498 499 
3 282 499 283 
3 283 499 500 
3 283 500 284 
3 284 500 92 
3 284 92 44 
3 68 21 285 
3 68 285 492 
3 492 285 286 
3 492 286 493 
3 493 286 287 
3 493 287 494 
3 494 287 288 
3 494 288 495 
3 495 288 289 
3 495 289 496 
3 496 289 290 
3 496 290 497 
3 497 290 291 
3 497 291 498 
3 498 291 292 
3 498 292 499 
3 499 292 293 
3 499 293 500 
3 500 293 45 
3 500 45 92 
3 21 69 501 
3 21 501 285 
3 285 501 502 
3 285 502 286 
3 286 502 503 
3 286 503 287 
3 287 503 504 
3 287 504 288 
3 288 504 505 
3 288 505 289 
3 289 505 506 
3 289 506 290 
3 290 506 507 
3 290 507 291 
3 291 507 508 
3 291 508 292 
3 292 508 509 
3 292 509 293 
3 293 509 93 
3 293 93 45 
3 69 22 294 
3 69 294 501 
3 501 294 295 
3 501 295 502 
3 502 295 296 
3 502 296 503 
3 503 296 297 
3 503 297 504 
3 504 297 298 
3 504 298 505 
3 505 298 299 
3 505 299 506 
3 506 299 300 
3 506 300 507 
3 507 300 301 
3 507 301 508 
3 508 301 302 
3 508 302 509 
3 509 302 46 
3 509 46 93 
3 22 70 510 
3 22 510 294 
3 294 510 511 
3 294 511 295 
3 295 511 512 
3 295 512 296 
3 296 512 513 
3 296 513 297 
3 297 513 514 
3 297 514 298 
3 298 514 515 
3 298 515 299 
3 299 515 516 
3 299 516 300 
3 300 516 517 
3 300 517 301 
3 301 517 518 
3 301 518 302 
3 302 518 94 
3 302 94 46 
3 70 23 303 
3 70 303 510 
3 510 303 304 
3 510 304 511 
3 511 304 305 
3 511 305 512 
3 512 305 306 
3 512 306 513 
3 513 306 307 
3 513 307 514 
3 514 307 308 
3 514 308 515 
3 515 308 309 
3 515 309 516 
3 516 309 310 
3 516 310 517 
3 517 310 311 
3 517 311 518 
3 518 311 47 
3 518 47 94 
3 23 71 519 
3 23 519 303 
3 303 519 520 
3 303 520 304 
3 304 520 521 
3 304 521 305 
3 305 521 522 
3 305 522 306 
3 306 522 523 
3 306 523 307 
3 307 523 524 
3 307 524 308 
3 308 524 525 
3 308 525 309 
3 309 525 526 
3 309 526 310 
3 310 526 527 
3 310 527 311 
3 311 527 95 
3 311 95 47 
3 71 0 96 
3 71 96 519 
3 519 96 97 
3 519 97 520 
3 520 97 98 
3 520 98 521 
3 521 98 99 
3 521 99 522 
3 522 99 100 
3 522 100 523 
3 523 100 101 
3 523 101 524 
3 524 101 102 
3 524 102 525 
3 525 102 103 
3 525 103 526 
3 526 103 104 
3 526 104 527 
3 527 104 24 
3 527 24 95 
3 665 546 673 
3 629 551 681 
3 82 35 691 
3 683 666 711 
3 681 551 708 
3 541 671 701 
3 92 45 692 
3 680 655 691 
3 542 680 691 
3 546 665 683 
3 634 549 696 
3 549 634 690 
3 550 657 660 
3 532 683 711 
3 689 679 706 
3 535 689 706 
3 539 626 681 
3 685 612 688 
3 537 633 634 
3 35 542 691 
3 626 539 686 
3 701 671 707 
3 682 689 710 
3 689 535 710 
3 537 634 696 
3 45 549 692 
3 660 530 704 
3 530 660 719 
3 671 541 720 
3 554 703 712 
3 665 666 683 
3 552 553 709 
3 540 685 688 
3 703 548 712 
3 688 633 700 
3 529 647 693 
3 657 550 687 
3 715 697 717 
3 712 695 726 
3 538 82 691 
3 633 537 700 
3 697 528 717 
3 673 546 694 
3 550 660 704 
3 544 552 709 
3 529 92 692 
3 548 695 712 
3 717 705 718 
3 632 612 685 
3 528 705 717 
3 630 533 702 
3 555 554 635 
3 636 556 640 
3 617 637 638 
3 637 616 641 
3 556 557 640 
3 617 616 637 
3 558 637 641 
3 562 641 644 
3 641 616 644 
3 562 559 641 
3 557 560 640 
3 639 564 643 
3 640 560 678 
3 639 643 670 
3 560 639 678 
3 561 564 639 
3 670 611 678 
3 644 605 649 
3 639 670 678 
3 616 605 644 
3 642 644 649 
3 642 562 644 
3 563 562 642 
3 25 73 544 
3 43 91 545 
3 643 564 669 
3 605 602 649 
3 46 94 537 
3 28 76 536 
3 31 79 546 
3 602 601 649 
3 609 598 662 
3 600 646 648 
3 37 85 547 
3 601 645 649 
3 34 82 538 
3 40 88 539 
3 646 600 650 
3 645 601 651 
3 652 585 653 
3 564 565 669 
3 598 600 662 
3 653 585 654 
3 658 659 660 
3 634 609 662 
3 596 578 650 
3 585 652 667 
3 578 576 661 
3 586 588 658 
3 600 648 662 
3 584 594 654 
3 650 578 661 
3 576 582 661 
3 600 596 650 
3 652 621 667 
3 651 575 668 
3 585 584 654 
3 658 588 659 
3 656 594 657 
3 565 568 669 
3 594 586 658 
3 582 591 661 
3 654 594 656 
3 581 575 651 
3 646 624 647 
3 618 646 650 
3 615 612 632 
3 582 590 591 
3 657 594 658 
3 587 581 651 
3 591 590 613 
3 630 623 631 
3 574 576 578 
3 645 651 668 
3 589 587 601 
3 627 623 630 
3 623 621 652 
3 568 571 574 
3 589 601 602 
3 601 587 651 
3 591 613 614 
3 659 588 664 
3 574 571 576 
3 588 587 589 
3 646 647 648 
3 589 602 603 
3 611 610 612 
3 618 614 624 
3 595 578 596 
3 604 625 666 
3 618 624 646 
3 657 658 660 
3 598 596 600 
3 603 602 604 
3 622 621 623 
3 618 650 661 
3 574 578 595 
3 603 604 666 
3 615 632 636 
3 653 654 655 
3 611 612 615 
3 597 596 598 
3 591 618 661 
3 586 581 587 
3 575 570 668 
3 580 585 667 
3 595 596 597 
3 591 614 618 
3 604 602 605 
3 573 570 575 
3 606 605 616 
3 24 72 534 
3 599 610 611 
3 604 606 625 
3 568 569 571 
3 597 598 599 
3 576 577 582 
3 586 587 588 
3 631 652 653 
3 665 603 666 
3 582 583 590 
3 580 584 585 
3 631 623 652 
3 625 606 671 
3 620 579 621 
3 604 605 606 
3 573 580 667 
3 588 589 664 
3 568 574 669 
3 645 642 649 
3 606 616 617 
3 621 579 667 
3 595 597 643 
3 599 609 610 
3 565 567 568 
3 633 609 634 
3 664 603 665 
3 622 623 627 
3 26 74 531 
3 573 575 580 
3 580 575 581 
3 589 603 664 
3 42 90 535 
3 579 573 667 
3 584 581 586 
3 595 643 669 
3 620 621 622 
3 566 563 642 
3 592 626 663 
3 599 611 670 
3 566 642 645 
3 572 570 573 
3 574 595 669 
3 570 567 668 
3 597 599 670 
3 643 597 670 
3 572 573 579 
3 576 571 577 
3 572 579 619 
3 599 598 609 
3 619 579 620 
3 615 636 640 
3 606 617 671 
3 592 607 626 
3 568 567 569 
3 580 581 584 
3 584 586 594 
3 613 590 663 
3 572 619 672 
3 567 566 668 
3 566 645 668 
3 610 609 633 
3 607 608 629 
3 571 569 672 
3 44 92 529 
3 655 654 656 
3 569 567 570 
3 592 593 607 
3 569 570 572 
3 565 566 567 
3 582 577 583 
3 607 593 608 
3 569 572 672 
3 590 583 592 
3 577 571 672 
3 47 95 540 
3 590 592 663 
3 30 78 532 
3 659 664 673 
3 622 627 628 
3 565 563 566 
3 592 583 593 
3 664 665 673 
3 27 75 548 
3 45 93 549 
3 29 77 541 
3 41 89 543 
3 36 84 533 
3 672 619 674 
3 674 619 676 
3 593 583 674 
3 577 672 674 
3 35 83 542 
3 593 674 676 
3 583 577 674 
3 620 675 676 
3 622 628 675 
3 619 620 676 
3 564 563 565 
3 620 622 675 
3 33 81 550 
3 675 608 676 
3 629 608 677 
3 608 593 676 
3 32 80 530 
3 39 87 551 
3 675 628 677 
3 608 675 677 
3 38 86 528 
3 561 563 564 
3 561 562 563 
3 611 615 678 
3 560 561 639 
3 561 559 562 
3 615 640 678 
3 560 559 561 
3 637 635 638 
3 557 559 560 
3 559 558 641 
3 558 635 637 
3 557 558 559 
3 558 555 635 
3 557 555 558 
3 556 555 557 
3 553 555 556 
3 656 657 687 
3 553 554 555 
3 613 663 679 
3 536 701 707 
3 693 647 714 
3 680 542 699 
3 653 655 680 
3 656 687 729 
3 626 607 681 
3 553 531 554 
3 631 653 680 
3 684 544 709 
3 612 610 688 
3 533 630 713 
3 43 545 710 
3 634 662 690 
3 534 632 685 
3 607 629 681 
3 613 679 689 
3 551 629 718 
3 624 614 682 
3 632 534 684 
3 73 26 552 
3 91 44 693 
3 26 531 552 
3 44 529 693 
3 79 32 694 
3 85 38 697 
3 32 530 694 
3 46 537 696 
3 28 536 695 
3 38 528 697 
3 75 28 695 
3 93 46 696 
3 77 30 698 
3 83 36 699 
3 30 532 698 
3 36 533 699 
3 94 47 700 
3 76 29 701 
3 47 540 700 
3 29 541 701 
3 84 37 702 
3 37 547 702 
3 74 27 703 
3 27 548 703 
3 80 33 704 
3 86 39 705 
3 33 550 704 
3 39 551 705 
3 617 638 707 
3 553 556 709 
3 89 42 706 
3 42 535 706 
3 90 43 710 
3 540 688 700 
3 682 614 689 
3 687 538 729 
3 635 554 712 
3 636 632 684 
3 87 40 708 
3 40 539 708 
3 610 633 688 
3 534 72 716 
3 550 81 728 
3 539 88 727 
3 660 659 719 
3 532 78 724 
3 540 95 722 
3 663 626 721 
3 614 613 689 
3 662 648 690 
3 680 699 713 
3 552 531 553 
3 625 671 720 
3 673 694 719 
3 647 529 723 
3 630 631 713 
3 636 684 709 
3 638 712 726 
3 685 540 722 
3 683 532 724 
3 686 539 727 
3 687 550 728 
3 684 534 716 
3 626 686 721 
3 551 87 708 
3 543 89 706 
3 624 682 714 
3 682 545 714 
3 544 73 552 
3 545 91 693 
3 546 79 694 
3 548 75 695 
3 549 93 696 
3 547 85 697 
3 541 77 698 
3 542 83 699 
3 537 94 700 
3 536 76 701 
3 533 84 702 
3 531 74 703 
3 530 80 704 
3 528 86 705 
3 554 531 703 
3 671 617 707 
3 679 543 706 
3 556 636 709 
3 535 90 710 
3 544 684 716 
3 690 648 723 
3 545 682 710 
3 547 715 725 
3 692 690 723 
3 666 625 711 
3 539 681 708 
3 694 530 719 
3 549 690 692 
3 25 544 716 
3 638 635 712 
3 647 624 714 
3 24 534 722 
3 31 546 724 
3 41 543 727 
3 34 538 728 
3 630 702 725 
3 628 627 715 
3 547 697 715 
3 631 680 713 
3 628 715 717 
3 72 25 716 
3 677 628 717 
3 677 717 718 
3 715 627 725 
3 543 679 721 
3 629 677 718 
3 659 673 719 
3 707 638 726 
3 655 656 729 
3 95 24 722 
3 648 647 723 
3 78 31 724 
3 627 630 725 
3 679 663 721 
3 88 41 727 
3 81 34 728 
3 698 532 711 
3 534 685 722 
3 546 683 724 
3 705 551 718 
3 543 686 727 
3 538 687 728 
3 686 543 721 
3 699 533 713 
3 545 693 714 
3 529 692 723 
3 541 698 720 
3 691 655 729 
3 702 547 725 
3 695 536 726 
3 536 707 726 
3 698 711 720 
3 538 691 729 
3 711 625 720 
3 827 912 906 
3 14 892 62 
3 5 893 53 
3 906 912 736 
3 12 897 60 
3 892 914 869 
3 747 877 834 
3 857 905 886 
3 730 914 892 
3 730 892 14 
3 747 893 5 
3 740 897 12 
3 17 895 65 
3 22 896 70 
3 71 890 0 
3 886 905 750 
3 739 893 833 
3 834 893 747 
3 844 887 732 
3 742 884 829 
3 0 890 741 
3 858 908 898 
3 732 888 844 
3 829 885 742 
3 845 896 743 
3 746 895 17 
3 906 915 827 
3 832 862 749 
3 743 896 22 
3 830 922 745 
3 745 897 830 
3 908 925 903 
3 857 858 735 
3 836 837 737 
3 62 892 749 
3 748 908 903 
3 53 893 739 
3 744 901 835 
3 743 918 845 
3 904 916 875 
3 754 915 900 
3 833 921 739 
3 841 926 731 
3 750 887 886 
3 832 892 869 
3 735 905 857 
3 60 897 745 
3 749 892 832 
3 898 908 748 
3 833 893 834 
3 741 916 904 
3 900 915 751 
3 747 899 877 
3 750 910 887 
3 842 917 21 
3 21 926 842 
3 866 883 746 
3 842 926 841 
3 65 895 737 
3 846 896 845 
3 70 896 738 
3 837 891 737 
3 835 924 744 
3 731 923 841 
3 858 898 735 
3 899 912 877 
3 18 891 66 
3 737 891 18 
3 846 889 738 
3 751 915 906 
3 829 838 818 
3 794 839 813 
3 838 839 818 
3 813 839 838 
3 794 852 839 
3 776 871 852 
3 819 840 776 
3 19 742 67 
3 840 871 776 
3 852 871 839 
3 848 870 819 
3 819 870 840 
3 752 875 753 
3 819 850 848 
3 64 746 17 
3 1 752 49 
3 52 747 5 
3 58 748 11 
3 55 732 8 
3 70 738 23 
3 804 841 814 
3 781 852 794 
3 848 850 763 
3 815 847 789 
3 49 733 2 
3 826 842 841 
3 753 875 756 
3 61 730 14 
3 801 802 792 
3 839 871 818 
3 813 837 836 
3 802 845 826 
3 826 841 804 
3 802 804 803 
3 853 867 788 
3 794 813 812 
3 854 867 853 
3 774 776 775 
3 802 826 804 
3 804 814 805 
3 813 838 837 
3 801 845 802 
3 802 803 792 
3 803 870 792 
3 813 836 812 
3 849 851 810 
3 791 792 786 
3 752 753 733 
3 808 833 809 
3 808 843 835 
3 791 801 792 
3 808 835 833 
3 810 860 849 
3 766 851 849 
3 772 855 820 
3 782 864 788 
3 760 762 761 
3 834 877 876 
3 763 850 765 
3 756 875 873 
3 789 847 797 
3 781 794 793 
3 757 760 759 
3 809 876 861 
3 814 829 818 
3 766 863 851 
3 840 870 803 
3 774 775 770 
3 796 882 879 
3 823 830 824 
3 779 878 860 
3 823 824 822 
3 804 805 803 
3 798 808 807 
3 768 774 770 
3 855 879 820 
3 794 812 793 
3 797 843 798 
3 879 882 820 
3 873 874 811 
3 797 798 790 
3 798 806 790 
3 776 852 775 
3 760 761 759 
3 827 859 799 
3 760 785 762 
3 788 864 853 
3 785 786 762 
3 809 861 807 
3 798 843 808 
3 860 878 849 
3 765 768 767 
3 774 819 776 
3 775 852 781 
3 785 872 811 
3 762 848 763 
3 756 873 872 
3 769 855 772 
3 760 872 785 
3 806 868 790 
3 851 868 806 
3 808 809 807 
3 759 779 758 
3 821 823 822 
3 807 861 810 
3 775 781 778 
3 772 780 773 
3 786 848 762 
3 773 864 782 
3 757 759 758 
3 774 850 819 
3 768 850 774 
3 876 877 825 
3 834 876 809 
3 798 807 806 
3 775 778 770 
3 816 862 832 
3 863 868 851 
3 762 763 761 
3 765 850 768 
3 772 820 780 
3 818 871 805 
3 872 873 811 
3 814 818 805 
3 821 822 780 
3 820 821 780 
3 797 844 843 
3 787 815 789 
3 757 758 755 
3 768 770 769 
3 768 769 767 
3 792 870 786 
3 825 827 799 
3 753 755 754 
3 799 859 758 
3 787 856 815 
3 758 859 755 
3 753 756 755 
3 786 870 848 
3 779 860 800 
3 780 864 773 
3 824 853 822 
3 810 861 860 
3 772 773 771 
3 769 772 771 
3 765 767 766 
3 782 788 787 
3 788 856 787 
3 756 757 755 
3 785 791 786 
3 767 863 766 
3 766 849 764 
3 779 800 799 
3 781 793 784 
3 777 863 771 
3 824 854 853 
3 755 859 754 
3 771 863 767 
3 833 834 809 
3 789 797 790 
3 789 790 783 
3 791 880 801 
3 781 784 778 
3 777 868 863 
3 779 799 758 
3 856 867 858 
3 816 832 817 
3 759 878 779 
3 790 868 783 
3 832 869 817 
3 763 765 764 
3 860 861 800 
3 783 868 777 
3 807 810 806 
3 810 851 806 
3 773 777 771 
3 770 855 769 
3 856 857 815 
3 805 871 840 
3 778 855 770 
3 788 867 856 
3 787 789 783 
3 773 782 777 
3 849 878 764 
3 856 858 857 
3 782 783 777 
3 816 817 796 
3 822 864 780 
3 765 766 764 
3 785 811 791 
3 757 872 760 
3 756 872 757 
3 800 825 799 
3 753 754 733 
3 828 862 816 
3 800 876 825 
3 782 787 783 
3 769 771 767 
3 764 878 761 
3 763 764 761 
3 797 847 844 
3 795 816 796 
3 761 878 759 
3 869 881 817 
3 861 876 800 
3 817 882 796 
3 778 879 855 
3 793 795 784 
3 853 864 822 
3 795 828 816 
3 784 879 778 
3 874 880 811 
3 865 866 828 
3 812 865 793 
3 881 882 817 
3 823 831 830 
3 20 731 68 
3 795 796 784 
3 805 840 803 
3 801 880 846 
3 821 881 823 
3 811 880 791 
3 796 879 784 
3 795 865 828 
3 793 865 795 
3 831 881 869 
3 801 846 845 
3 823 881 831 
3 820 882 821 
3 821 882 881 
3 65 737 18 
3 53 739 6 
3 59 740 12 
3 69 743 22 
3 49 752 733 
3 54 744 7 
3 0 741 48 
3 60 745 13 
3 56 750 9 
3 62 749 15 
3 50 751 3 
3 63 734 16 
3 57 735 10 
3 51 736 4 
3 884 891 837 
3 746 909 866 
3 901 921 835 
3 836 883 812 
3 865 883 866 
3 847 887 844 
3 829 884 838 
3 857 886 815 
3 812 883 865 
3 880 889 846 
3 734 927 866 
3 737 895 836 
3 838 884 837 
3 815 886 847 
3 824 894 854 
3 874 889 880 
3 10 898 58 
3 4 899 52 
3 735 898 10 
3 736 899 4 
3 2 900 50 
3 6 901 54 
3 733 900 2 
3 739 901 6 
3 13 902 61 
3 745 902 13 
3 11 903 59 
3 48 904 1 
3 1 904 752 
3 748 903 11 
3 9 905 57 
3 3 906 51 
3 750 905 9 
3 751 906 3 
3 15 907 63 
3 749 907 15 
3 71 911 890 
3 867 908 858 
3 886 887 847 
3 738 896 846 
3 825 912 827 
3 836 895 883 
3 874 890 889 
3 859 915 754 
3 875 916 873 
3 884 913 891 
3 21 917 69 
3 866 927 828 
3 826 918 842 
3 55 919 732 
3 742 920 67 
3 68 926 21 
3 844 924 843 
3 814 923 829 
3 883 895 746 
3 736 912 899 
3 831 922 830 
3 866 909 734 
3 56 910 750 
3 888 924 844 
3 829 923 885 
3 732 919 888 
3 885 920 742 
3 64 909 746 
3 830 894 824 
3 854 925 908 
3 862 907 749 
3 890 916 741 
3 874 916 890 
3 63 907 734 
3 754 900 733 
3 58 898 748 
3 52 899 747 
3 50 900 751 
3 54 901 744 
3 752 904 875 
3 59 903 740 
3 741 904 48 
3 61 902 730 
3 57 905 735 
3 51 906 736 
3 16 909 64 
3 734 909 16 
3 732 910 8 
3 8 910 56 
3 744 924 888 
3 885 923 731 
3 738 911 23 
3 23 911 71 
3 842 918 917 
3 854 908 867 
3 894 897 740 
3 19 913 742 
3 66 913 19 
3 877 912 825 
3 869 914 831 
3 830 897 894 
3 742 913 884 
3 20 920 731 
3 744 919 7 
3 887 910 732 
3 889 911 738 
3 890 911 889 
3 827 915 859 
3 873 916 874 
3 69 917 743 
3 845 918 826 
3 894 925 854 
3 7 919 55 
3 67 920 20 
3 888 919 744 
3 731 920 885 
3 835 921 833 
3 841 923 814 
3 843 924 835 
3 891 913 66 
3 731 926 68 
3 828 927 862 
3 902 914 730 
3 740 925 894 
3 907 927 734 
3 862 927 907 
3 903 925 740 
3 745 922 902 
3 739 921 901 
3 917 918 743 
3 902 922 914 
3 914 922 831 
