ply
format ascii 1.0
comment Created by meshio v5.3.4, 2023-09-15T10:08:20.009368
element vertex 364
property double x
property double y
property double z
element face 724
property list uint8 int32 vertex_indices
end_header
11.0 0.0 0.0
10.625184 -2.847009 0.0
9.526279 -5.5 0.0
7.778175 -7.778175 0.0
5.5 -9.526279 0.0
2.847009 -10.625184 0.0
-0.0 -11.0 0.0
-2.847009 -10.625184 0.0
-5.5 -9.526279 0.0
-7.778175 -7.778175 0.0
-9.526279 -5.5 0.0
-10.625184 -2.847009 0.0
-11.0 0.0 0.0
-10.625184 2.847009 0.0
-9.526279 5.5 0.0
-7.778175 7.778175 0.0
-5.5 9.526279 0.0
-2.847009 10.625184 0.0
0.0 11.0 0.0
2.847009 10.625184 0.0
5.5 9.526279 0.0
7.778175 7.778175 0.0
9.526279 5.5 0.0
10.625184 2.847009 0.0
11.0 0.0 100.0
10.625184 -2.847009 100.0
9.526279 -5.5 100.0
7.778175 -7.778175 100.0
5.5 -9.526279 100.0
2.847009 -10.625184 100.0
0.0 -11.0 100.0
-2.847009 -10.625184 100.0
-5.5 -9.526279 100.0
-7.778175 -7.778175 100.0
-9.526279 -5.5 100.0
-10.625184 -2.847009 100.0
-11.0 0.0 100.0
-10.625184 2.847009 100.0
-9.526279 5.5 100.0
-7.778175 7.778175 100.0
-5.5 9.526279 100.0
-2.847009 10.625184 100.0
0.0 11.0 100.0
2.847009 10.625184 100.0
5.5 9.526279 100.0
7.778175 7.778175 100.0
9.526279 5.5 100.0
10.625184 2.847009 100.0
11.0 0.0 10.0
11.0 0.0 20.0
11.0 0.0 30.0
11.0 0.0 40.0
11.0 0.0 50.0
11.0 0.0 60.0
11.0 0.0 70.0
11.0 0.0 80.0
11.0 0.0 90.0
10.625184 -2.847009 10.0
10.625184 -2.847009 20.0
10.625184 -2.847009 30.0
10.625184 -2.847009 40.0
10.625184 -2.847009 50.0
10.625184 -2.847009 60.0
10.625184 -2.847009 70.0
10.625184 -2.847009 80.0
10.625184 -2.847009 90.0
9.526279 -5.5 10.0
9.526279 -5.5 20.0
9.526279 -5.5 30.0
9.526279 -5.5 40.0
9.526279 -5.5 50.0
9.526279 -5.5 60.0
9.526279 -5.5 70.0
9.526279 -5.5 80.0
9.526279 -5.5 90.0
7.778175 -7.778175 10.0
7.778175 -7.778175 20.0
7.778175 -7.778175 30.0
7.778175 -7.778175 40.0
7.778175 -7.778175 50.0
7.778175 -7.778175 60.0
7.778175 -7.778175 70.0
7.778175 -7.778175 80.0
7.778175 -7.778175 90.0
5.5 -9.526279 10.0
5.5 -9.526279 20.0
5.5 -9.526279 30.0
5.5 -9.526279 40.0
5.5 -9.526279 50.0
5.5 -9.526279 60.0
5.5 -9.526279 70.0
5.5 -9.526279 80.0
5.5 -9.526279 90.0
2.847009 -10.625184 10.0
2.847009 -10.625184 20.0
2.847009 -10.625184 30.0
2.847009 -10.625184 40.0
2.847009 -10.625184 50.0
2.847009 -10.625184 60.0
2.847009 -10.625184 70.0
2.847009 -10.625184 80.0
2.847009 -10.625184 90.0
0.0 -11.0 10.0
0.0 -11.0 20.0
0.0 -11.0 30.0
0.0 -11.0 40.0
0.0 -11.0 50.0
0.0 -11.0 60.0
0.0 -11.0 70.0
0.0 -11.0 80.0
0.0 -11.0 90.0
-2.847009 -10.625184 10.0
-2.847009 -10.625184 20.0
-2.847009 -10.625184 30.0
-2.847009 -10.625184 40.0
-2.847009 -10.625184 50.0
-2.847009 -10.625184 60.0
-2.847009 -10.625184 70.0
-2.847009 -10.625184 80.0
-2.847009 -10.625184 90.0
-5.5 -9.526279 10.0
-5.5 -9.526279 20.0
-5.5 -9.526279 30.0
-5.5 -9.526279 40.0
-5.5 -9.526279 50.0
-5.5 -9.526279 60.0
-5.5 -9.526279 70.0
-5.5 -9.526279 80.0
-5.5 -9.526279 90.0
-7.778175 -7.778175 10.0
-7.778175 -7.778175 20.0
-7.778175 -7.778175 30.0
-7.778175 -7.778175 40.0
-7.778175 -7.778175 50.0
-7.778175 -7.778175 60.0
-7.778175 -7.778175 70.0
-7.778175 -7.778175 80.0
-7.778175 -7.778175 90.0
-9.526279 -5.5 10.0
-9.526279 -5.5 20.0
-9.526279 -5.5 30.0
-9.526279 -5.5 40.0
-9.526279 -5.5 50.0
-9.526279 -5.5 60.0
-9.526279 -5.5 70.0
-9.526279 -5.5 80.0
-9.526279 -5.5 90.0
-10.625184 -2.847009 10.0
-10.625184 -2.847009 20.0
-10.625184 -2.847009 30.0
-10.625184 -2.847009 40.0
-10.625184 -2.847009 50.0
-10.625184 -2.847009 60.0
-10.625184 -2.847009 70.0
-10.625184 -2.847009 80.0
-10.625184 -2.847009 90.0
-11.0 0.0 10.0
-11.0 0.0 20.0
-11.0 0.0 30.0
-11.0 0.0 40.0
-11.0 0.0 50.0
-11.0 0.0 60.0
-11.0 0.0 70.0
-11.0 0.0 80.0
-11.0 0.0 90.0
-10.625184 2.847009 10.0
-10.625184 2.847009 20.0
-10.625184 2.847009 30.0
-10.625184 2.847009 40.0
-10.625184 2.847009 50.0
-10.625184 2.847009 60.0
-10.625184 2.847009 70.0
-10.625184 2.847009 80.0
-10.625184 2.847009 90.0
-9.526279 5.5 10.0
-9.526279 5.5 20.0
-9.526279 5.5 30.0
-9.526279 5.5 40.0
-9.526279 5.5 50.0
-9.526279 5.5 60.0
-9.526279 5.5 70.0
-9.526279 5.5 80.0
-9.526279 5.5 90.0
-7.778175 7.778175 10.0
-7.778175 7.778175 20.0
-7.778175 7.778175 30.0
-7.778175 7.778175 40.0
-7.778175 7.778175 50.0
-7.778175 7.778175 60.0
-7.778175 7.778175 70.0
-7.778175 7.778175 80.0
-7.778175 7.778175 90.0
-5.5 9.526279 10.0
-5.5 9.526279 20.0
-5.5 9.526279 30.0
-5.5 9.526279 40.0
-5.5 9.526279 50.0
-5.5 9.526279 60.0
-5.5 9.526279 70.0
-5.5 9.526279 80.0
-5.5 9.526279 90.0
-2.847009 10.625184 10.0
-2.847009 10.625184 20.0
-2.847009 10.625184 30.0
-2.847009 10.625184 40.0
-2.847009 10.625184 50.0
-2.847009 10.625184 60.0
-2.847009 10.625184 70.0
-2.847009 10.625184 80.0
-2.847009 10.625184 90.0
0.0 11.0 10.0
0.0 11.0 20.0
0.0 11.0 30.0
0.0 11.0 40.0
0.0 11.0 50.0
0.0 11.0 60.0
0.0 11.0 70.0
0.0 11.0 80.0
0.0 11.0 90.0
2.847009 10.625184 10.0
2.847009 10.625184 20.0
2.847009 10.625184 30.0
2.847009 10.625184 40.0
2.847009 10.625184 50.0
2.847009 10.625184 60.0
2.847009 10.625184 70.0
2.847009 10.625184 80.0
2.847009 10.625184 90.0
5.5 9.526279 10.0
5.5 9.526279 20.0
5.5 9.526279 30.0
5.5 9.526279 40.0
5.5 9.526279 50.0
5.5 9.526279 60.0
5.5 9.526279 70.0
5.5 9.526279 80.0
5.5 9.526279 90.0
7.778175 7.778175 10.0
7.778175 7.778175 20.0
7.778175 7.778175 30.0
7.778175 7.778175 40.0
7.778175 7.778175 50.0
7.778175 7.778175 60.0
7.778175 7.778175 70.0
7.778175 7.778175 80.0
7.778175 7.778175 90.0
9.526279 5.5 10.0
9.526279 5.5 20.0
9.526279 5.5 30.0
9.526279 5.5 40.0
9.526279 5.5 50.0
9.526279 5.5 60.0
9.526279 5.5 70.0
9.526279 5.5 80.0
9.526279 5.5 90.0
10.625184 2.847009 10.0
10.625184 2.847009 20.0
10.625184 2.847009 30.0
10.625184 2.847009 40.0
10.625184 2.847009 50.0
10.625184 2.847009 60.0
10.625184 2.847009 70.0
10.625184 2.847009 80.0
10.625184 2.847009 90.0
7.778174642263448 -3.221825161943071 0.0
-7.778174642263448 3.22182516194307 -0.0
3.087505784277969 7.68378201494884 0.0
-3.221825161943072 -7.778174642263446 0.0
-7.778174642263447 -3.221825161943071 0.0
-3.240449055551379 8.057400991068423 -0.0
3.200073831058304 -7.875707586600622 0.0
7.815766570326177 3.302379881860607 0.0
-7.167738450315622 5.500000128899242 -0.0
-5.203501574325956 3.616798403454201 -0.0
-5.900341024781465 1.096304883626484 -0.0
-3.179986581423697 1.571679172889281 -0.0
-3.998441427681153 -1.056536046228197 0.0
-1.261173048246429 -0.5684715391123347 0.0
-0.353347698270281 2.139082425323338 -0.0
1.544069691731099 -0.01993402762077956 0.0
0.6204726731767976 -2.738772190226009 0.0
2.445412275784768 2.627331768064873 0.0
4.158849989416663 0.5538267050579773 0.0
0.6752559185417064 5.081389145400781 0.0
-2.402677870882503 4.145540098829265 -0.0
-2.197183975666993 -3.18042749339733 0.0
-0.6795876882919369 -5.601850920584983 0.0
2.546291585192109 -4.980511178724913 0.0
3.331086585607942 -2.165694387047575 0.0
-5.250506310727785 -3.682325052050261 0.0
5.388601929613494 -4.010177867817065 0.0
5.08409904101357 3.092588482765393 0.0
3.612676455079294 5.208889878438067 0.0
0.4597223629298141 8.18837436615996 0.0
6.51178322549373 5.39512535203907 0.0
-8.454816952403085 0.7486783292466317 -0.0
5.932664774056609 -1.363689046209041 0.0
8.475686938206785 -0.7824790441486655 0.0
5.282512770073451 -6.597204209699872 0.0
-4.774521818256058 6.257402217273819 -0.0
-3.399369599830442 -5.314983476150629 0.0
-0.6138974358056788 -8.426478149439246 0.0
-5.43349521929885 -6.560418344886504 0.0
-6.586992977035193 -1.267383490201227 0.0
6.681171324412105 1.113758846298792 0.0
7.188230270157714 -5.418875927081896 0.0
-1.569387599669357 6.491850565980384 -0.0
-8.936017723313245 -1.352165413291634 0.0
8.940230628985558 1.337526165928207 0.0
1.226683324906201 -7.009920310938663 0.0
1.373360366991834 -9.00095902057035 0.0
-7.299172177560278 -5.316234027896157 0.0
5.276317983699903 7.299806307902418 0.0
-1.513246218687637 8.940631371934623 -0.0
7.778174642263448 -3.221825161943071 100.0
-7.778174642263448 3.22182516194307 100.0
3.087505784277969 7.68378201494884 100.0
-3.221825161943072 -7.778174642263446 100.0
-7.778174642263447 -3.221825161943071 100.0
-3.240449055551379 8.057400991068423 100.0
3.200073831058304 -7.875707586600622 100.0
7.815766570326177 3.302379881860607 100.0
-7.167738450315622 5.500000128899242 100.0
-5.203501574325956 3.616798403454201 100.0
-5.900341024781465 1.096304883626484 100.0
-3.179986581423697 1.571679172889281 100.0
-3.998441427681153 -1.056536046228197 100.0
-1.261173048246429 -0.5684715391123347 100.0
-0.353347698270281 2.139082425323338 100.0
1.544069691731099 -0.01993402762077956 100.0
0.6204726731767976 -2.738772190226009 100.0
2.445412275784768 2.627331768064873 100.0
4.158849989416663 0.5538267050579773 100.0
0.6752559185417064 5.081389145400781 100.0
-2.402677870882503 4.145540098829265 100.0
-2.197183975666993 -3.18042749339733 100.0
-0.6795876882919369 -5.601850920584983 100.0
2.546291585192109 -4.980511178724913 100.0
3.331086585607942 -2.165694387047575 100.0
-5.250506310727785 -3.682325052050261 100.0
5.388601929613494 -4.010177867817065 100.0
5.08409904101357 3.092588482765393 100.0
3.612676455079294 5.208889878438067 100.0
0.4597223629298141 8.18837436615996 100.0
6.51178322549373 5.39512535203907 100.0
-8.454816952403085 0.7486783292466317 100.0
5.932664774056609 -1.363689046209041 100.0
8.475686938206785 -0.7824790441486655 100.0
5.282512770073451 -6.597204209699872 100.0
-4.774521818256058 6.257402217273819 100.0
-3.399369599830442 -5.314983476150629 100.0
-0.6138974358056788 -8.426478149439246 100.0
-5.43349521929885 -6.560418344886504 100.0
-6.586992977035193 -1.267383490201227 100.0
6.681171324412105 1.113758846298792 100.0
7.188230270157714 -5.418875927081896 100.0
-1.569387599669357 6.491850565980384 100.0
-8.936017723313245 -1.352165413291634 100.0
8.940230628985558 1.337526165928207 100.0
1.226683324906201 -7.009920310938663 100.0
1.373360366991834 -9.00095902057035 100.0
-7.299172177560278 -5.316234027896157 100.0
5.276317983699903 7.299806307902418 100.0
-1.513246218687637 8.940631371934623 100.0
3 266 283 293
3 283 266 292
3 18 19 293
3 19 266 293
3 15 16 299
3 267 286 301
3 286 267 300
3 22 271 294
3 270 287 298
3 287 290 298
3 16 269 299
3 21 22 294
3 6 7 301
3 7 267 301
3 284 299 306
3 267 8 302
3 299 269 306
3 272 15 299
3 8 9 302
3 1 264 297
3 0 1 297
3 283 278 284
3 278 275 284
3 279 282 288
3 285 280 286
3 280 279 288
3 277 280 285
3 286 280 287
3 287 280 288
3 13 14 265
3 10 11 268
3 16 17 269
3 19 20 266
3 7 8 267
3 22 23 271
3 4 5 270
3 1 2 264
3 281 278 283
3 279 281 282
3 279 278 281
3 277 279 280
3 277 278 279
3 277 275 278
3 276 277 285
3 276 275 277
3 275 273 284
3 274 275 276
3 274 273 275
3 276 285 289
3 284 273 299
3 265 273 274
3 13 265 295
3 12 13 295
3 287 288 290
3 281 283 292
3 271 291 294
3 285 286 300
3 297 296 304
3 290 288 296
3 264 290 296
3 282 281 291
3 289 268 303
3 276 289 303
3 293 283 306
3 4 270 298
3 3 4 298
3 291 292 294
3 18 293 313
3 265 274 295
3 288 282 296
3 295 274 303
3 268 289 311
3 294 292 312
3 291 281 292
3 265 272 273
3 292 266 312
3 264 296 297
3 295 303 307
3 300 267 302
3 296 282 304
3 283 284 306
3 287 270 309
3 265 14 272
3 14 15 272
3 274 276 303
3 2 3 305
3 289 285 300
3 11 12 307
3 289 302 311
3 23 0 308
3 9 10 311
3 17 18 313
3 20 21 312
3 5 6 310
3 286 287 309
3 264 2 305
3 273 272 299
3 268 11 307
3 289 300 302
3 271 23 308
3 6 301 310
3 270 5 310
3 290 264 305
3 10 268 311
3 266 20 312
3 269 17 313
3 21 294 312
3 297 304 308
3 0 297 308
3 301 286 309
3 282 291 304
3 291 271 304
3 12 295 307
3 302 9 311
3 3 298 305
3 303 268 307
3 298 290 305
3 293 306 313
3 306 269 313
3 304 271 308
3 309 270 310
3 301 309 310
3 0 1 57
3 0 57 48
3 48 57 58
3 48 58 49
3 49 58 59
3 49 59 50
3 50 59 60
3 50 60 51
3 51 60 61
3 51 61 52
3 52 61 62
3 52 62 53
3 53 62 63
3 53 63 54
3 54 63 64
3 54 64 55
3 55 64 65
3 55 65 56
3 56 65 25
3 56 25 24
3 1 2 66
3 1 66 57
3 57 66 67
3 57 67 58
3 58 67 68
3 58 68 59
3 59 68 69
3 59 69 60
3 60 69 70
3 60 70 61
3 61 70 71
3 61 71 62
3 62 71 72
3 62 72 63
3 63 72 73
3 63 73 64
3 64 73 74
3 64 74 65
3 65 74 26
3 65 26 25
3 2 3 75
3 2 75 66
3 66 75 76
3 66 76 67
3 67 76 77
3 67 77 68
3 68 77 78
3 68 78 69
3 69 78 79
3 69 79 70
3 70 79 80
3 70 80 71
3 71 80 81
3 71 81 72
3 72 81 82
3 72 82 73
3 73 82 83
3 73 83 74
3 74 83 27
3 74 27 26
3 3 4 84
3 3 84 75
3 75 84 85
3 75 85 76
3 76 85 86
3 76 86 77
3 77 86 87
3 77 87 78
3 78 87 88
3 78 88 79
3 79 88 89
3 79 89 80
3 80 89 90
3 80 90 81
3 81 90 91
3 81 91 82
3 82 91 92
3 82 92 83
3 83 92 28
3 83 28 27
3 4 5 93
3 4 93 84
3 84 93 94
3 84 94 85
3 85 94 95
3 85 95 86
3 86 95 96
3 86 96 87
3 87 96 97
3 87 97 88
3 88 97 98
3 88 98 89
3 89 98 99
3 89 99 90
3 90 99 100
3 90 100 91
3 91 100 101
3 91 101 92
3 92 101 29
3 92 29 28
3 5 6 102
3 5 102 93
3 93 102 103
3 93 103 94
3 94 103 104
3 94 104 95
3 95 104 105
3 95 105 96
3 96 105 106
3 96 106 97
3 97 106 107
3 97 107 98
3 98 107 108
3 98 108 99
3 99 108 109
3 99 109 100
3 100 109 110
3 100 110 101
3 101 110 30
3 101 30 29
3 6 7 111
3 6 111 102
3 102 111 112
3 102 112 103
3 103 112 113
3 103 113 104
3 104 113 114
3 104 114 105
3 105 114 115
3 105 115 106
3 106 115 116
3 106 116 107
3 107 116 117
3 107 117 108
3 108 117 118
3 108 118 109
3 109 118 119
3 109 119 110
3 110 119 31
3 110 31 30
3 7 8 120
3 7 120 111
3 111 120 121
3 111 121 112
3 112 121 122
3 112 122 113
3 113 122 123
3 113 123 114
3 114 123 124
3 114 124 115
3 115 124 125
3 115 125 116
3 116 125 126
3 116 126 117
3 117 126 127
3 117 127 118
3 118 127 128
3 118 128 119
3 119 128 32
3 119 32 31
3 8 9 129
3 8 129 120
3 120 129 130
3 120 130 121
3 121 130 131
3 121 131 122
3 122 131 132
3 122 132 123
3 123 132 133
3 123 133 124
3 124 133 134
3 124 134 125
3 125 134 135
3 125 135 126
3 126 135 136
3 126 136 127
3 127 136 137
3 127 137 128
3 128 137 33
3 128 33 32
3 9 10 138
3 9 138 129
3 129 138 139
3 129 139 130
3 130 139 140
3 130 140 131
3 131 140 141
3 131 141 132
3 132 141 142
3 132 142 133
3 133 142 143
3 133 143 134
3 134 143 144
3 134 144 135
3 135 144 145
3 135 145 136
3 136 145 146
3 136 146 137
3 137 146 34
3 137 34 33
3 10 11 147
3 10 147 138
3 138 147 148
3 138 148 139
3 139 148 149
3 139 149 140
3 140 149 150
3 140 150 141
3 141 150 151
3 141 151 142
3 142 151 152
3 142 152 143
3 143 152 153
3 143 153 144
3 144 153 154
3 144 154 145
3 145 154 155
3 145 155 146
3 146 155 35
3 146 35 34
3 11 12 156
3 11 156 147
3 147 156 157
3 147 157 148
3 148 157 158
3 148 158 149
3 149 158 159
3 149 159 150
3 150 159 160
3 150 160 151
3 151 160 161
3 151 161 152
3 152 161 162
3 152 162 153
3 153 162 163
3 153 163 154
3 154 163 164
3 154 164 155
3 155 164 36
3 155 36 35
3 12 13 165
3 12 165 156
3 156 165 166
3 156 166 157
3 157 166 167
3 157 167 158
3 158 167 168
3 158 168 159
3 159 168 169
3 159 169 160
3 160 169 170
3 160 170 161
3 161 170 171
3 161 171 162
3 162 171 172
3 162 172 163
3 163 172 173
3 163 173 164
3 164 173 37
3 164 37 36
3 13 14 174
3 13 174 165
3 165 174 175
3 165 175 166
3 166 175 176
3 166 176 167
3 167 176 177
3 167 177 168
3 168 177 178
3 168 178 169
3 169 178 179
3 169 179 170
3 170 179 180
3 170 180 171
3 171 180 181
3 171 181 172
3 172 181 182
3 172 182 173
3 173 182 38
3 173 38 37
3 14 15 183
3 14 183 174
3 174 183 184
3 174 184 175
3 175 184 185
3 175 185 176
3 176 185 186
3 176 186 177
3 177 186 187
3 177 187 178
3 178 187 188
3 178 188 179
3 179 188 189
3 179 189 180
3 180 189 190
3 180 190 181
3 181 190 191
3 181 191 182
3 182 191 39
3 182 39 38
3 15 16 192
3 15 192 183
3 183 192 193
3 183 193 184
3 184 193 194
3 184 194 185
3 185 194 195
3 185 195 186
3 186 195 196
3 186 196 187
3 187 196 197
3 187 197 188
3 188 197 198
3 188 198 189
3 189 198 199
3 189 199 190
3 190 199 200
3 190 200 191
3 191 200 40
3 191 40 39
3 16 17 201
3 16 201 192
3 192 201 202
3 192 202 193
3 193 202 203
3 193 203 194
3 194 203 204
3 194 204 195
3 195 204 205
3 195 205 196
3 196 205 206
3 196 206 197
3 197 206 207
3 197 207 198
3 198 207 208
3 198 208 199
3 199 208 209
3 199 209 200
3 200 209 41
3 200 41 40
3 17 18 210
3 17 210 201
3 201 210 211
3 201 211 202
3 202 211 212
3 202 212 203
3 203 212 213
3 203 213 204
3 204 213 214
3 204 214 205
3 205 214 215
3 205 215 206
3 206 215 216
3 206 216 207
3 207 216 217
3 207 217 208
3 208 217 218
3 208 218 209
3 209 218 42
3 209 42 41
3 18 19 219
3 18 219 210
3 210 219 220
3 210 220 211
3 211 220 221
3 211 221 212
3 212 221 222
3 212 222 213
3 213 222 223
3 213 223 214
3 214 223 224
3 214 224 215
3 215 224 225
3 215 225 216
3 216 225 226
3 216 226 217
3 217 226 227
3 217 227 218
3 218 227 43
3 218 43 42
3 19 20 228
3 19 228 219
3 219 228 229
3 219 229 220
3 220 229 230
3 220 230 221
3 221 230 231
3 221 231 222
3 222 231 232
3 222 232 223
3 223 232 233
3 223 233 224
3 224 233 234
3 224 234 225
3 225 234 235
3 225 235 226
3 226 235 236
3 226 236 227
3 227 236 44
3 227 44 43
3 20 21 237
3 20 237 228
3 228 237 238
3 228 238 229
3 229 238 239
3 229 239 230
3 230 239 240
3 230 240 231
3 231 240 241
3 231 241 232
3 232 241 242
3 232 242 233
3 233 242 243
3 233 243 234
3 234 243 244
3 234 244 235
3 235 244 245
3 235 245 236
3 236 245 45
3 236 45 44
3 21 22 246
3 21 246 237
3 237 246 247
3 237 247 238
3 238 247 248
3 238 248 239
3 239 248 249
3 239 249 240
3 240 249 250
3 240 250 241
3 241 250 251
3 241 251 242
3 242 251 252
3 242 252 243
3 243 252 253
3 243 253 244
3 244 253 254
3 244 254 245
3 245 254 46
3 245 46 45
3 22 23 255
3 22 255 246
3 246 255 256
3 246 256 247
3 247 256 257
3 247 257 248
3 248 257 258
3 248 258 249
3 249 258 259
3 249 259 250
3 250 259 260
3 250 260 251
3 251 260 261
3 251 261 252
3 252 261 262
3 252 262 253
3 253 262 263
3 253 263 254
3 254 263 47
3 254 47 46
3 23 0 48
3 23 48 255
3 255 48 49
3 255 49 256
3 256 49 50
3 256 50 257
3 257 50 51
3 257 51 258
3 258 51 52
3 258 52 259
3 259 52 53
3 259 53 260
3 260 53 54
3 260 54 261
3 261 54 55
3 261 55 262
3 262 55 56
3 262 56 263
3 263 56 24
3 263 24 47
3 316 333 343
3 333 316 342
3 42 43 343
3 43 316 343
3 39 40 349
3 317 336 351
3 336 317 350
3 46 321 344
3 320 337 348
3 337 340 348
3 40 319 349
3 45 46 344
3 30 31 351
3 31 317 351
3 334 349 356
3 317 32 352
3 349 319 356
3 322 39 349
3 32 33 352
3 25 314 347
3 24 25 347
3 333 328 334
3 328 325 334
3 329 332 338
3 335 330 336
3 330 329 338
3 327 330 335
3 336 330 337
3 337 330 338
3 37 38 315
3 34 35 318
3 40 41 319
3 43 44 316
3 31 32 317
3 46 47 321
3 28 29 320
3 25 26 314
3 331 328 333
3 329 331 332
3 329 328 331
3 327 329 330
3 327 328 329
3 327 325 328
3 326 327 335
3 326 325 327
3 325 323 334
3 324 325 326
3 324 323 325
3 326 335 339
3 334 323 349
3 315 323 324
3 37 315 345
3 36 37 345
3 337 338 340
3 331 333 342
3 321 341 344
3 335 336 350
3 347 346 354
3 340 338 346
3 314 340 346
3 332 331 341
3 339 318 353
3 326 339 353
3 343 333 356
3 28 320 348
3 27 28 348
3 341 342 344
3 42 343 363
3 315 324 345
3 338 332 346
3 345 324 353
3 318 339 361
3 344 342 362
3 341 331 342
3 315 322 323
3 342 316 362
3 314 346 347
3 345 353 357
3 350 317 352
3 346 332 354
3 333 334 356
3 337 320 359
3 315 38 322
3 38 39 322
3 324 326 353
3 26 27 355
3 339 335 350
3 35 36 357
3 339 352 361
3 47 24 358
3 33 34 361
3 41 42 363
3 44 45 362
3 29 30 360
3 336 337 359
3 314 26 355
3 323 322 349
3 318 35 357
3 339 350 352
3 321 47 358
3 30 351 360
3 320 29 360
3 340 314 355
3 34 318 361
3 316 44 362
3 319 41 363
3 45 344 362
3 347 354 358
3 24 347 358
3 351 336 359
3 332 341 354
3 341 321 354
3 36 345 357
3 352 33 361
3 27 348 355
3 353 318 357
3 348 340 355
3 343 356 363
3 356 319 363
3 354 321 358
3 359 320 360
3 351 359 360
