OFF
1868 3732 0
20 61 10 
20 20 10 
61 20 10 
61 61 10 
20 61 91 
61 61 91 
61 20 91 
20 20 91 
21.95238 61 10 
23.90476 61 10 
25.85714 61 10 
27.80952 61 10 
29.76191 61 10 
31.71428 61 10 
33.66667 61 10 
35.61905 61 10 
37.57143 61 10 
39.52381 61 10 
41.47619 61 10 
43.42857 61 10 
45.38095 61 10 
47.33333 61 10 
49.28571 61 10 
51.23809 61 10 
53.19048 61 10 
55.14286 61 10 
57.09524 61 10 
59.04762 61 10 
61 59.04762 10 
61 57.09524 10 
61 55.14286 10 
61 53.19048 10 
61 51.23809 10 
61 49.28571 10 
61 47.33333 10 
61 45.38095 10 
61 43.42857 10 
61 41.47619 10 
61 39.52381 10 
61 37.57143 10 
61 35.61905 10 
61 33.66667 10 
61 31.71428 10 
61 29.76191 10 
61 27.80952 10 
61 25.85714 10 
61 23.90476 10 
61 21.95238 10 
59.04762 20 10 
57.09524 20 10 
55.14286 20 10 
53.19048 20 10 
51.23809 20 10 
49.28571 20 10 
47.33333 20 10 
45.38095 20 10 
43.42857 20 10 
41.47619 20 10 
39.52381 20 10 
37.57143 20 10 
35.61905 20 10 
33.66667 20 10 
31.71428 20 10 
29.76191 20 10 
27.80952 20 10 
25.85714 20 10 
23.90476 20 10 
21.95238 20 10 
20 21.95238 10 
20 23.90476 10 
20 25.85714 10 
20 27.80952 10 
20 29.76191 10 
20 31.71428 10 
20 33.66667 10 
20 35.61905 10 
20 37.57143 10 
20 39.52381 10 
20 41.47619 10 
20 43.42857 10 
20 45.38095 10 
20 47.33333 10 
20 49.28571 10 
20 51.23809 10 
20 53.19048 10 
20 55.14286 10 
20 57.09524 10 
20 59.04762 10 
21.95238 61 91 
23.90476 61 91 
25.85714 61 91 
27.80952 61 91 
29.76191 61 91 
31.71428 61 91 
33.66667 61 91 
35.61905 61 91 
37.57143 61 91 
39.52381 61 91 
41.47619 61 91 
43.42857 61 91 
45.38095 61 91 
47.33333 61 91 
49.28571 61 91 
51.23809 61 91 
53.19048 61 91 
55.14286 61 91 
57.09524 61 91 
59.04762 61 91 
61 59.04762 91 
61 57.09524 91 
61 55.14286 91 
61 53.19048 91 
61 51.23809 91 
61 49.28571 91 
61 47.33333 91 
61 45.38095 91 
61 43.42857 91 
61 41.47619 91 
61 39.52381 91 
61 37.57143 91 
61 35.61905 91 
61 33.66667 91 
61 31.71428 91 
61 29.76191 91 
61 27.80952 91 
61 25.85714 91 
61 23.90476 91 
61 21.95238 91 
59.04762 20 91 
57.09524 20 91 
55.14286 20 91 
53.19048 20 91 
51.23809 20 91 
49.28571 20 91 
47.33333 20 91 
45.38095 20 91 
43.42857 20 91 
41.47619 20 91 
39.52381 20 91 
37.57143 20 91 
35.61905 20 91 
33.66667 20 91 
31.71428 20 91 
29.76191 20 91 
27.80952 20 91 
25.85714 20 91 
23.90476 20 91 
21.95238 20 91 
20 21.95238 91 
20 23.90476 91 
20 25.85714 91 
20 27.80952 91 
20 29.76191 91 
20 31.71428 91 
20 33.66667 91 
20 35.61905 91 
20 37.57143 91 
20 39.52381 91 
20 41.47619 91 
20 43.42857 91 
20 45.38095 91 
20 47.33333 91 
20 49.28571 91 
20 51.23809 91 
20 53.19048 91 
20 55.14286 91 
20 57.09524 91 
20 59.04762 91 
20 61 18.1 
20 61 26.2 
20 61 34.3 
20 61 42.4 
20 61 50.5 
20 61 58.6 
20 61 66.7 
20 61 74.8 
20 61 82.9 
61 61 18.1 
61 61 26.2 
61 61 34.3 
61 61 42.4 
61 61 50.5 
61 61 58.6 
61 61 66.7 
61 61 74.8 
61 61 82.9 
61 20 18.1 
61 20 26.2 
61 20 34.3 
61 20 42.4 
61 20 50.5 
61 20 58.6 
61 20 66.7 
61 20 74.8 
61 20 82.9 
20 20 18.1 
20 20 26.2 
20 20 34.3 
20 20 42.4 
20 20 50.5 
20 20 58.6 
20 20 66.7 
20 20 74.8 
20 20 82.9 
21.95238 61 18.1 
21.95238 61 26.2 
21.95238 61 34.3 
21.95238 61 42.4 
21.95238 61 50.5 
21.95238 61 58.6 
21.95238 61 66.7 
21.95238 61 74.8 
21.95238 61 82.9 
23.90476 61 18.1 
23.90476 61 26.2 
23.90476 61 34.3 
23.90476 61 42.4 
23.90476 61 50.5 
23.90476 61 58.6 
23.90476 61 66.7 
23.90476 61 74.8 
23.90476 61 82.9 
25.85714 61 18.1 
25.85714 61 26.2 
25.85714 61 34.3 
25.85714 61 42.4 
25.85714 61 50.5 
25.85714 61 58.6 
25.85714 61 66.7 
25.85714 61 74.8 
25.85714 61 82.9 
27.80952 61 18.1 
27.80952 61 26.2 
27.80952 61 34.3 
27.80952 61 42.4 
27.80952 61 50.5 
27.80952 61 58.6 
27.80952 61 66.7 
27.80952 61 74.8 
27.80952 61 82.9 
29.76191 61 18.1 
29.76191 61 26.2 
29.76191 61 34.3 
29.76191 61 42.4 
29.76191 61 50.5 
29.76191 61 58.6 
29.76191 61 66.7 
29.76191 61 74.8 
29.76191 61 82.9 
31.71428 61 18.1 
31.71428 61 26.2 
31.71428 61 34.3 
31.71428 61 42.4 
31.71428 61 50.5 
31.71428 61 58.6 
31.71428 61 66.7 
31.71428 61 74.8 
31.71428 61 82.9 
33.66667 61 18.1 
33.66667 61 26.2 
33.66667 61 34.3 
33.66667 61 42.4 
33.66667 61 50.5 
33.66667 61 58.6 
33.66667 61 66.7 
33.66667 61 74.8 
33.66667 61 82.9 
35.61905 61 18.1 
35.61905 61 26.2 
35.61905 61 34.3 
35.61905 61 42.4 
35.61905 61 50.5 
35.61905 61 58.6 
35.61905 61 66.7 
35.61905 61 74.8 
35.61905 61 82.9 
37.57143 61 18.1 
37.57143 61 26.2 
37.57143 61 34.3 
37.57143 61 42.4 
37.57143 61 50.5 
37.57143 61 58.6 
37.57143 61 66.7 
37.57143 61 74.8 
37.57143 61 82.9 
39.52381 61 18.1 
39.52381 61 26.2 
39.52381 61 34.3 
39.52381 61 42.4 
39.52381 61 50.5 
39.52381 61 58.6 
39.52381 61 66.7 
39.52381 61 74.8 
39.52381 61 82.9 
41.47619 61 18.1 
41.47619 61 26.2 
41.47619 61 34.3 
41.47619 61 42.4 
41.47619 61 50.5 
41.47619 61 58.6 
41.47619 61 66.7 
41.47619 61 74.8 
41.47619 61 82.9 
43.42857 61 18.1 
43.42857 61 26.2 
43.42857 61 34.3 
43.42857 61 42.4 
43.42857 61 50.5 
43.42857 61 58.6 
43.42857 61 66.7 
43.42857 61 74.8 
43.42857 61 82.9 
45.38095 61 18.1 
45.38095 61 26.2 
45.38095 61 34.3 
45.38095 61 42.4 
45.38095 61 50.5 
45.38095 61 58.6 
45.38095 61 66.7 
45.38095 61 74.8 
45.38095 61 82.9 
47.33333 61 18.1 
47.33333 61 26.2 
47.33333 61 34.3 
47.33333 61 42.4 
47.33333 61 50.5 
47.33333 61 58.6 
47.33333 61 66.7 
47.33333 61 74.8 
47.33333 61 82.9 
49.28571 61 18.1 
49.28571 61 26.2 
49.28571 61 34.3 
49.28571 61 42.4 
49.28571 61 50.5 
49.28571 61 58.6 
49.28571 61 66.7 
49.28571 61 74.8 
49.28571 61 82.9 
51.23809 61 18.1 
51.23809 61 26.2 
51.23809 61 34.3 
51.23809 61 42.4 
51.23809 61 50.5 
51.23809 61 58.6 
51.23809 61 66.7 
51.23809 61 74.8 
51.23809 61 82.9 
53.19048 61 18.1 
53.19048 61 26.2 
53.19048 61 34.3 
53.19048 61 42.4 
53.19048 61 50.5 
53.19048 61 58.6 
53.19048 61 66.7 
53.19048 61 74.8 
53.19048 61 82.9 
55.14286 61 18.1 
55.14286 61 26.2 
55.14286 61 34.3 
55.14286 61 42.4 
55.14286 61 50.5 
55.14286 61 58.6 
55.14286 61 66.7 
55.14286 61 74.8 
55.14286 61 82.9 
57.09524 61 18.1 
57.09524 61 26.2 
57.09524 61 34.3 
57.09524 61 42.4 
57.09524 61 50.5 
57.09524 61 58.6 
57.09524 61 66.7 
57.09524 61 74.8 
57.09524 61 82.9 
59.04762 61 18.1 
59.04762 61 26.2 
59.04762 61 34.3 
59.04762 61 42.4 
59.04762 61 50.5 
59.04762 61 58.6 
59.04762 61 66.7 
59.04762 61 74.8 
59.04762 61 82.9 
61 59.04762 18.1 
61 59.04762 26.2 
61 59.04762 34.3 
61 59.04762 42.4 
61 59.04762 50.5 
61 59.04762 58.6 
61 59.04762 66.7 
61 59.04762 74.8 
61 59.04762 82.9 
61 57.09524 18.1 
61 57.09524 26.2 
61 57.09524 34.3 
61 57.09524 42.4 
61 57.09524 50.5 
61 57.09524 58.6 
61 57.09524 66.7 
61 57.09524 74.8 
61 57.09524 82.9 
61 55.14286 18.1 
61 55.14286 26.2 
61 55.14286 34.3 
61 55.14286 42.4 
61 55.14286 50.5 
61 55.14286 58.6 
61 55.14286 66.7 
61 55.14286 74.8 
61 55.14286 82.9 
61 53.19048 18.1 
61 53.19048 26.2 
61 53.19048 34.3 
61 53.19048 42.4 
61 53.19048 50.5 
61 53.19048 58.6 
61 53.19048 66.7 
61 53.19048 74.8 
61 53.19048 82.9 
61 51.23809 18.1 
61 51.23809 26.2 
61 51.23809 34.3 
61 51.23809 42.4 
61 51.23809 50.5 
61 51.23809 58.6 
61 51.23809 66.7 
61 51.23809 74.8 
61 51.23809 82.9 
61 49.28571 18.1 
61 49.28571 26.2 
61 49.28571 34.3 
61 49.28571 42.4 
61 49.28571 50.5 
61 49.28571 58.6 
61 49.28571 66.7 
61 49.28571 74.8 
61 49.28571 82.9 
61 47.33333 18.1 
61 47.33333 26.2 
61 47.33333 34.3 
61 47.33333 42.4 
61 47.33333 50.5 
61 47.33333 58.6 
61 47.33333 66.7 
61 47.33333 74.8 
61 47.33333 82.9 
61 45.38095 18.1 
61 45.38095 26.2 
61 45.38095 34.3 
61 45.38095 42.4 
61 45.38095 50.5 
61 45.38095 58.6 
61 45.38095 66.7 
61 45.38095 74.8 
61 45.38095 82.9 
61 43.42857 18.1 
61 43.42857 26.2 
61 43.42857 34.3 
61 43.42857 42.4 
61 43.42857 50.5 
61 43.42857 58.6 
61 43.42857 66.7 
61 43.42857 74.8 
61 43.42857 82.9 
61 41.47619 18.1 
61 41.47619 26.2 
61 41.47619 34.3 
61 41.47619 42.4 
61 41.47619 50.5 
61 41.47619 58.6 
61 41.47619 66.7 
61 41.47619 74.8 
61 41.47619 82.9 
61 39.52381 18.1 
61 39.52381 26.2 
61 39.52381 34.3 
61 39.52381 42.4 
61 39.52381 50.5 
61 39.52381 58.6 
61 39.52381 66.7 
61 39.52381 74.8 
61 39.52381 82.9 
61 37.57143 18.1 
61 37.57143 26.2 
61 37.57143 34.3 
61 37.57143 42.4 
61 37.57143 50.5 
61 37.57143 58.6 
61 37.57143 66.7 
61 37.57143 74.8 
61 37.57143 82.9 
61 35.61905 18.1 
61 35.61905 26.2 
61 35.61905 34.3 
61 35.61905 42.4 
61 35.61905 50.5 
61 35.61905 58.6 
61 35.61905 66.7 
61 35.61905 74.8 
61 35.61905 82.9 
61 33.66667 18.1 
61 33.66667 26.2 
61 33.66667 34.3 
61 33.66667 42.4 
61 33.66667 50.5 
61 33.66667 58.6 
61 33.66667 66.7 
61 33.66667 74.8 
61 33.66667 82.9 
61 31.71428 18.1 
61 31.71428 26.2 
61 31.71428 34.3 
61 31.71428 42.4 
61 31.71428 50.5 
61 31.71428 58.6 
61 31.71428 66.7 
61 31.71428 74.8 
61 31.71428 82.9 
61 29.76191 18.1 
61 29.76191 26.2 
61 29.76191 34.3 
61 29.76191 42.4 
61 29.76191 50.5 
61 29.76191 58.6 
61 29.76191 66.7 
61 29.76191 74.8 
61 29.76191 82.9 
61 27.80952 18.1 
61 27.80952 26.2 
61 27.80952 34.3 
61 27.80952 42.4 
61 27.80952 50.5 
61 27.80952 58.6 
61 27.80952 66.7 
61 27.80952 74.8 
61 27.80952 82.9 
61 25.85714 18.1 
61 25.85714 26.2 
61 25.85714 34.3 
61 25.85714 42.4 
61 25.85714 50.5 
61 25.85714 58.6 
61 25.85714 66.7 
61 25.85714 74.8 
61 25.85714 82.9 
61 23.90476 18.1 
61 23.90476 26.2 
61 23.90476 34.3 
61 23.90476 42.4 
61 23.90476 50.5 
61 23.90476 58.6 
61 23.90476 66.7 
61 23.90476 74.8 
61 23.90476 82.9 
61 21.95238 18.1 
61 21.95238 26.2 
61 21.95238 34.3 
61 21.95238 42.4 
61 21.95238 50.5 
61 21.95238 58.6 
61 21.95238 66.7 
61 21.95238 74.8 
61 21.95238 82.9 
59.04762 20 18.1 
59.04762 20 26.2 
59.04762 20 34.3 
59.04762 20 42.4 
59.04762 20 50.5 
59.04762 20 58.6 
59.04762 20 66.7 
59.04762 20 74.8 
59.04762 20 82.9 
57.09524 20 18.1 
57.09524 20 26.2 
57.09524 20 34.3 
57.09524 20 42.4 
57.09524 20 50.5 
57.09524 20 58.6 
57.09524 20 66.7 
57.09524 20 74.8 
57.09524 20 82.9 
55.14286 20 18.1 
55.14286 20 26.2 
55.14286 20 34.3 
55.14286 20 42.4 
55.14286 20 50.5 
55.14286 20 58.6 
55.14286 20 66.7 
55.14286 20 74.8 
55.14286 20 82.9 
53.19048 20 18.1 
53.19048 20 26.2 
53.19048 20 34.3 
53.19048 20 42.4 
53.19048 20 50.5 
53.19048 20 58.6 
53.19048 20 66.7 
53.19048 20 74.8 
53.19048 20 82.9 
51.23809 20 18.1 
51.23809 20 26.2 
51.23809 20 34.3 
51.23809 20 42.4 
51.23809 20 50.5 
51.23809 20 58.6 
51.23809 20 66.7 
51.23809 20 74.8 
51.23809 20 82.9 
49.28571 20 18.1 
49.28571 20 26.2 
49.28571 20 34.3 
49.28571 20 42.4 
49.28571 20 50.5 
49.28571 20 58.6 
49.28571 20 66.7 
49.28571 20 74.8 
49.28571 20 82.9 
47.33333 20 18.1 
47.33333 20 26.2 
47.33333 20 34.3 
47.33333 20 42.4 
47.33333 20 50.5 
47.33333 20 58.6 
47.33333 20 66.7 
47.33333 20 74.8 
47.33333 20 82.9 
45.38095 20 18.1 
45.38095 20 26.2 
45.38095 20 34.3 
45.38095 20 42.4 
45.38095 20 50.5 
45.38095 20 58.6 
45.38095 20 66.7 
45.38095 20 74.8 
45.38095 20 82.9 
43.42857 20 18.1 
43.42857 20 26.2 
43.42857 20 34.3 
43.42857 20 42.4 
43.42857 20 50.5 
43.42857 20 58.6 
43.42857 20 66.7 
43.42857 20 74.8 
43.42857 20 82.9 
41.47619 20 18.1 
41.47619 20 26.2 
41.47619 20 34.3 
41.47619 20 42.4 
41.47619 20 50.5 
41.47619 20 58.6 
41.47619 20 66.7 
41.47619 20 74.8 
41.47619 20 82.9 
39.52381 20 18.1 
39.52381 20 26.2 
39.52381 20 34.3 
39.52381 20 42.4 
39.52381 20 50.5 
39.52381 20 58.6 
39.52381 20 66.7 
39.52381 20 74.8 
39.52381 20 82.9 
37.57143 20 18.1 
37.57143 20 26.2 
37.57143 20 34.3 
37.57143 20 42.4 
37.57143 20 50.5 
37.57143 20 58.6 
37.57143 20 66.7 
37.57143 20 74.8 
37.57143 20 82.9 
35.61905 20 18.1 
35.61905 20 26.2 
35.61905 20 34.3 
35.61905 20 42.4 
35.61905 20 50.5 
35.61905 20 58.6 
35.61905 20 66.7 
35.61905 20 74.8 
35.61905 20 82.9 
33.66667 20 18.1 
33.66667 20 26.2 
33.66667 20 34.3 
33.66667 20 42.4 
33.66667 20 50.5 
33.66667 20 58.6 
33.66667 20 66.7 
33.66667 20 74.8 
33.66667 20 82.9 
31.71428 20 18.1 
31.71428 20 26.2 
31.71428 20 34.3 
31.71428 20 42.4 
31.71428 20 50.5 
31.71428 20 58.6 
31.71428 20 66.7 
31.71428 20 74.8 
31.71428 20 82.9 
29.76191 20 18.1 
29.76191 20 26.2 
29.76191 20 34.3 
29.76191 20 42.4 
29.76191 20 50.5 
29.76191 20 58.6 
29.76191 20 66.7 
29.76191 20 74.8 
29.76191 20 82.9 
27.80952 20 18.1 
27.80952 20 26.2 
27.80952 20 34.3 
27.80952 20 42.4 
27.80952 20 50.5 
27.80952 20 58.6 
27.80952 20 66.7 
27.80952 20 74.8 
27.80952 20 82.9 
25.85714 20 18.1 
25.85714 20 26.2 
25.85714 20 34.3 
25.85714 20 42.4 
25.85714 20 50.5 
25.85714 20 58.6 
25.85714 20 66.7 
25.85714 20 74.8 
25.85714 20 82.9 
23.90476 20 18.1 
23.90476 20 26.2 
23.90476 20 34.3 
23.90476 20 42.4 
23.90476 20 50.5 
23.90476 20 58.6 
23.90476 20 66.7 
23.90476 20 74.8 
23.90476 20 82.9 
21.95238 20 18.1 
21.95238 20 26.2 
21.95238 20 34.3 
21.95238 20 42.4 
21.95238 20 50.5 
21.95238 20 58.6 
21.95238 20 66.7 
21.95238 20 74.8 
21.95238 20 82.9 
20 21.95238 18.1 
20 21.95238 26.2 
20 21.95238 34.3 
20 21.95238 42.4 
20 21.95238 50.5 
20 21.95238 58.6 
20 21.95238 66.7 
20 21.95238 74.8 
20 21.95238 82.9 
20 23.90476 18.1 
20 23.90476 26.2 
20 23.90476 34.3 
20 23.90476 42.4 
20 23.90476 50.5 
20 23.90476 58.6 
20 23.90476 66.7 
20 23.90476 74.8 
20 23.90476 82.9 
20 25.85714 18.1 
20 25.85714 26.2 
20 25.85714 34.3 
20 25.85714 42.4 
20 25.85714 50.5 
20 25.85714 58.6 
20 25.85714 66.7 
20 25.85714 74.8 
20 25.85714 82.9 
20 27.80952 18.1 
20 27.80952 26.2 
20 27.80952 34.3 
20 27.80952 42.4 
20 27.80952 50.5 
20 27.80952 58.6 
20 27.80952 66.7 
20 27.80952 74.8 
20 27.80952 82.9 
20 29.76191 18.1 
20 29.76191 26.2 
20 29.76191 34.3 
20 29.76191 42.4 
20 29.76191 50.5 
20 29.76191 58.6 
20 29.76191 66.7 
20 29.76191 74.8 
20 29.76191 82.9 
20 31.71428 18.1 
20 31.71428 26.2 
20 31.71428 34.3 
20 31.71428 42.4 
20 31.71428 50.5 
20 31.71428 58.6 
20 31.71428 66.7 
20 31.71428 74.8 
20 31.71428 82.9 
20 33.66667 18.1 
20 33.66667 26.2 
20 33.66667 34.3 
20 33.66667 42.4 
20 33.66667 50.5 
20 33.66667 58.6 
20 33.66667 66.7 
20 33.66667 74.8 
20 33.66667 82.9 
20 35.61905 18.1 
20 35.61905 26.2 
20 35.61905 34.3 
20 35.61905 42.4 
20 35.61905 50.5 
20 35.61905 58.6 
20 35.61905 66.7 
20 35.61905 74.8 
20 35.61905 82.9 
20 37.57143 18.1 
20 37.57143 26.2 
20 37.57143 34.3 
20 37.57143 42.4 
20 37.57143 50.5 
20 37.57143 58.6 
20 37.57143 66.7 
20 37.57143 74.8 
20 37.57143 82.9 
20 39.52381 18.1 
20 39.52381 26.2 
20 39.52381 34.3 
20 39.52381 42.4 
20 39.52381 50.5 
20 39.52381 58.6 
20 39.52381 66.7 
20 39.52381 74.8 
20 39.52381 82.9 
20 41.47619 18.1 
20 41.47619 26.2 
20 41.47619 34.3 
20 41.47619 42.4 
20 41.47619 50.5 
20 41.47619 58.6 
20 41.47619 66.7 
20 41.47619 74.8 
20 41.47619 82.9 
20 43.42857 18.1 
20 43.42857 26.2 
20 43.42857 34.3 
20 43.42857 42.4 
20 43.42857 50.5 
20 43.42857 58.6 
20 43.42857 66.7 
20 43.42857 74.8 
20 43.42857 82.9 
20 45.38095 18.1 
20 45.38095 26.2 
20 45.38095 34.3 
20 45.38095 42.4 
20 45.38095 50.5 
20 45.38095 58.6 
20 45.38095 66.7 
20 45.38095 74.8 
20 45.38095 82.9 
20 47.33333 18.1 
20 47.33333 26.2 
20 47.33333 34.3 
20 47.33333 42.4 
20 47.33333 50.5 
20 47.33333 58.6 
20 47.33333 66.7 
20 47.33333 74.8 
20 47.33333 82.9 
20 49.28571 18.1 
20 49.28571 26.2 
20 49.28571 34.3 
20 49.28571 42.4 
20 49.28571 50.5 
20 49.28571 58.6 
20 49.28571 66.7 
20 49.28571 74.8 
20 49.28571 82.9 
20 51.23809 18.1 
20 51.23809 26.2 
20 51.23809 34.3 
20 51.23809 42.4 
20 51.23809 50.5 
20 51.23809 58.6 
20 51.23809 66.7 
20 51.23809 74.8 
20 51.23809 82.9 
20 53.19048 18.1 
20 53.19048 26.2 
20 53.19048 34.3 
20 53.19048 42.4 
20 53.19048 50.5 
20 53.19048 58.6 
20 53.19048 66.7 
20 53.19048 74.8 
20 53.19048 82.9 
20 55.14286 18.1 
20 55.14286 26.2 
20 55.14286 34.3 
20 55.14286 42.4 
20 55.14286 50.5 
20 55.14286 58.6 
20 55.14286 66.7 
20 55.14286 74.8 
20 55.14286 82.9 
20 57.09524 18.1 
20 57.09524 26.2 
20 57.09524 34.3 
20 57.09524 42.4 
20 57.09524 50.5 
20 57.09524 58.6 
20 57.09524 66.7 
20 57.09524 74.8 
20 57.09524 82.9 
20 59.04762 18.1 
20 59.04762 26.2 
20 59.04762 34.3 
20 59.04762 42.4 
20 59.04762 50.5 
20 59.04762 58.6 
20 59.04762 66.7 
20 59.04762 74.8 
20 59.04762 82.9 
40.38539 59.13546 91 
40.42382 21.77635 91 
21.69081 40.5 91 
59.14013 40.55561 91 
32.69048 21.69081 91 
59.17323 32.69048 91 
21.69081 48.30952 91 
48.20172 59.24686 91 
21.69081 32.69048 91 
32.69048 59.30919 91 
48.2628 21.74482 91 
59.17323 48.30952 91 
21.69081 54.16667 91 
26.83333 21.69081 91 
54.2015 59.45833 91 
59.30919 26.83333 91 
26.81326 59.26472 91 
21.73477 26.81537 91 
59.26947 54.16579 91 
54.13296 21.66286 91 
36.70936 21.79444 91 
44.11113 21.86864 91 
59.11891 44.40476 91 
59.11891 36.59524 91 
21.69081 44.40476 91 
44.40476 59.30919 91 
36.75216 59.13835 91 
21.69081 36.59524 91 
23.00408 21.64722 91 
21.64722 57.99592 91 
59.41419 22.91335 91 
58.06352 59.31542 91 
21.69081 52.21429 91 
23.38162 53.19048 91 
23.38162 55.14286 91 
25.07244 54.16667 91 
25.07244 52.21429 91 
26.76325 53.19048 91 
26.76325 51.23809 91 
28.45406 52.21429 91 
28.45406 50.26191 91 
30.14487 51.23809 91 
30.14487 49.28571 91 
31.83568 50.26191 91 
31.83568 48.30952 91 
33.52649 49.28571 91 
33.52649 47.33333 91 
35.2173 48.30952 91 
35.2173 46.35714 91 
36.90812 47.33333 91 
36.90812 45.38095 91 
38.59893 46.35714 91 
38.59893 44.40476 91 
36.90812 43.42857 91 
38.59893 42.45238 91 
36.90812 41.47619 91 
38.59893 40.5 91 
40.28974 43.42857 91 
36.90812 39.52381 91 
38.59893 38.54762 91 
36.90812 37.57143 91 
38.59893 36.59524 91 
40.28974 37.57143 91 
36.90812 35.61905 91 
40.28974 35.61905 91 
41.98055 36.59524 91 
41.98055 34.64286 91 
43.67136 35.61905 91 
35.2173 38.54762 91 
43.67136 33.66667 91 
45.36217 34.64286 91 
45.36217 36.59524 91 
47.05298 35.61905 91 
47.05298 37.57143 91 
47.05298 33.66667 91 
31.83568 46.35714 91 
41.98055 32.69048 91 
38.59893 48.30952 91 
48.7438 34.64286 91 
48.7438 32.69048 91 
50.43461 33.66667 91 
50.43461 31.71428 91 
48.7438 30.73809 91 
50.43461 29.76191 91 
33.52649 51.23809 91 
40.28974 47.33333 91 
40.28974 49.28571 91 
41.98055 48.30952 91 
41.98055 50.26191 91 
43.67136 49.28571 91 
40.28974 51.23809 91 
43.67136 51.23809 91 
45.36217 50.26191 91 
45.36217 48.30952 91 
47.05298 49.28571 91 
47.05298 47.33333 91 
48.7438 48.30952 91 
48.7438 46.35714 91 
48.7438 50.26191 91 
50.43461 47.33333 91 
50.43461 45.38095 91 
47.05298 45.38095 91 
50.43461 35.61905 91 
28.45406 48.30952 91 
45.36217 52.21429 91 
52.12542 30.73809 91 
52.12542 34.64286 91 
52.12542 36.59524 91 
52.12542 46.35714 91 
52.12542 44.40476 91 
52.12542 48.30952 91 
48.7438 28.78572 91 
52.12542 28.78572 91 
45.36217 38.54762 91 
43.67136 53.19048 91 
50.43461 43.42857 91 
53.81623 29.76191 91 
30.14487 53.19048 91 
53.80075 27.83633 91 
52.12217 26.87955 91 
52.12542 42.45238 91 
35.2173 42.45238 91 
47.05298 29.76191 91 
47.05298 27.80952 91 
45.36217 28.78572 91 
45.36217 54.16667 91 
53.81623 35.61905 91 
53.81623 37.57143 91 
53.81623 43.42857 91 
53.8167 47.33101 91 
53.81982 49.27936 91 
45.36217 26.83333 91 
43.67136 27.80952 91 
50.43461 41.47619 91 
43.67136 55.14286 91 
43.67484 25.86754 91 
41.97987 26.83725 91 
55.54582 28.73084 91 
55.44048 26.74715 91 
55.5135 30.72895 91 
47.05298 25.85714 91 
26.76325 55.14286 91 
53.81623 41.47619 91 
55.49306 42.47659 91 
55.53442 40.58189 91 
25.07244 50.26191 91 
47.05298 39.52381 91 
45.36217 40.5 91 
41.98055 46.35714 91 
41.98043 28.78637 91 
40.2896 27.81029 91 
40.28834 25.86011 91 
38.59867 26.83395 91 
38.59893 28.78572 91 
36.90807 27.80963 91 
36.90811 29.76192 91 
35.2173 28.78573 91 
35.2173 30.7381 91 
33.52649 29.76191 91 
33.52649 31.71429 91 
31.83568 30.7381 91 
31.83568 32.69048 91 
30.14487 31.71428 91 
30.14487 33.66667 91 
30.14487 29.76191 91 
28.45406 30.7381 91 
28.44665 28.79854 91 
30.08257 27.89945 91 
26.72011 29.71759 91 
26.75606 31.7069 91 
26.84489 27.83117 91 
35.25935 26.9062 91 
31.83568 34.64286 91 
30.14487 35.61905 91 
31.83568 36.59524 91 
30.14487 37.57143 91 
28.45406 36.59524 91 
28.45406 38.54762 91 
30.14487 39.52381 91 
28.45406 40.5 91 
30.14487 41.47619 91 
28.45406 42.45238 91 
26.76325 41.47619 91 
26.76325 43.42857 91 
26.76325 37.57143 91 
38.59893 30.7381 91 
41.98055 54.16667 91 
47.05298 53.19048 91 
47.05298 55.14286 91 
48.7438 54.16667 91 
31.83568 40.5 91 
41.98055 38.54762 91 
48.7438 42.45238 91 
48.7438 38.54762 91 
55.50704 44.40476 91 
26.76325 35.61905 91 
52.12602 50.26085 91 
53.81693 51.23686 91 
55.51127 50.25467 91 
55.57097 52.21288 91 
53.827 53.19003 91 
55.5826 54.16636 91 
53.83062 55.14273 91 
28.45406 44.40476 91 
26.76325 45.38095 91 
31.83568 42.45238 91 
25.07244 42.45238 91 
25.07244 40.5 91 
25.07244 30.73809 91 
25.07124 32.68925 91 
55.49616 56.07417 91 
57.24675 29.6919 91 
55.50704 36.59524 91 
55.51394 34.64286 91 
57.23407 51.23684 91 
38.59865 24.88155 91 
41.95197 56.06954 91 
40.28497 55.13461 91 
48.77304 56.0684 91 
33.52649 35.61905 91 
52.12542 38.54762 91 
43.67136 31.71428 91 
35.2173 32.69048 91 
50.43948 55.13441 91 
50.40703 57.01994 91 
50.43542 53.18907 91 
25.07244 36.59524 91 
47.1496 57.35962 91 
57.26141 31.70109 91 
57.26243 49.27833 91 
57.25125 35.61905 91 
57.2958 37.62508 91 
57.19785 43.42857 91 
57.24839 45.37799 91 
57.23361 55.14086 91 
57.21207 57.38479 91 
43.57609 57.36966 91 
53.65294 56.86476 91 
40.27154 57.05074 91 
38.5951 56.11026 91 
38.59855 54.16593 91 
36.90741 55.14127 91 
36.90794 53.19009 91 
35.21716 54.16634 91 
35.2438 56.07259 91 
33.53088 55.13506 91 
38.57665 58.038 91 
33.57702 57.3714 91 
31.83568 56.11905 91 
40.32681 23.88305 91 
38.58573 22.9237 91 
42.1398 22.95427 91 
36.85418 23.90357 91 
35.37604 23.10779 91 
59.09501 30.72423 91 
59.10097 38.59895 91 
57.28206 39.58843 91 
59.12996 46.35665 91 
59.13044 34.64286 91 
58.99053 42.46458 91 
59.08086 50.25846 91 
58.96306 56.12545 91 
57.49805 53.18889 91 
59.18283 28.7124 91 
57.3318 27.63536 91 
57.25083 25.47202 91 
55.21375 24.93142 91 
56.59293 23.43683 91 
59.33864 24.77631 91 
59.18041 52.21309 91 
57.30622 33.66447 91 
57.30648 47.32259 91 
55.53558 48.30088 91 
21.68355 56.10646 91 
23.37315 57.08055 91 
23.18002 59.20155 91 
25.07244 58.07143 91 
25.07102 56.1166 91 
26.77705 57.14389 91 
28.52863 58.06874 91 
28.46879 56.12845 91 
30.14487 57.10568 91 
30.40127 59.12523 91 
52.33426 59.46959 91 
28.78572 21.69081 91 
27.80952 23.38162 91 
25.85714 23.38162 91 
29.76191 23.38162 91 
28.63771 25.22482 91 
30.74383 25.03346 91 
31.67547 23.39809 91 
32.75432 25.01587 91 
24.89354 21.68355 91 
23.91945 23.37315 91 
24.83777 25.04468 91 
22.92857 25.07244 91 
23.7928 26.75548 91 
22.80851 28.60562 91 
24.8438 28.53438 91 
21.79845 23.18002 91 
26.63568 25.01439 91 
56.17784 59.32685 91 
30.73163 21.69356 91 
50.32988 59.03214 91 
21.69081 50.26191 91 
23.38162 51.23809 91 
23.38162 49.28571 91 
23.38162 47.33333 91 
25.07244 48.30952 91 
31.83641 54.16537 91 
35.2173 52.21429 91 
36.90808 51.23803 91 
53.82079 39.53746 91 
28.45651 54.16823 91 
48.7438 40.5 91 
47.05298 41.47619 91 
45.36217 42.45238 91 
43.67136 41.47619 91 
43.67136 43.42857 91 
45.36217 44.40476 91 
55.54272 38.58326 91 
28.45286 32.68925 91 
50.43461 39.52381 91 
33.52649 41.47619 91 
33.52649 43.42857 91 
33.52649 39.52381 91 
26.76325 49.28571 91 
25.07244 38.54762 91 
30.14487 47.33333 91 
41.98053 30.7382 91 
40.28973 31.7143 91 
47.05298 31.71428 91 
45.36217 56.11905 91 
26.76325 39.52381 91 
33.52649 33.66667 91 
40.28974 45.38095 91 
35.2173 36.59524 91 
35.2173 40.5 91 
47.05298 51.23809 91 
45.37062 24.92556 91 
47.20771 23.6312 91 
48.81256 24.95969 91 
38.59893 34.64286 91 
35.2173 44.40476 91 
43.67136 47.33333 91 
52.12542 32.69048 91 
53.81459 45.3776 91 
46.35714 21.69081 91 
40.28974 33.66667 91 
48.7438 36.59524 91 
41.98055 52.21429 91 
34.62207 59.28043 91 
52.12618 40.50227 91 
50.25412 21.66664 91 
40.28974 41.47619 91 
21.69081 42.45238 91 
46.34449 59.30589 91 
42.49593 59.27747 91 
40.28974 39.52381 91 
43.67136 37.57143 91 
21.69081 38.54762 91 
40.28969 29.76216 91 
38.59893 32.69048 91 
21.69081 34.64286 91 
21.81322 30.47205 91 
25.07244 44.40476 91 
31.83568 38.54762 91 
36.90812 57.09524 91 
28.45386 34.64265 91 
45.36217 46.35714 91 
33.52649 37.57143 91 
48.7438 44.40476 91 
36.91078 25.87752 91 
50.43461 37.57143 91 
26.76162 33.66499 91 
40.28888 53.18898 91 
47.05298 43.42857 91 
52.20737 21.68212 91 
51.21708 23.21338 91 
48.75526 26.84646 91 
50.43461 27.80952 91 
53.81731 31.71276 91 
45.36217 32.69048 91 
45.36217 30.73809 91 
43.67134 29.762 91 
50.43471 49.28554 91 
30.14487 43.42857 91 
25.07244 34.64286 91 
36.90811 49.2857 91 
53.81756 33.66641 91 
48.74393 52.21405 91 
36.90811 31.71429 91 
43.67136 39.52381 91 
41.98055 44.40476 91 
38.59875 52.21397 91 
35.2173 50.26189 91 
41.98055 40.5 91 
36.90812 33.66667 91 
31.8253 28.8007 91 
31.78654 26.73012 91 
38.59889 50.26184 91 
43.67136 45.38095 91 
50.43488 51.23762 91 
33.52732 53.1889 91 
55.98005 21.65819 91 
41.98055 42.45238 91 
50.4149 25.9771 91 
31.83594 52.21381 91 
26.76325 47.33333 91 
28.45406 46.35714 91 
35.2173 34.64286 91 
33.56089 27.8716 91 
30.14487 45.38095 91 
52.12761 52.21352 91 
31.83568 44.40476 91 
33.52649 45.38095 91 
21.69081 46.35714 91 
25.07244 46.35714 91 
53.08186 23.2296 91 
52.13092 54.1648 91 
55.53832 32.68609 91 
52.08156 56.03968 91 
23.38162 45.38095 91 
23.38162 43.42857 91 
23.38162 41.47619 91 
23.38162 39.52381 91 
30.14786 55.14621 91 
23.38162 37.57143 91 
23.38162 35.61905 91 
23.38142 33.66646 91 
23.38162 31.71428 91 
42.01824 24.89271 91 
55.53813 46.35247 91 
43.7826 23.94088 91 
34.90473 24.93932 91 
28.48722 27.08488 91 
59.3163 58.01269 91 
52.17668 24.95404 91 
57.96549 21.87355 91 
57.22758 41.54608 91 
53.72337 26.01797 91 
49.28571 23.18255 91 
31.72657 57.82153 91 
45.37129 57.88432 91 
45.37702 23.15606 91 
33.60371 23.33211 91 
54.79673 23.25894 91 
34.62654 21.52542 91 
54.98849 57.90632 91 
23.53758 30.03204 91 
25.58335 26.60517 91 
35.42063 57.7916 91 
41.73618 57.78057 91 
42.45238 21.34141 91 
48.97225 57.74539 91 
24.88095 59.69215 91 
21.30382 24.90308 91 
38.54762 59.69796 91 
38.54762 21.30204 91 
51.9231 57.72099 91 
21.2713 28.69289 91 
28.66292 59.69174 91 
33.75037 26.24492 91 
29.82292 26.30692 91 
59.57076 21.42924 91 
59.57076 59.57076 91 
21.42924 21.42924 91 
21.42924 59.57076 91 
50.38139 24.45735 91 
58.11242 23.69441 91 
27.23777 26.35209 91 
53.78885 24.55497 91 
53.30761 58.30604 91 
40.38539 59.13546 10 
40.42382 21.77635 10 
59.14013 40.55561 10 
21.69081 40.5 10 
59.26909 32.69048 10 
32.65391 21.60161 10 
21.69081 48.30952 10 
48.25521 59.34055 10 
21.69081 32.69048 10 
32.69048 59.30919 10 
48.2305 21.79673 10 
59.13515 48.36514 10 
59.30919 26.83333 10 
21.69081 54.16667 10 
26.81329 21.73527 10 
54.2015 59.45833 10 
26.81326 59.26472 10 
21.69081 26.83333 10 
59.16972 54.16667 10 
53.92658 21.84262 10 
59.11891 44.40476 10 
59.09901 36.59524 10 
36.75216 59.13835 10 
21.69081 44.40476 10 
44.11113 21.86864 10 
36.70935 21.79444 10 
21.69081 36.59524 10 
44.40476 59.30919 10 
59.41419 22.91335 10 
23.10785 21.76827 10 
21.64722 57.99592 10 
58.06124 59.31907 10 
21.69081 52.21429 10 
23.38162 53.19048 10 
23.38162 55.14286 10 
25.07244 54.16667 10 
25.07244 52.21429 10 
26.76325 53.19048 10 
26.76325 51.23809 10 
28.45406 52.21429 10 
28.45406 50.26191 10 
30.14487 51.23809 10 
30.14487 49.28571 10 
31.83568 50.26191 10 
31.83568 48.30952 10 
33.52649 49.28571 10 
33.52649 47.33333 10 
35.2173 48.30952 10 
35.2173 46.35714 10 
36.90812 47.33333 10 
36.90812 45.38095 10 
38.59893 46.35714 10 
38.59893 44.40476 10 
36.90812 43.42857 10 
38.59893 42.45238 10 
36.90812 41.47619 10 
38.59893 40.5 10 
40.28974 43.42857 10 
36.90812 39.52381 10 
38.59893 38.54762 10 
36.90812 37.57143 10 
38.59893 36.59524 10 
40.28974 37.57143 10 
36.90812 35.61905 10 
40.28974 35.61905 10 
41.98055 36.59524 10 
41.98055 34.64286 10 
43.67136 35.61905 10 
35.2173 38.54762 10 
43.67136 33.66667 10 
45.36217 34.64286 10 
45.36217 36.59524 10 
47.05298 35.61905 10 
47.05298 37.57143 10 
47.05298 33.66667 10 
31.83568 46.35714 10 
41.98055 32.69048 10 
38.59893 48.30952 10 
48.74379 34.64286 10 
48.74379 32.69048 10 
50.4346 33.66666 10 
50.4346 31.71428 10 
48.74379 30.73809 10 
50.4346 29.7619 10 
33.52649 51.23809 10 
40.28974 47.33333 10 
40.28974 49.28571 10 
41.98055 48.30952 10 
41.98055 50.26191 10 
43.67136 49.28571 10 
40.28974 51.23809 10 
43.67136 51.23809 10 
45.36217 50.26191 10 
45.36217 48.30952 10 
47.05298 49.28571 10 
47.05298 47.33333 10 
48.7438 48.30952 10 
48.74379 46.35714 10 
48.7438 50.26191 10 
50.43461 47.33333 10 
50.43461 45.38095 10 
28.45406 48.30952 10 
47.05298 45.38095 10 
50.43461 35.61905 10 
45.36217 52.21429 10 
52.12542 30.73809 10 
52.12542 34.64286 10 
52.12542 36.59524 10 
52.12542 46.35714 10 
52.12542 48.30952 10 
52.12542 44.40476 10 
48.74379 28.78571 10 
52.12542 28.78571 10 
45.36217 38.54762 10 
43.67136 53.19048 10 
50.43461 43.42857 10 
53.81623 29.7619 10 
30.14487 53.19048 10 
53.80075 27.83633 10 
52.10736 26.8646 10 
47.05298 29.7619 10 
47.05298 27.80952 10 
45.36217 28.78571 10 
52.12542 42.45238 10 
35.2173 42.45238 10 
45.36217 54.16667 10 
53.81623 35.61905 10 
53.81623 37.57143 10 
53.81623 43.42857 10 
53.81623 47.33333 10 
53.81623 49.28571 10 
45.36217 26.83333 10 
43.67136 27.80952 10 
47.05298 39.52381 10 
45.36217 40.5 10 
43.67136 55.14286 10 
43.67484 25.86754 10 
41.97987 26.83725 10 
55.54582 28.73084 10 
55.44048 26.74715 10 
55.5135 30.72895 10 
47.05298 25.85714 10 
26.76325 55.14286 10 
47.05298 41.47619 10 
45.36217 42.45238 10 
41.98055 46.35714 10 
50.43461 41.47619 10 
41.98043 28.78637 10 
40.2896 27.81029 10 
40.28834 25.86011 10 
38.59867 26.83395 10 
38.59893 28.78571 10 
36.90807 27.80963 10 
36.90811 29.76192 10 
35.21754 28.78617 10 
35.21734 30.73817 10 
33.52682 29.76237 10 
33.52655 31.71438 10 
31.83572 30.73811 10 
31.8357 32.69049 10 
30.14488 31.71429 10 
30.14487 33.66667 10 
30.14491 29.76185 10 
28.45407 30.73809 10 
28.45407 28.7857 10 
30.1474 27.80852 10 
26.76324 29.7619 10 
26.76325 27.80952 10 
26.76325 31.71428 10 
35.22287 26.84293 10 
31.83568 34.64286 10 
30.14487 35.61905 10 
31.83568 36.59524 10 
30.14487 37.57143 10 
28.45406 36.59524 10 
28.45406 38.54762 10 
30.14487 39.52381 10 
28.45406 40.5 10 
30.14487 41.47619 10 
28.45406 42.45238 10 
26.76324 39.52381 10 
36.90812 31.7143 10 
31.83568 40.5 10 
31.83568 42.45238 10 
48.74379 38.54762 10 
41.98055 54.16667 10 
52.12542 50.26191 10 
53.81623 51.23809 10 
52.12542 52.21429 10 
53.81623 53.19048 10 
52.12542 54.16666 10 
55.50704 52.21428 10 
55.50704 54.16666 10 
50.43461 53.19048 10 
50.43461 55.14286 10 
41.98055 38.54762 10 
43.67136 41.47619 10 
53.81623 41.47619 10 
55.49306 42.47659 10 
55.50471 44.40879 10 
55.53442 40.58189 10 
25.07244 50.26191 10 
25.07243 30.73809 10 
25.07243 32.69048 10 
57.24675 29.6919 10 
55.50704 36.59524 10 
55.57015 34.64286 10 
55.53675 48.38738 10 
52.0917 56.06064 10 
38.59865 24.88155 10 
45.36217 56.11905 10 
41.95197 56.06954 10 
40.28497 55.13461 10 
33.52649 35.61905 10 
43.67136 31.71428 10 
48.7438 54.16666 10 
26.76325 33.66666 10 
25.07243 34.64286 10 
43.67136 43.42857 10 
52.12542 38.54762 10 
48.77394 56.13473 10 
57.19785 31.71428 10 
57.32062 35.61905 10 
57.30404 37.62508 10 
57.19785 43.42857 10 
57.28651 45.43528 10 
57.24469 53.19048 10 
57.19168 51.2623 10 
57.25948 55.14286 10 
55.49144 56.07424 10 
57.2215 57.3866 10 
40.27154 57.05074 10 
38.5951 56.11026 10 
38.59855 54.16593 10 
36.90741 55.14127 10 
36.90794 53.19009 10 
35.21716 54.16634 10 
35.2438 56.07259 10 
33.53088 55.13506 10 
38.57665 58.038 10 
33.57702 57.3714 10 
31.83568 56.11905 10 
40.32681 23.88305 10 
38.58573 22.9237 10 
42.1398 22.95427 10 
36.85418 23.90357 10 
35.08676 23.0534 10 
59.08246 52.21832 10 
59.10039 30.72643 10 
59.09958 38.59895 10 
57.2832 39.58843 10 
59.09927 46.40855 10 
57.27979 47.39741 10 
57.46371 33.66666 10 
58.99053 42.46458 10 
58.93054 56.11905 10 
59.09942 28.73361 10 
57.27221 27.71163 10 
57.24232 25.48292 10 
55.2411 24.83689 10 
56.61491 23.39911 10 
59.33722 24.77813 10 
59.03049 50.28918 10 
59.22917 34.64286 10 
33.52649 41.47619 10 
33.52649 43.42857 10 
31.83568 44.40476 10 
33.52649 37.57143 10 
21.68355 56.10646 10 
23.37315 57.08055 10 
23.18002 59.20155 10 
25.07244 58.07143 10 
25.07102 56.1166 10 
26.77705 57.14389 10 
28.52863 58.06874 10 
28.46879 56.12845 10 
30.14487 57.10568 10 
30.40127 59.12523 10 
45.36217 44.40476 10 
33.5272 53.18912 10 
31.83653 54.16514 10 
48.74379 42.45238 10 
30.14581 55.14397 10 
38.59883 52.2141 10 
36.90807 51.238 10 
38.5989 50.26186 10 
36.9081 49.28569 10 
41.98053 30.7382 10 
40.28973 31.7143 10 
38.59893 30.7381 10 
40.28969 29.76216 10 
45.37062 24.92556 10 
47.15075 23.64575 10 
48.74379 24.88095 10 
48.74379 26.83333 10 
50.4316 25.86235 10 
50.46334 23.95627 10 
52.08191 24.92242 10 
52.12684 22.98023 10 
50.354 21.89552 10 
25.07243 28.78571 10 
25.07243 26.83333 10 
26.76324 25.85714 10 
25.07243 24.88095 10 
23.38162 29.7619 10 
26.77728 23.8557 10 
28.46033 24.8689 10 
25.00557 22.9088 10 
23.31564 23.88674 10 
28.53292 22.92858 10 
30.15779 23.93525 10 
30.4013 21.86885 10 
30.15166 25.85988 10 
31.81695 24.93939 10 
31.83493 26.84459 10 
31.8363 28.78793 10 
40.28974 45.38095 10 
31.83594 52.21381 10 
41.98055 44.40476 10 
45.36217 32.69048 10 
43.67134 29.762 10 
38.59893 34.64286 10 
36.90812 33.66667 10 
35.21731 32.69049 10 
38.59893 32.69048 10 
28.45406 32.69048 10 
33.52649 39.52381 10 
43.57609 57.36966 10 
45.36217 30.73811 10 
48.74379 36.59524 10 
55.54004 46.39053 10 
40.28887 53.18895 10 
48.7438 52.21429 10 
47.05298 51.23809 10 
47.05298 53.19048 10 
35.2173 40.5 10 
50.43461 51.23809 10 
50.43461 49.28571 10 
30.14487 47.33333 10 
28.45406 46.35714 10 
26.76325 47.33333 10 
26.76325 45.38095 10 
25.07243 46.35714 10 
25.07243 44.40476 10 
28.45406 44.40476 10 
53.82675 33.66666 10 
52.12717 32.69048 10 
53.81623 31.71428 10 
55.5647 32.68895 10 
26.76325 49.28571 10 
40.28974 41.47619 10 
55.54353 38.58098 10 
36.90723 25.8597 10 
52.33426 59.46959 10 
56.17903 59.32777 10 
50.34726 59.06184 10 
21.69081 50.26191 10 
28.45667 54.16842 10 
34.62207 59.28043 10 
46.35714 21.69081 10 
21.69081 42.45238 10 
23.38162 41.47619 10 
23.38162 39.52381 10 
53.82134 45.38719 10 
42.49593 59.27747 10 
21.69081 46.35714 10 
21.69081 34.64286 10 
46.34809 59.35526 10 
47.21087 57.45855 10 
48.74379 44.40476 10 
40.28974 33.66667 10 
55.49699 50.30312 10 
55.96815 21.65808 10 
50.42174 56.98793 10 
53.80801 55.12566 10 
31.83568 38.54762 10 
36.90812 57.09524 10 
30.14487 43.42857 10 
33.52649 45.38095 10 
43.67136 37.57143 10 
43.67136 47.33333 10 
43.67136 39.52381 10 
26.76325 41.47619 10 
53.64276 56.85219 10 
41.9804 52.21403 10 
21.69081 38.54762 10 
45.36217 46.35714 10 
47.05298 31.71429 10 
23.38162 37.57143 10 
40.28974 39.52381 10 
25.07243 48.30952 10 
50.4311 27.8156 10 
35.2173 44.40476 10 
35.21729 50.26188 10 
28.45666 26.83161 10 
35.2173 36.59524 10 
41.98055 42.45238 10 
23.38162 49.28571 10 
26.76324 37.57143 10 
33.5265 33.66669 10 
47.08432 55.20602 10 
41.98055 40.5 10 
26.76325 35.61905 10 
52.12542 40.5 10 
53.82383 39.53753 10 
50.43461 39.52381 10 
47.05298 43.42857 10 
50.43461 37.57143 10 
35.21736 52.21392 10 
26.76325 43.42857 10 
28.45406 34.64286 10 
23.38162 51.23809 10 
48.74379 40.5 10 
35.21731 34.64286 10 
43.67136 45.38095 10 
30.14487 45.38095 10 
23.38162 47.33333 10 
23.38162 45.38095 10 
23.38162 43.42857 10 
25.07243 42.45238 10 
25.07243 36.59524 10 
23.38162 31.71428 10 
23.38162 35.61905 10 
21.69081 30.73809 10 
25.07243 40.5 10 
23.37062 25.85414 10 
23.37979 27.80902 10 
23.38162 33.66667 10 
25.07243 38.54762 10 
21.69051 28.78563 10 
21.66877 24.8934 10 
33.528 27.81213 10 
33.52286 25.89526 10 
42.01824 24.89271 10 
43.7826 23.94088 10 
35.22195 24.92876 10 
59.31672 58.01601 10 
33.51966 24.09721 10 
21.61073 22.99786 10 
57.96693 21.86815 10 
57.27848 49.33409 10 
57.22771 41.54608 10 
53.65384 23.91529 10 
53.72161 25.90069 10 
31.72657 57.82153 10 
45.3804 57.92234 10 
45.36743 23.17625 10 
31.9576 23.16784 10 
34.6262 21.42273 10 
54.98779 57.90469 10 
35.42063 57.7916 10 
41.73618 57.78057 10 
42.45238 21.34141 10 
48.98848 23.23504 10 
55.05366 23.07122 10 
48.95983 57.80653 10 
24.88095 59.69215 10 
24.93772 21.28247 10 
52.1672 21.34367 10 
38.54762 59.69796 10 
38.54762 21.30204 10 
51.9231 57.72099 10 
28.66379 21.30654 10 
28.66292 59.69174 10 
59.57076 59.57076 10 
59.57076 21.42924 10 
21.42924 21.42924 10 
21.42924 59.57076 10 
58.11511 23.68833 10 
33.73753 22.6228 10 
53.3065 58.30459 10 
3 0 8 204 
3 0 204 168 
3 168 204 205 
3 168 205 169 
3 169 205 206 
3 169 206 170 
3 170 206 207 
3 170 207 171 
3 171 207 208 
3 171 208 172 
3 172 208 209 
3 172 209 173 
3 173 209 210 
3 173 210 174 
3 174 210 211 
3 174 211 175 
3 175 211 212 
3 175 212 176 
3 176 212 88 
3 176 88 4 
3 8 9 213 
3 8 213 204 
3 204 213 214 
3 204 214 205 
3 205 214 215 
3 205 215 206 
3 206 215 216 
3 206 216 207 
3 207 216 217 
3 207 217 208 
3 208 217 218 
3 208 218 209 
3 209 218 219 
3 209 219 210 
3 210 219 220 
3 210 220 211 
3 211 220 221 
3 211 221 212 
3 212 221 89 
3 212 89 88 
3 9 10 222 
3 9 222 213 
3 213 222 223 
3 213 223 214 
3 214 223 224 
3 214 224 215 
3 215 224 225 
3 215 225 216 
3 216 225 226 
3 216 226 217 
3 217 226 227 
3 217 227 218 
3 218 227 228 
3 218 228 219 
3 219 228 229 
3 219 229 220 
3 220 229 230 
3 220 230 221 
3 221 230 90 
3 221 90 89 
3 10 11 231 
3 10 231 222 
3 222 231 232 
3 222 232 223 
3 223 232 233 
3 223 233 224 
3 224 233 234 
3 224 234 225 
3 225 234 235 
3 225 235 226 
3 226 235 236 
3 226 236 227 
3 227 236 237 
3 227 237 228 
3 228 237 238 
3 228 238 229 
3 229 238 239 
3 229 239 230 
3 230 239 91 
3 230 91 90 
3 11 12 240 
3 11 240 231 
3 231 240 241 
3 231 241 232 
3 232 241 242 
3 232 242 233 
3 233 242 243 
3 233 243 234 
3 234 243 244 
3 234 244 235 
3 235 244 245 
3 235 245 236 
3 236 245 246 
3 236 246 237 
3 237 246 247 
3 237 247 238 
3 238 247 248 
3 238 248 239 
3 239 248 92 
3 239 92 91 
3 12 13 249 
3 12 249 240 
3 240 249 250 
3 240 250 241 
3 241 250 251 
3 241 251 242 
3 242 251 252 
3 242 252 243 
3 243 252 253 
3 243 253 244 
3 244 253 254 
3 244 254 245 
3 245 254 255 
3 245 255 246 
3 246 255 256 
3 246 256 247 
3 247 256 257 
3 247 257 248 
3 248 257 93 
3 248 93 92 
3 13 14 258 
3 13 258 249 
3 249 258 259 
3 249 259 250 
3 250 259 260 
3 250 260 251 
3 251 260 261 
3 251 261 252 
3 252 261 262 
3 252 262 253 
3 253 262 263 
3 253 263 254 
3 254 263 264 
3 254 264 255 
3 255 264 265 
3 255 265 256 
3 256 265 266 
3 256 266 257 
3 257 266 94 
3 257 94 93 
3 14 15 267 
3 14 267 258 
3 258 267 268 
3 258 268 259 
3 259 268 269 
3 259 269 260 
3 260 269 270 
3 260 270 261 
3 261 270 271 
3 261 271 262 
3 262 271 272 
3 262 272 263 
3 263 272 273 
3 263 273 264 
3 264 273 274 
3 264 274 265 
3 265 274 275 
3 265 275 266 
3 266 275 95 
3 266 95 94 
3 15 16 276 
3 15 276 267 
3 267 276 277 
3 267 277 268 
3 268 277 278 
3 268 278 269 
3 269 278 279 
3 269 279 270 
3 270 279 280 
3 270 280 271 
3 271 280 281 
3 271 281 272 
3 272 281 282 
3 272 282 273 
3 273 282 283 
3 273 283 274 
3 274 283 284 
3 274 284 275 
3 275 284 96 
3 275 96 95 
3 16 17 285 
3 16 285 276 
3 276 285 286 
3 276 286 277 
3 277 286 287 
3 277 287 278 
3 278 287 288 
3 278 288 279 
3 279 288 289 
3 279 289 280 
3 280 289 290 
3 280 290 281 
3 281 290 291 
3 281 291 282 
3 282 291 292 
3 282 292 283 
3 283 292 293 
3 283 293 284 
3 284 293 97 
3 284 97 96 
3 17 18 294 
3 17 294 285 
3 285 294 295 
3 285 295 286 
3 286 295 296 
3 286 296 287 
3 287 296 297 
3 287 297 288 
3 288 297 298 
3 288 298 289 
3 289 298 299 
3 289 299 290 
3 290 299 300 
3 290 300 291 
3 291 300 301 
3 291 301 292 
3 292 301 302 
3 292 302 293 
3 293 302 98 
3 293 98 97 
3 18 19 303 
3 18 303 294 
3 294 303 304 
3 294 304 295 
3 295 304 305 
3 295 305 296 
3 296 305 306 
3 296 306 297 
3 297 306 307 
3 297 307 298 
3 298 307 308 
3 298 308 299 
3 299 308 309 
3 299 309 300 
3 300 309 310 
3 300 310 301 
3 301 310 311 
3 301 311 302 
3 302 311 99 
3 302 99 98 
3 19 20 312 
3 19 312 303 
3 303 312 313 
3 303 313 304 
3 304 313 314 
3 304 314 305 
3 305 314 315 
3 305 315 306 
3 306 315 316 
3 306 316 307 
3 307 316 317 
3 307 317 308 
3 308 317 318 
3 308 318 309 
3 309 318 319 
3 309 319 310 
3 310 319 320 
3 310 320 311 
3 311 320 100 
3 311 100 99 
3 20 21 321 
3 20 321 312 
3 312 321 322 
3 312 322 313 
3 313 322 323 
3 313 323 314 
3 314 323 324 
3 314 324 315 
3 315 324 325 
3 315 325 316 
3 316 325 326 
3 316 326 317 
3 317 326 327 
3 317 327 318 
3 318 327 328 
3 318 328 319 
3 319 328 329 
3 319 329 320 
3 320 329 101 
3 320 101 100 
3 21 22 330 
3 21 330 321 
3 321 330 331 
3 321 331 322 
3 322 331 332 
3 322 332 323 
3 323 332 333 
3 323 333 324 
3 324 333 334 
3 324 334 325 
3 325 334 335 
3 325 335 326 
3 326 335 336 
3 326 336 327 
3 327 336 337 
3 327 337 328 
3 328 337 338 
3 328 338 329 
3 329 338 102 
3 329 102 101 
3 22 23 339 
3 22 339 330 
3 330 339 340 
3 330 340 331 
3 331 340 341 
3 331 341 332 
3 332 341 342 
3 332 342 333 
3 333 342 343 
3 333 343 334 
3 334 343 344 
3 334 344 335 
3 335 344 345 
3 335 345 336 
3 336 345 346 
3 336 346 337 
3 337 346 347 
3 337 347 338 
3 338 347 103 
3 338 103 102 
3 23 24 348 
3 23 348 339 
3 339 348 349 
3 339 349 340 
3 340 349 350 
3 340 350 341 
3 341 350 351 
3 341 351 342 
3 342 351 352 
3 342 352 343 
3 343 352 353 
3 343 353 344 
3 344 353 354 
3 344 354 345 
3 345 354 355 
3 345 355 346 
3 346 355 356 
3 346 356 347 
3 347 356 104 
3 347 104 103 
3 24 25 357 
3 24 357 348 
3 348 357 358 
3 348 358 349 
3 349 358 359 
3 349 359 350 
3 350 359 360 
3 350 360 351 
3 351 360 361 
3 351 361 352 
3 352 361 362 
3 352 362 353 
3 353 362 363 
3 353 363 354 
3 354 363 364 
3 354 364 355 
3 355 364 365 
3 355 365 356 
3 356 365 105 
3 356 105 104 
3 25 26 366 
3 25 366 357 
3 357 366 367 
3 357 367 358 
3 358 367 368 
3 358 368 359 
3 359 368 369 
3 359 369 360 
3 360 369 370 
3 360 370 361 
3 361 370 371 
3 361 371 362 
3 362 371 372 
3 362 372 363 
3 363 372 373 
3 363 373 364 
3 364 373 374 
3 364 374 365 
3 365 374 106 
3 365 106 105 
3 26 27 375 
3 26 375 366 
3 366 375 376 
3 366 376 367 
3 367 376 377 
3 367 377 368 
3 368 377 378 
3 368 378 369 
3 369 378 379 
3 369 379 370 
3 370 379 380 
3 370 380 371 
3 371 380 381 
3 371 381 372 
3 372 381 382 
3 372 382 373 
3 373 382 383 
3 373 383 374 
3 374 383 107 
3 374 107 106 
3 27 3 177 
3 27 177 375 
3 375 177 178 
3 375 178 376 
3 376 178 179 
3 376 179 377 
3 377 179 180 
3 377 180 378 
3 378 180 181 
3 378 181 379 
3 379 181 182 
3 379 182 380 
3 380 182 183 
3 380 183 381 
3 381 183 184 
3 381 184 382 
3 382 184 185 
3 382 185 383 
3 383 185 5 
3 383 5 107 
3 3 28 384 
3 3 384 177 
3 177 384 385 
3 177 385 178 
3 178 385 386 
3 178 386 179 
3 179 386 387 
3 179 387 180 
3 180 387 388 
3 180 388 181 
3 181 388 389 
3 181 389 182 
3 182 389 390 
3 182 390 183 
3 183 390 391 
3 183 391 184 
3 184 391 392 
3 184 392 185 
3 185 392 108 
3 185 108 5 
3 28 29 393 
3 28 393 384 
3 384 393 394 
3 384 394 385 
3 385 394 395 
3 385 395 386 
3 386 395 396 
3 386 396 387 
3 387 396 397 
3 387 397 388 
3 388 397 398 
3 388 398 389 
3 389 398 399 
3 389 399 390 
3 390 399 400 
3 390 400 391 
3 391 400 401 
3 391 401 392 
3 392 401 109 
3 392 109 108 
3 29 30 402 
3 29 402 393 
3 393 402 403 
3 393 403 394 
3 394 403 404 
3 394 404 395 
3 395 404 405 
3 395 405 396 
3 396 405 406 
3 396 406 397 
3 397 406 407 
3 397 407 398 
3 398 407 408 
3 398 408 399 
3 399 408 409 
3 399 409 400 
3 400 409 410 
3 400 410 401 
3 401 410 110 
3 401 110 109 
3 30 31 411 
3 30 411 402 
3 402 411 412 
3 402 412 403 
3 403 412 413 
3 403 413 404 
3 404 413 414 
3 404 414 405 
3 405 414 415 
3 405 415 406 
3 406 415 416 
3 406 416 407 
3 407 416 417 
3 407 417 408 
3 408 417 418 
3 408 418 409 
3 409 418 419 
3 409 419 410 
3 410 419 111 
3 410 111 110 
3 31 32 420 
3 31 420 411 
3 411 420 421 
3 411 421 412 
3 412 421 422 
3 412 422 413 
3 413 422 423 
3 413 423 414 
3 414 423 424 
3 414 424 415 
3 415 424 425 
3 415 425 416 
3 416 425 426 
3 416 426 417 
3 417 426 427 
3 417 427 418 
3 418 427 428 
3 418 428 419 
3 419 428 112 
3 419 112 111 
3 32 33 429 
3 32 429 420 
3 420 429 430 
3 420 430 421 
3 421 430 431 
3 421 431 422 
3 422 431 432 
3 422 432 423 
3 423 432 433 
3 423 433 424 
3 424 433 434 
3 424 434 425 
3 425 434 435 
3 425 435 426 
3 426 435 436 
3 426 436 427 
3 427 436 437 
3 427 437 428 
3 428 437 113 
3 428 113 112 
3 33 34 438 
3 33 438 429 
3 429 438 439 
3 429 439 430 
3 430 439 440 
3 430 440 431 
3 431 440 441 
3 431 441 432 
3 432 441 442 
3 432 442 433 
3 433 442 443 
3 433 443 434 
3 434 443 444 
3 434 444 435 
3 435 444 445 
3 435 445 436 
3 436 445 446 
3 436 446 437 
3 437 446 114 
3 437 114 113 
3 34 35 447 
3 34 447 438 
3 438 447 448 
3 438 448 439 
3 439 448 449 
3 439 449 440 
3 440 449 450 
3 440 450 441 
3 441 450 451 
3 441 451 442 
3 442 451 452 
3 442 452 443 
3 443 452 453 
3 443 453 444 
3 444 453 454 
3 444 454 445 
3 445 454 455 
3 445 455 446 
3 446 455 115 
3 446 115 114 
3 35 36 456 
3 35 456 447 
3 447 456 457 
3 447 457 448 
3 448 457 458 
3 448 458 449 
3 449 458 459 
3 449 459 450 
3 450 459 460 
3 450 460 451 
3 451 460 461 
3 451 461 452 
3 452 461 462 
3 452 462 453 
3 453 462 463 
3 453 463 454 
3 454 463 464 
3 454 464 455 
3 455 464 116 
3 455 116 115 
3 36 37 465 
3 36 465 456 
3 456 465 466 
3 456 466 457 
3 457 466 467 
3 457 467 458 
3 458 467 468 
3 458 468 459 
3 459 468 469 
3 459 469 460 
3 460 469 470 
3 460 470 461 
3 461 470 471 
3 461 471 462 
3 462 471 472 
3 462 472 463 
3 463 472 473 
3 463 473 464 
3 464 473 117 
3 464 117 116 
3 37 38 474 
3 37 474 465 
3 465 474 475 
3 465 475 466 
3 466 475 476 
3 466 476 467 
3 467 476 477 
3 467 477 468 
3 468 477 478 
3 468 478 469 
3 469 478 479 
3 469 479 470 
3 470 479 480 
3 470 480 471 
3 471 480 481 
3 471 481 472 
3 472 481 482 
3 472 482 473 
3 473 482 118 
3 473 118 117 
3 38 39 483 
3 38 483 474 
3 474 483 484 
3 474 484 475 
3 475 484 485 
3 475 485 476 
3 476 485 486 
3 476 486 477 
3 477 486 487 
3 477 487 478 
3 478 487 488 
3 478 488 479 
3 479 488 489 
3 479 489 480 
3 480 489 490 
3 480 490 481 
3 481 490 491 
3 481 491 482 
3 482 491 119 
3 482 119 118 
3 39 40 492 
3 39 492 483 
3 483 492 493 
3 483 493 484 
3 484 493 494 
3 484 494 485 
3 485 494 495 
3 485 495 486 
3 486 495 496 
3 486 496 487 
3 487 496 497 
3 487 497 488 
3 488 497 498 
3 488 498 489 
3 489 498 499 
3 489 499 490 
3 490 499 500 
3 490 500 491 
3 491 500 120 
3 491 120 119 
3 40 41 501 
3 40 501 492 
3 492 501 502 
3 492 502 493 
3 493 502 503 
3 493 503 494 
3 494 503 504 
3 494 504 495 
3 495 504 505 
3 495 505 496 
3 496 505 506 
3 496 506 497 
3 497 506 507 
3 497 507 498 
3 498 507 508 
3 498 508 499 
3 499 508 509 
3 499 509 500 
3 500 509 121 
3 500 121 120 
3 41 42 510 
3 41 510 501 
3 501 510 511 
3 501 511 502 
3 502 511 512 
3 502 512 503 
3 503 512 513 
3 503 513 504 
3 504 513 514 
3 504 514 505 
3 505 514 515 
3 505 515 506 
3 506 515 516 
3 506 516 507 
3 507 516 517 
3 507 517 508 
3 508 517 518 
3 508 518 509 
3 509 518 122 
3 509 122 121 
3 42 43 519 
3 42 519 510 
3 510 519 520 
3 510 520 511 
3 511 520 521 
3 511 521 512 
3 512 521 522 
3 512 522 513 
3 513 522 523 
3 513 523 514 
3 514 523 524 
3 514 524 515 
3 515 524 525 
3 515 525 516 
3 516 525 526 
3 516 526 517 
3 517 526 527 
3 517 527 518 
3 518 527 123 
3 518 123 122 
3 43 44 528 
3 43 528 519 
3 519 528 529 
3 519 529 520 
3 520 529 530 
3 520 530 521 
3 521 530 531 
3 521 531 522 
3 522 531 532 
3 522 532 523 
3 523 532 533 
3 523 533 524 
3 524 533 534 
3 524 534 525 
3 525 534 535 
3 525 535 526 
3 526 535 536 
3 526 536 527 
3 527 536 124 
3 527 124 123 
3 44 45 537 
3 44 537 528 
3 528 537 538 
3 528 538 529 
3 529 538 539 
3 529 539 530 
3 530 539 540 
3 530 540 531 
3 531 540 541 
3 531 541 532 
3 532 541 542 
3 532 542 533 
3 533 542 543 
3 533 543 534 
3 534 543 544 
3 534 544 535 
3 535 544 545 
3 535 545 536 
3 536 545 125 
3 536 125 124 
3 45 46 546 
3 45 546 537 
3 537 546 547 
3 537 547 538 
3 538 547 548 
3 538 548 539 
3 539 548 549 
3 539 549 540 
3 540 549 550 
3 540 550 541 
3 541 550 551 
3 541 551 542 
3 542 551 552 
3 542 552 543 
3 543 552 553 
3 543 553 544 
3 544 553 554 
3 544 554 545 
3 545 554 126 
3 545 126 125 
3 46 47 555 
3 46 555 546 
3 546 555 556 
3 546 556 547 
3 547 556 557 
3 547 557 548 
3 548 557 558 
3 548 558 549 
3 549 558 559 
3 549 559 550 
3 550 559 560 
3 550 560 551 
3 551 560 561 
3 551 561 552 
3 552 561 562 
3 552 562 553 
3 553 562 563 
3 553 563 554 
3 554 563 127 
3 554 127 126 
3 47 2 186 
3 47 186 555 
3 555 186 187 
3 555 187 556 
3 556 187 188 
3 556 188 557 
3 557 188 189 
3 557 189 558 
3 558 189 190 
3 558 190 559 
3 559 190 191 
3 559 191 560 
3 560 191 192 
3 560 192 561 
3 561 192 193 
3 561 193 562 
3 562 193 194 
3 562 194 563 
3 563 194 6 
3 563 6 127 
3 2 48 564 
3 2 564 186 
3 186 564 565 
3 186 565 187 
3 187 565 566 
3 187 566 188 
3 188 566 567 
3 188 567 189 
3 189 567 568 
3 189 568 190 
3 190 568 569 
3 190 569 191 
3 191 569 570 
3 191 570 192 
3 192 570 571 
3 192 571 193 
3 193 571 572 
3 193 572 194 
3 194 572 128 
3 194 128 6 
3 48 49 573 
3 48 573 564 
3 564 573 574 
3 564 574 565 
3 565 574 575 
3 565 575 566 
3 566 575 576 
3 566 576 567 
3 567 576 577 
3 567 577 568 
3 568 577 578 
3 568 578 569 
3 569 578 579 
3 569 579 570 
3 570 579 580 
3 570 580 571 
3 571 580 581 
3 571 581 572 
3 572 581 129 
3 572 129 128 
3 49 50 582 
3 49 582 573 
3 573 582 583 
3 573 583 574 
3 574 583 584 
3 574 584 575 
3 575 584 585 
3 575 585 576 
3 576 585 586 
3 576 586 577 
3 577 586 587 
3 577 587 578 
3 578 587 588 
3 578 588 579 
3 579 588 589 
3 579 589 580 
3 580 589 590 
3 580 590 581 
3 581 590 130 
3 581 130 129 
3 50 51 591 
3 50 591 582 
3 582 591 592 
3 582 592 583 
3 583 592 593 
3 583 593 584 
3 584 593 594 
3 584 594 585 
3 585 594 595 
3 585 595 586 
3 586 595 596 
3 586 596 587 
3 587 596 597 
3 587 597 588 
3 588 597 598 
3 588 598 589 
3 589 598 599 
3 589 599 590 
3 590 599 131 
3 590 131 130 
3 51 52 600 
3 51 600 591 
3 591 600 601 
3 591 601 592 
3 592 601 602 
3 592 602 593 
3 593 602 603 
3 593 603 594 
3 594 603 604 
3 594 604 595 
3 595 604 605 
3 595 605 596 
3 596 605 606 
3 596 606 597 
3 597 606 607 
3 597 607 598 
3 598 607 608 
3 598 608 599 
3 599 608 132 
3 599 132 131 
3 52 53 609 
3 52 609 600 
3 600 609 610 
3 600 610 601 
3 601 610 611 
3 601 611 602 
3 602 611 612 
3 602 612 603 
3 603 612 613 
3 603 613 604 
3 604 613 614 
3 604 614 605 
3 605 614 615 
3 605 615 606 
3 606 615 616 
3 606 616 607 
3 607 616 617 
3 607 617 608 
3 608 617 133 
3 608 133 132 
3 53 54 618 
3 53 618 609 
3 609 618 619 
3 609 619 610 
3 610 619 620 
3 610 620 611 
3 611 620 621 
3 611 621 612 
3 612 621 622 
3 612 622 613 
3 613 622 623 
3 613 623 614 
3 614 623 624 
3 614 624 615 
3 615 624 625 
3 615 625 616 
3 616 625 626 
3 616 626 617 
3 617 626 134 
3 617 134 133 
3 54 55 627 
3 54 627 618 
3 618 627 628 
3 618 628 619 
3 619 628 629 
3 619 629 620 
3 620 629 630 
3 620 630 621 
3 621 630 631 
3 621 631 622 
3 622 631 632 
3 622 632 623 
3 623 632 633 
3 623 633 624 
3 624 633 634 
3 624 634 625 
3 625 634 635 
3 625 635 626 
3 626 635 135 
3 626 135 134 
3 55 56 636 
3 55 636 627 
3 627 636 637 
3 627 637 628 
3 628 637 638 
3 628 638 629 
3 629 638 639 
3 629 639 630 
3 630 639 640 
3 630 640 631 
3 631 640 641 
3 631 641 632 
3 632 641 642 
3 632 642 633 
3 633 642 643 
3 633 643 634 
3 634 643 644 
3 634 644 635 
3 635 644 136 
3 635 136 135 
3 56 57 645 
3 56 645 636 
3 636 645 646 
3 636 646 637 
3 637 646 647 
3 637 647 638 
3 638 647 648 
3 638 648 639 
3 639 648 649 
3 639 649 640 
3 640 649 650 
3 640 650 641 
3 641 650 651 
3 641 651 642 
3 642 651 652 
3 642 652 643 
3 643 652 653 
3 643 653 644 
3 644 653 137 
3 644 137 136 
3 57 58 654 
3 57 654 645 
3 645 654 655 
3 645 655 646 
3 646 655 656 
3 646 656 647 
3 647 656 657 
3 647 657 648 
3 648 657 658 
3 648 658 649 
3 649 658 659 
3 649 659 650 
3 650 659 660 
3 650 660 651 
3 651 660 661 
3 651 661 652 
3 652 661 662 
3 652 662 653 
3 653 662 138 
3 653 138 137 
3 58 59 663 
3 58 663 654 
3 654 663 664 
3 654 664 655 
3 655 664 665 
3 655 665 656 
3 656 665 666 
3 656 666 657 
3 657 666 667 
3 657 667 658 
3 658 667 668 
3 658 668 659 
3 659 668 669 
3 659 669 660 
3 660 669 670 
3 660 670 661 
3 661 670 671 
3 661 671 662 
3 662 671 139 
3 662 139 138 
3 59 60 672 
3 59 672 663 
3 663 672 673 
3 663 673 664 
3 664 673 674 
3 664 674 665 
3 665 674 675 
3 665 675 666 
3 666 675 676 
3 666 676 667 
3 667 676 677 
3 667 677 668 
3 668 677 678 
3 668 678 669 
3 669 678 679 
3 669 679 670 
3 670 679 680 
3 670 680 671 
3 671 680 140 
3 671 140 139 
3 60 61 681 
3 60 681 672 
3 672 681 682 
3 672 682 673 
3 673 682 683 
3 673 683 674 
3 674 683 684 
3 674 684 675 
3 675 684 685 
3 675 685 676 
3 676 685 686 
3 676 686 677 
3 677 686 687 
3 677 687 678 
3 678 687 688 
3 678 688 679 
3 679 688 689 
3 679 689 680 
3 680 689 141 
3 680 141 140 
3 61 62 690 
3 61 690 681 
3 681 690 691 
3 681 691 682 
3 682 691 692 
3 682 692 683 
3 683 692 693 
3 683 693 684 
3 684 693 694 
3 684 694 685 
3 685 694 695 
3 685 695 686 
3 686 695 696 
3 686 696 687 
3 687 696 697 
3 687 697 688 
3 688 697 698 
3 688 698 689 
3 689 698 142 
3 689 142 141 
3 62 63 699 
3 62 699 690 
3 690 699 700 
3 690 700 691 
3 691 700 701 
3 691 701 692 
3 692 701 702 
3 692 702 693 
3 693 702 703 
3 693 703 694 
3 694 703 704 
3 694 704 695 
3 695 704 705 
3 695 705 696 
3 696 705 706 
3 696 706 697 
3 697 706 707 
3 697 707 698 
3 698 707 143 
3 698 143 142 
3 63 64 708 
3 63 708 699 
3 699 708 709 
3 699 709 700 
3 700 709 710 
3 700 710 701 
3 701 710 711 
3 701 711 702 
3 702 711 712 
3 702 712 703 
3 703 712 713 
3 703 713 704 
3 704 713 714 
3 704 714 705 
3 705 714 715 
3 705 715 706 
3 706 715 716 
3 706 716 707 
3 707 716 144 
3 707 144 143 
3 64 65 717 
3 64 717 708 
3 708 717 718 
3 708 718 709 
3 709 718 719 
3 709 719 710 
3 710 719 720 
3 710 720 711 
3 711 720 721 
3 711 721 712 
3 712 721 722 
3 712 722 713 
3 713 722 723 
3 713 723 714 
3 714 723 724 
3 714 724 715 
3 715 724 725 
3 715 725 716 
3 716 725 145 
3 716 145 144 
3 65 66 726 
3 65 726 717 
3 717 726 727 
3 717 727 718 
3 718 727 728 
3 718 728 719 
3 719 728 729 
3 719 729 720 
3 720 729 730 
3 720 730 721 
3 721 730 731 
3 721 731 722 
3 722 731 732 
3 722 732 723 
3 723 732 733 
3 723 733 724 
3 724 733 734 
3 724 734 725 
3 725 734 146 
3 725 146 145 
3 66 67 735 
3 66 735 726 
3 726 735 736 
3 726 736 727 
3 727 736 737 
3 727 737 728 
3 728 737 738 
3 728 738 729 
3 729 738 739 
3 729 739 730 
3 730 739 740 
3 730 740 731 
3 731 740 741 
3 731 741 732 
3 732 741 742 
3 732 742 733 
3 733 742 743 
3 733 743 734 
3 734 743 147 
3 734 147 146 
3 67 1 195 
3 67 195 735 
3 735 195 196 
3 735 196 736 
3 736 196 197 
3 736 197 737 
3 737 197 198 
3 737 198 738 
3 738 198 199 
3 738 199 739 
3 739 199 200 
3 739 200 740 
3 740 200 201 
3 740 201 741 
3 741 201 202 
3 741 202 742 
3 742 202 203 
3 742 203 743 
3 743 203 7 
3 743 7 147 
3 1 68 744 
3 1 744 195 
3 195 744 745 
3 195 745 196 
3 196 745 746 
3 196 746 197 
3 197 746 747 
3 197 747 198 
3 198 747 748 
3 198 748 199 
3 199 748 749 
3 199 749 200 
3 200 749 750 
3 200 750 201 
3 201 750 751 
3 201 751 202 
3 202 751 752 
3 202 752 203 
3 203 752 148 
3 203 148 7 
3 68 69 753 
3 68 753 744 
3 744 753 754 
3 744 754 745 
3 745 754 755 
3 745 755 746 
3 746 755 756 
3 746 756 747 
3 747 756 757 
3 747 757 748 
3 748 757 758 
3 748 758 749 
3 749 758 759 
3 749 759 750 
3 750 759 760 
3 750 760 751 
3 751 760 761 
3 751 761 752 
3 752 761 149 
3 752 149 148 
3 69 70 762 
3 69 762 753 
3 753 762 763 
3 753 763 754 
3 754 763 764 
3 754 764 755 
3 755 764 765 
3 755 765 756 
3 756 765 766 
3 756 766 757 
3 757 766 767 
3 757 767 758 
3 758 767 768 
3 758 768 759 
3 759 768 769 
3 759 769 760 
3 760 769 770 
3 760 770 761 
3 761 770 150 
3 761 150 149 
3 70 71 771 
3 70 771 762 
3 762 771 772 
3 762 772 763 
3 763 772 773 
3 763 773 764 
3 764 773 774 
3 764 774 765 
3 765 774 775 
3 765 775 766 
3 766 775 776 
3 766 776 767 
3 767 776 777 
3 767 777 768 
3 768 777 778 
3 768 778 769 
3 769 778 779 
3 769 779 770 
3 770 779 151 
3 770 151 150 
3 71 72 780 
3 71 780 771 
3 771 780 781 
3 771 781 772 
3 772 781 782 
3 772 782 773 
3 773 782 783 
3 773 783 774 
3 774 783 784 
3 774 784 775 
3 775 784 785 
3 775 785 776 
3 776 785 786 
3 776 786 777 
3 777 786 787 
3 777 787 778 
3 778 787 788 
3 778 788 779 
3 779 788 152 
3 779 152 151 
3 72 73 789 
3 72 789 780 
3 780 789 790 
3 780 790 781 
3 781 790 791 
3 781 791 782 
3 782 791 792 
3 782 792 783 
3 783 792 793 
3 783 793 784 
3 784 793 794 
3 784 794 785 
3 785 794 795 
3 785 795 786 
3 786 795 796 
3 786 796 787 
3 787 796 797 
3 787 797 788 
3 788 797 153 
3 788 153 152 
3 73 74 798 
3 73 798 789 
3 789 798 799 
3 789 799 790 
3 790 799 800 
3 790 800 791 
3 791 800 801 
3 791 801 792 
3 792 801 802 
3 792 802 793 
3 793 802 803 
3 793 803 794 
3 794 803 804 
3 794 804 795 
3 795 804 805 
3 795 805 796 
3 796 805 806 
3 796 806 797 
3 797 806 154 
3 797 154 153 
3 74 75 807 
3 74 807 798 
3 798 807 808 
3 798 808 799 
3 799 808 809 
3 799 809 800 
3 800 809 810 
3 800 810 801 
3 801 810 811 
3 801 811 802 
3 802 811 812 
3 802 812 803 
3 803 812 813 
3 803 813 804 
3 804 813 814 
3 804 814 805 
3 805 814 815 
3 805 815 806 
3 806 815 155 
3 806 155 154 
3 75 76 816 
3 75 816 807 
3 807 816 817 
3 807 817 808 
3 808 817 818 
3 808 818 809 
3 809 818 819 
3 809 819 810 
3 810 819 820 
3 810 820 811 
3 811 820 821 
3 811 821 812 
3 812 821 822 
3 812 822 813 
3 813 822 823 
3 813 823 814 
3 814 823 824 
3 814 824 815 
3 815 824 156 
3 815 156 155 
3 76 77 825 
3 76 825 816 
3 816 825 826 
3 816 826 817 
3 817 826 827 
3 817 827 818 
3 818 827 828 
3 818 828 819 
3 819 828 829 
3 819 829 820 
3 820 829 830 
3 820 830 821 
3 821 830 831 
3 821 831 822 
3 822 831 832 
3 822 832 823 
3 823 832 833 
3 823 833 824 
3 824 833 157 
3 824 157 156 
3 77 78 834 
3 77 834 825 
3 825 834 835 
3 825 835 826 
3 826 835 836 
3 826 836 827 
3 827 836 837 
3 827 837 828 
3 828 837 838 
3 828 838 829 
3 829 838 839 
3 829 839 830 
3 830 839 840 
3 830 840 831 
3 831 840 841 
3 831 841 832 
3 832 841 842 
3 832 842 833 
3 833 842 158 
3 833 158 157 
3 78 79 843 
3 78 843 834 
3 834 843 844 
3 834 844 835 
3 835 844 845 
3 835 845 836 
3 836 845 846 
3 836 846 837 
3 837 846 847 
3 837 847 838 
3 838 847 848 
3 838 848 839 
3 839 848 849 
3 839 849 840 
3 840 849 850 
3 840 850 841 
3 841 850 851 
3 841 851 842 
3 842 851 159 
3 842 159 158 
3 79 80 852 
3 79 852 843 
3 843 852 853 
3 843 853 844 
3 844 853 854 
3 844 854 845 
3 845 854 855 
3 845 855 846 
3 846 855 856 
3 846 856 847 
3 847 856 857 
3 847 857 848 
3 848 857 858 
3 848 858 849 
3 849 858 859 
3 849 859 850 
3 850 859 860 
3 850 860 851 
3 851 860 160 
3 851 160 159 
3 80 81 861 
3 80 861 852 
3 852 861 862 
3 852 862 853 
3 853 862 863 
3 853 863 854 
3 854 863 864 
3 854 864 855 
3 855 864 865 
3 855 865 856 
3 856 865 866 
3 856 866 857 
3 857 866 867 
3 857 867 858 
3 858 867 868 
3 858 868 859 
3 859 868 869 
3 859 869 860 
3 860 869 161 
3 860 161 160 
3 81 82 870 
3 81 870 861 
3 861 870 871 
3 861 871 862 
3 862 871 872 
3 862 872 863 
3 863 872 873 
3 863 873 864 
3 864 873 874 
3 864 874 865 
3 865 874 875 
3 865 875 866 
3 866 875 876 
3 866 876 867 
3 867 876 877 
3 867 877 868 
3 868 877 878 
3 868 878 869 
3 869 878 162 
3 869 162 161 
3 82 83 879 
3 82 879 870 
3 870 879 880 
3 870 880 871 
3 871 880 881 
3 871 881 872 
3 872 881 882 
3 872 882 873 
3 873 882 883 
3 873 883 874 
3 874 883 884 
3 874 884 875 
3 875 884 885 
3 875 885 876 
3 876 885 886 
3 876 886 877 
3 877 886 887 
3 877 887 878 
3 878 887 163 
3 878 163 162 
3 83 84 888 
3 83 888 879 
3 879 888 889 
3 879 889 880 
3 880 889 890 
3 880 890 881 
3 881 890 891 
3 881 891 882 
3 882 891 892 
3 882 892 883 
3 883 892 893 
3 883 893 884 
3 884 893 894 
3 884 894 885 
3 885 894 895 
3 885 895 886 
3 886 895 896 
3 886 896 887 
3 887 896 164 
3 887 164 163 
3 84 85 897 
3 84 897 888 
3 888 897 898 
3 888 898 889 
3 889 898 899 
3 889 899 890 
3 890 899 900 
3 890 900 891 
3 891 900 901 
3 891 901 892 
3 892 901 902 
3 892 902 893 
3 893 902 903 
3 893 903 894 
3 894 903 904 
3 894 904 895 
3 895 904 905 
3 895 905 896 
3 896 905 165 
3 896 165 164 
3 85 86 906 
3 85 906 897 
3 897 906 907 
3 897 907 898 
3 898 907 908 
3 898 908 899 
3 899 908 909 
3 899 909 900 
3 900 909 910 
3 900 910 901 
3 901 910 911 
3 901 911 902 
3 902 911 912 
3 902 912 903 
3 903 912 913 
3 903 913 904 
3 904 913 914 
3 904 914 905 
3 905 914 166 
3 905 166 165 
3 86 87 915 
3 86 915 906 
3 906 915 916 
3 906 916 907 
3 907 916 917 
3 907 917 908 
3 908 917 918 
3 908 918 909 
3 909 918 919 
3 909 919 910 
3 910 919 920 
3 910 920 911 
3 911 920 921 
3 911 921 912 
3 912 921 922 
3 912 922 913 
3 913 922 923 
3 913 923 914 
3 914 923 167 
3 914 167 166 
3 87 0 168 
3 87 168 915 
3 915 168 169 
3 915 169 916 
3 916 169 170 
3 916 170 917 
3 917 170 171 
3 917 171 918 
3 918 171 172 
3 918 172 919 
3 919 172 173 
3 919 173 920 
3 920 173 174 
3 920 174 921 
3 921 174 175 
3 921 175 922 
3 922 175 176 
3 922 176 923 
3 923 176 4 
3 923 4 167 
3 945 1175 1357 
3 93 933 1206 
3 1189 939 1192 
3 931 1151 1280 
3 1264 934 1271 
3 1188 939 1189 
3 949 1160 1281 
3 1175 945 1377 
3 1171 933 1275 
3 955 1159 1225 
3 934 1264 1365 
3 1215 1358 1369 
3 1061 1135 1188 
3 125 126 1192 
3 123 124 1187 
3 122 123 1178 
3 1178 123 1187 
3 947 1154 1155 
3 946 1156 1157 
3 112 113 1184 
3 109 110 1185 
3 1358 1215 1386 
3 1180 1155 1244 
3 1159 955 1360 
3 1153 935 1195 
3 929 1152 1194 
3 1151 931 1378 
3 950 1170 1291 
3 1174 944 1176 
3 1183 927 1363 
3 1221 1288 1373 
3 1288 1221 1384 
3 1281 1160 1376 
3 118 119 1179 
3 114 115 1181 
3 1123 1125 1186 
3 120 121 1182 
3 116 117 1183 
3 1132 1092 1222 
3 92 93 1206 
3 928 1369 1371 
3 148 149 1223 
3 88 89 1199 
3 924 1162 1170 
3 1173 925 1174 
3 1206 933 1366 
3 927 1180 1363 
3 1171 1275 1375 
3 1225 1159 1372 
3 1068 1180 1244 
3 1328 1191 1362 
3 1062 1061 1188 
3 1092 1094 1222 
3 1154 947 1182 
3 1156 946 1183 
3 947 1155 1179 
3 946 1157 1181 
3 1158 942 1186 
3 1369 1177 1371 
3 126 954 1192 
3 939 125 1192 
3 929 122 1178 
3 1152 929 1178 
3 124 939 1187 
3 935 1153 1184 
3 113 935 1184 
3 942 1158 1185 
3 110 942 1185 
3 1219 941 1220 
3 1200 940 1202 
3 112 1184 1193 
3 1135 1187 1188 
3 1176 944 1177 
3 148 1223 1390 
3 88 1199 1391 
3 1138 1186 1193 
3 1179 1155 1180 
3 925 1173 1175 
3 1362 1191 1393 
3 1148 1227 1383 
3 935 1181 1195 
3 1182 929 1194 
3 927 118 1179 
3 119 947 1179 
3 935 114 1181 
3 115 946 1181 
3 1138 1123 1186 
3 1125 1158 1186 
3 121 929 1182 
3 947 120 1182 
3 946 116 1183 
3 117 927 1183 
3 1220 941 1221 
3 1202 940 1203 
3 1184 1138 1193 
3 933 1171 1366 
3 1264 1265 1365 
3 945 1357 1368 
3 1185 1159 1360 
3 1170 950 1381 
3 944 1174 1382 
3 109 1185 1360 
3 1160 949 1367 
3 1280 1151 1367 
3 1264 1271 1368 
3 1358 1177 1369 
3 1227 1207 1383 
3 1174 925 1382 
3 924 1170 1381 
3 1132 1222 1373 
3 1227 1148 1378 
3 1162 924 1376 
3 1202 1203 1204 
3 950 1291 1375 
3 1215 1213 1323 
3 1062 1188 1189 
3 1220 1221 1222 
3 1204 1203 1205 
3 1186 942 1193 
3 1054 1122 1196 
3 1137 1194 1344 
3 1187 939 1188 
3 1175 1173 1355 
3 942 111 1193 
3 111 112 1193 
3 1195 1157 1356 
3 927 1179 1180 
3 1196 1195 1356 
3 1181 1157 1195 
3 1154 1182 1194 
3 1053 1054 1196 
3 1194 1152 1344 
3 1137 1154 1194 
3 1122 1153 1196 
3 1176 1177 1358 
3 1062 1189 1190 
3 940 1200 1379 
3 941 1219 1380 
3 1204 1205 1350 
3 1205 1172 1350 
3 1190 1189 1191 
3 1205 1203 1206 
3 1153 1195 1196 
3 1222 1094 1374 
3 1065 1202 1204 
3 1065 1201 1202 
3 959 958 1201 
3 963 961 1237 
3 1065 959 1201 
3 958 1198 1201 
3 1041 963 1237 
3 961 1065 1237 
3 958 1197 1198 
3 166 953 1197 
3 1210 1217 1218 
3 1212 1209 1224 
3 1214 928 1226 
3 1197 953 1198 
3 146 952 1216 
3 1210 1216 1217 
3 1237 1204 1350 
3 1216 952 1217 
3 165 166 1197 
3 1209 1210 1224 
3 1217 952 1223 
3 1065 1204 1237 
3 145 146 1216 
3 928 142 1226 
3 938 105 1225 
3 142 143 1226 
3 956 936 957 
3 104 938 1207 
3 1208 937 1209 
3 1211 1214 1226 
3 1198 953 1199 
3 1218 1217 1219 
3 103 104 1207 
3 1210 1218 1224 
3 144 937 1208 
3 1208 1209 1211 
3 1208 1211 1226 
3 164 936 956 
3 164 165 936 
3 104 105 938 
3 1198 1199 1200 
3 163 164 956 
3 143 144 1208 
3 106 955 1225 
3 1218 1219 1220 
3 931 102 1227 
3 102 103 1227 
3 103 1207 1227 
3 143 1208 1226 
3 1201 1200 1202 
3 1229 1069 1230 
3 144 145 937 
3 124 125 939 
3 1228 1229 1230 
3 162 163 1228 
3 930 162 1228 
3 956 957 1229 
3 936 165 1197 
3 126 127 954 
3 957 958 959 
3 106 107 955 
3 1211 1213 1214 
3 957 959 960 
3 1198 1200 1201 
3 1211 1209 1212 
3 1211 1212 1213 
3 146 147 952 
3 105 106 1225 
3 166 167 953 
3 992 1249 1261 
3 1249 1247 1261 
3 957 936 958 
3 1247 1045 1261 
3 1209 937 1210 
3 1045 1248 1267 
3 1045 1247 1248 
3 1258 1143 1334 
3 960 959 961 
3 1214 1213 1215 
3 1243 1025 1300 
3 1249 992 1294 
3 937 145 1216 
3 981 1317 1329 
3 1025 1243 1293 
3 163 956 1228 
3 1135 1063 1152 
3 1230 1069 1232 
3 1051 1144 1236 
3 1136 1051 1244 
3 1236 1144 1276 
3 1152 1063 1344 
3 1155 1136 1244 
3 1051 1236 1244 
3 930 1228 1230 
3 1260 1143 1294 
3 1292 1245 1298 
3 1117 1246 1297 
3 1240 1243 1300 
3 1117 1238 1246 
3 1117 1070 1238 
3 992 1260 1294 
3 1144 1246 1276 
3 1238 1070 1239 
3 1246 1144 1297 
3 1150 1119 1311 
3 1070 1071 1239 
3 960 961 962 
3 1087 1086 1245 
3 1008 1234 1319 
3 930 1230 1231 
3 1219 1217 1223 
3 1119 1292 1298 
3 969 1008 1319 
3 1089 1092 1093 
3 1119 1298 1311 
3 965 1041 1331 
3 1041 1233 1331 
3 1143 1260 1334 
3 1086 1089 1245 
3 1242 1317 1325 
3 961 959 1065 
3 964 1027 1250 
3 960 962 1069 
3 1243 1242 1325 
3 141 142 928 
3 1228 956 1229 
3 121 122 929 
3 1239 1240 1300 
3 1232 1069 1250 
3 1089 1093 1245 
3 1338 999 1339 
3 1093 1132 1133 
3 962 961 963 
3 1146 1083 1258 
3 1239 1071 1240 
3 1093 1092 1132 
3 1248 1338 1339 
3 1317 1242 1329 
3 1098 1290 1294 
3 1245 1093 1298 
3 962 963 964 
3 1069 962 1250 
3 962 964 1250 
3 964 963 965 
3 1253 1073 1285 
3 1122 1138 1153 
3 1254 1253 1285 
3 1233 1327 1331 
3 1151 1112 1256 
3 1101 1108 1257 
3 1027 966 1252 
3 965 963 1041 
3 968 999 1252 
3 964 966 1027 
3 964 965 966 
3 1108 1251 1257 
3 1251 1131 1257 
3 1290 1249 1294 
3 1153 1138 1184 
3 1083 1084 1085 
3 1109 1254 1285 
3 966 965 967 
3 1254 1109 1286 
3 1306 1255 1307 
3 1001 1312 1324 
3 1085 1084 1086 
3 1145 1306 1307 
3 1085 1086 1087 
3 966 968 1252 
3 1087 1245 1292 
3 1081 1083 1146 
3 1143 1098 1294 
3 1006 1035 1046 
3 1003 1006 1255 
3 1096 1087 1097 
3 1112 1049 1256 
3 1154 1136 1155 
3 998 1003 1255 
3 966 967 968 
3 969 967 1008 
3 1142 1112 1151 
3 1098 1097 1099 
3 1146 1258 1334 
3 1234 1235 1319 
3 1096 1097 1098 
3 968 967 969 
3 1103 1101 1257 
3 1253 1145 1308 
3 1158 1159 1185 
3 1085 1087 1096 
3 1145 1307 1308 
3 1099 1100 1101 
3 1108 1150 1251 
3 975 1009 1259 
3 1101 1100 1108 
3 1099 1097 1100 
3 1009 1072 1259 
3 1240 1071 1241 
3 968 969 970 
3 1009 1001 1010 
3 970 969 971 
3 1130 1106 1131 
3 1006 1046 1255 
3 975 1001 1009 
3 1266 1272 1286 
3 972 971 973 
3 1046 1035 1047 
3 1049 1058 1256 
3 1107 1106 1130 
3 1028 1038 1049 
3 970 971 972 
3 1096 1098 1143 
3 1170 1163 1291 
3 1083 1082 1084 
3 975 973 1001 
3 1110 1038 1274 
3 1058 1140 1160 
3 1013 1012 1015 
3 1073 1253 1308 
3 1012 1010 1014 
3 1093 1133 1298 
3 1012 1014 1274 
3 1235 1312 1319 
3 1028 1015 1038 
3 1168 1169 1171 
3 1022 1018 1262 
3 1272 1254 1286 
3 1046 1047 1048 
3 1049 1038 1058 
3 1266 988 1272 
3 1018 1016 1262 
3 1016 1015 1028 
3 1009 1010 1011 
3 974 976 977 
3 1038 1015 1274 
3 1011 1010 1012 
3 972 973 974 
3 1048 1047 1055 
3 1107 1130 1289 
3 1162 1163 1170 
3 1058 1110 1140 
3 1105 1103 1106 
3 1140 1141 1162 
3 1083 1085 1258 
3 974 973 975 
3 1056 1055 1059 
3 1102 1101 1103 
3 977 978 979 
3 968 970 999 
3 977 976 978 
3 1004 1002 1026 
3 1011 1012 1013 
3 982 984 992 
3 1099 1102 1290 
3 1048 1055 1056 
3 1006 1007 1035 
3 1055 1047 1064 
3 1108 1119 1150 
3 1263 1064 1264 
3 1111 1049 1112 
3 1114 1247 1249 
3 982 992 1261 
3 1106 1103 1257 
3 1096 1143 1258 
3 974 975 976 
3 985 988 1266 
3 971 969 1319 
3 1013 1015 1016 
3 1099 1101 1102 
3 979 980 982 
3 1050 1051 1136 
3 1327 1008 1331 
3 1102 1114 1290 
3 1293 1243 1325 
3 1056 1059 1060 
3 1030 1026 1031 
3 1017 1019 1293 
3 976 975 1259 
3 982 983 984 
3 1234 1008 1327 
3 1273 1117 1297 
3 998 1255 1306 
3 1059 1055 1263 
3 1028 1049 1111 
3 978 981 1278 
3 1055 1064 1263 
3 990 989 991 
3 1030 1031 1050 
3 1058 1160 1256 
3 1240 1242 1243 
3 989 1115 1283 
3 981 976 1259 
3 957 960 1229 
3 1036 1043 1304 
3 1026 1002 1273 
3 1067 1118 1156 
3 1139 1075 1173 
3 984 985 987 
3 135 945 1271 
3 984 987 1260 
3 987 985 1266 
3 113 114 935 
3 985 986 988 
3 1139 1173 1174 
3 979 978 980 
3 979 982 1261 
3 1050 1031 1051 
3 988 989 990 
3 998 996 1002 
3 994 996 998 
3 115 116 946 
3 134 135 1271 
3 993 991 994 
3 1058 1038 1110 
3 1044 1066 1276 
3 984 983 985 
3 990 991 993 
3 1076 1075 1139 
3 1074 1060 1075 
3 980 1278 1282 
3 1131 1106 1257 
3 1140 1110 1141 
3 1032 1053 1270 
3 1098 1099 1290 
3 1105 1106 1107 
3 982 980 983 
3 988 986 989 
3 1004 1026 1030 
3 1074 1075 1076 
3 1165 1167 1168 
3 1000 1253 1254 
3 1240 1241 1242 
3 1026 1273 1297 
3 990 993 1000 
3 992 984 1260 
3 978 976 981 
3 117 118 927 
3 1066 1067 1068 
3 1017 1016 1018 
3 1067 1052 1118 
3 994 995 996 
3 1021 1023 1024 
3 137 138 925 
3 93 94 933 
3 1016 1028 1262 
3 1066 1236 1276 
3 1000 1145 1253 
3 980 978 1278 
3 1000 993 1145 
3 1073 1060 1074 
3 988 990 1272 
3 1044 1033 1052 
3 1066 1052 1067 
3 139 140 944 
3 1162 1141 1163 
3 119 120 947 
3 1009 1011 1072 
3 1056 1060 1073 
3 1274 1014 1299 
3 1077 1076 1078 
3 1255 1046 1307 
3 1021 1020 1023 
3 1013 1017 1268 
3 1024 1032 1033 
3 1013 1016 1017 
3 985 983 986 
3 1051 1031 1144 
3 133 134 934 
3 989 986 1115 
3 933 94 1275 
3 135 136 945 
3 95 96 950 
3 997 1070 1117 
3 1163 1165 1291 
3 99 100 949 
3 1246 1057 1276 
3 1019 1020 1021 
3 1024 1023 1032 
3 1165 1168 1291 
3 934 134 1271 
3 1019 1018 1020 
3 97 98 924 
3 1045 979 1261 
3 1076 1139 1296 
3 161 162 930 
3 996 995 997 
3 1017 1018 1019 
3 1019 1025 1293 
3 977 1045 1267 
3 1077 1078 1079 
3 1114 1249 1290 
3 1073 1074 1285 
3 1025 1021 1295 
3 159 160 948 
3 997 1037 1070 
3 997 1117 1273 
3 1156 1118 1157 
3 98 99 1281 
3 1238 1057 1246 
3 977 979 1045 
3 1015 1012 1274 
3 994 991 995 
3 1074 1077 1285 
3 1236 1068 1244 
3 1025 1295 1300 
3 1039 1033 1044 
3 1044 1052 1066 
3 924 98 1281 
3 1078 1076 1296 
3 949 100 1280 
3 991 989 1283 
3 94 95 1275 
3 974 977 1267 
3 986 983 1282 
3 95 950 1275 
3 101 102 931 
3 1074 1076 1077 
3 983 980 1282 
3 157 158 926 
3 1057 1044 1276 
3 997 995 1037 
3 1000 1254 1272 
3 1072 1011 1268 
3 1052 1033 1270 
3 1020 1018 1022 
3 1024 1033 1039 
3 99 949 1281 
3 1268 1017 1293 
3 990 1000 1272 
3 1070 1037 1071 
3 1066 1068 1236 
3 155 156 951 
3 153 154 932 
3 158 159 1279 
3 1077 1109 1285 
3 926 158 1279 
3 1081 1082 1083 
3 1036 1042 1043 
3 1002 996 1273 
3 1116 1057 1238 
3 1077 1079 1109 
3 1118 1052 1270 
3 159 948 1279 
3 981 1259 1317 
3 1033 1032 1270 
3 1085 1096 1258 
3 1011 1013 1268 
3 1039 1044 1057 
3 995 991 1283 
3 154 155 1287 
3 156 157 1284 
3 1019 1021 1025 
3 1115 986 1282 
3 100 101 1280 
3 1122 1123 1138 
3 1039 1057 1116 
3 932 154 1287 
3 1095 1078 1296 
3 1116 1238 1239 
3 1097 1087 1292 
3 1028 1111 1262 
3 1021 1024 1295 
3 951 156 1284 
3 1316 1115 1320 
3 157 926 1284 
3 1056 1073 1308 
3 996 997 1273 
3 1114 1129 1247 
3 101 931 1280 
3 1037 995 1283 
3 1031 1026 1297 
3 1128 1107 1289 
3 1108 1100 1119 
3 1032 1034 1053 
3 1295 1116 1300 
3 1145 993 1306 
3 1102 1103 1104 
3 1064 1047 1303 
3 1104 1103 1105 
3 1029 1005 1269 
3 155 951 1287 
3 972 974 1267 
3 994 998 1306 
3 973 971 1312 
3 1139 1174 1176 
3 1024 1039 1295 
3 1139 1176 1296 
3 1312 1235 1324 
3 1135 1152 1178 
3 1144 1031 1297 
3 1003 1002 1004 
3 960 1069 1229 
3 1110 1274 1299 
3 1039 1116 1295 
3 1247 1129 1248 
3 1003 1005 1006 
3 1102 1104 1114 
3 1116 1239 1300 
3 1047 1035 1303 
3 1063 1040 1305 
3 1168 1167 1169 
3 1163 1141 1164 
3 1141 1110 1299 
3 132 133 1277 
3 1163 1164 1165 
3 133 934 1277 
3 1081 1146 1315 
3 1004 1030 1269 
3 1054 1121 1122 
3 1234 1166 1235 
3 1089 1090 1092 
3 1114 1104 1129 
3 993 994 1306 
3 1127 1107 1128 
3 1100 1097 1292 
3 1032 1023 1034 
3 1231 1230 1232 
3 1046 1048 1307 
3 998 1002 1003 
3 1105 1107 1127 
3 1048 1056 1308 
3 1061 1040 1063 
3 1171 1169 1172 
3 1007 1005 1029 
3 1252 999 1336 
3 1023 1020 1309 
3 1020 1022 1309 
3 1283 1115 1316 
3 1164 1141 1299 
3 1165 1166 1167 
3 1307 1048 1308 
3 1165 1164 1166 
3 1109 1079 1315 
3 1104 1105 1310 
3 1241 1071 1316 
3 1006 1005 1007 
3 1071 1037 1316 
3 1005 1004 1269 
3 1035 1007 1304 
3 1167 1166 1234 
3 1022 1262 1314 
3 1003 1004 1005 
3 1001 973 1312 
3 1241 1316 1320 
3 1282 1278 1320 
3 1286 1109 1315 
3 1113 1112 1142 
3 1137 1136 1154 
3 1007 1029 1036 
3 1119 1100 1292 
3 1298 1133 1311 
3 1054 1034 1120 
3 1278 981 1329 
3 1129 1104 1310 
3 1111 1112 1113 
3 1053 1034 1054 
3 1264 1064 1265 
3 1105 1127 1310 
3 1034 1023 1309 
3 1299 1014 1318 
3 1267 1248 1339 
3 1303 1035 1304 
3 1265 1064 1303 
3 1172 1169 1233 
3 987 1266 1321 
3 1007 1036 1304 
3 1030 1050 1313 
3 1054 1120 1121 
3 1120 1034 1309 
3 1050 1136 1137 
3 1122 1121 1123 
3 1010 1001 1324 
3 1323 1322 1335 
3 152 153 1288 
3 1262 1111 1314 
3 1259 1072 1317 
3 153 932 1288 
3 1318 1014 1324 
3 1235 1318 1324 
3 1029 1269 1305 
3 1269 1030 1313 
3 1235 1166 1318 
3 1164 1299 1318 
3 1037 1283 1316 
3 1250 1027 1332 
3 1268 1293 1325 
3 1079 1081 1315 
3 1080 1078 1095 
3 1266 1286 1321 
3 1147 1142 1148 
3 1312 971 1319 
3 1115 1282 1320 
3 1113 1147 1149 
3 967 965 1331 
3 1084 1082 1322 
3 1166 1164 1318 
3 1315 1146 1321 
3 1027 1252 1333 
3 1022 1314 1326 
3 999 970 1339 
3 1113 1149 1314 
3 987 1321 1334 
3 1090 1088 1091 
3 1111 1113 1314 
3 1167 1234 1327 
3 1086 1088 1089 
3 1123 1121 1124 
3 1081 1080 1082 
3 1061 1063 1135 
3 1336 999 1338 
3 1014 1010 1324 
3 1233 1169 1327 
3 1050 1137 1313 
3 1125 1134 1158 
3 1317 1072 1325 
3 1286 1315 1321 
3 972 1267 1339 
3 1079 1078 1080 
3 1242 1241 1329 
3 1072 1268 1325 
3 1079 1080 1081 
3 930 1231 1340 
3 1091 1322 1323 
3 1309 1022 1326 
3 131 132 1301 
3 1248 1129 1338 
3 1305 1269 1313 
3 948 160 1340 
3 1113 1142 1147 
3 1086 1084 1088 
3 1303 1304 1330 
3 1092 1090 1094 
3 1169 1167 1327 
3 1301 1277 1302 
3 161 930 1340 
3 132 1277 1301 
3 1332 1027 1333 
3 1333 1252 1336 
3 1091 1088 1322 
3 1241 1320 1329 
3 1128 1332 1333 
3 1320 1278 1329 
3 1322 1082 1335 
3 1120 1309 1326 
3 1260 987 1334 
3 1232 1250 1332 
3 1210 937 1216 
3 1321 1146 1334 
3 110 111 942 
3 1314 1149 1326 
3 1008 967 1331 
3 1127 1128 1333 
3 90 91 940 
3 1120 1326 1337 
3 1265 1303 1330 
3 1123 1124 1125 
3 1124 1121 1337 
3 1304 1043 1330 
3 1088 1084 1322 
3 1310 1127 1336 
3 1127 1333 1336 
3 1326 1149 1337 
3 970 972 1339 
3 1036 1029 1040 
3 1089 1088 1090 
3 1121 1120 1337 
3 130 131 943 
3 1080 1095 1335 
3 1129 1310 1338 
3 150 151 941 
3 1310 1336 1338 
3 1040 1029 1305 
3 1036 1040 1042 
3 1082 1080 1335 
3 160 161 1340 
3 1125 1124 1126 
3 129 130 1328 
3 958 936 1197 
3 1128 1289 1341 
3 1332 1128 1341 
3 1231 1232 1341 
3 1042 1061 1062 
3 1158 1134 1159 
3 1126 1124 1343 
3 1134 1126 1161 
3 1232 1332 1341 
3 943 131 1301 
3 1125 1126 1134 
3 1149 1147 1343 
3 1124 1337 1343 
3 1337 1149 1343 
3 1042 1040 1061 
3 1305 1313 1344 
3 1063 1305 1344 
3 1301 1302 1342 
3 1313 1137 1344 
3 1135 1178 1187 
3 130 943 1328 
3 1161 1126 1345 
3 1147 1148 1345 
3 1341 1289 1346 
3 1126 1343 1345 
3 1343 1147 1345 
3 943 1301 1342 
3 1346 1289 1347 
3 1231 1341 1346 
3 948 1340 1346 
3 948 1346 1347 
3 1340 1231 1346 
3 1289 1130 1347 
3 1279 948 1347 
3 1233 1041 1350 
3 1041 1237 1350 
3 1347 1130 1348 
3 1279 1347 1348 
3 1130 1131 1348 
3 926 1279 1348 
3 1348 1131 1349 
3 926 1348 1349 
3 1131 1251 1349 
3 1284 926 1349 
3 1172 1233 1350 
3 1284 1349 1351 
3 1349 1251 1351 
3 951 1284 1351 
3 1251 1150 1351 
3 1351 1150 1352 
3 951 1351 1352 
3 1150 1311 1352 
3 1287 951 1352 
3 1287 1352 1353 
3 1352 1311 1353 
3 932 1287 1353 
3 1311 1133 1353 
3 932 1353 1354 
3 1353 1133 1354 
3 1133 1132 1354 
3 1288 932 1354 
3 1180 1068 1363 
3 1173 1075 1355 
3 1060 1059 1355 
3 1053 1196 1356 
3 1157 1118 1356 
3 1270 1053 1356 
3 108 109 1360 
3 1075 1060 1355 
3 1355 1059 1357 
3 938 1372 1396 
3 1118 1270 1356 
3 1330 1043 1361 
3 1156 1183 1363 
3 1175 1355 1357 
3 1296 1176 1358 
3 1323 1213 1387 
3 1090 1091 1359 
3 1372 1161 1396 
3 1330 1361 1392 
3 1212 1224 1394 
3 128 129 1362 
3 1189 1192 1393 
3 1059 1263 1357 
3 1095 1296 1358 
3 1220 1222 1374 
3 1177 944 1371 
3 1068 1067 1363 
3 1359 1212 1394 
3 1191 1189 1393 
3 1062 1190 1364 
3 1042 1062 1364 
3 925 1175 1377 
3 1302 1277 1365 
3 931 1227 1378 
3 1094 1090 1359 
3 1221 941 1384 
3 1222 1221 1373 
3 1342 1302 1361 
3 924 1281 1376 
3 1171 1172 1366 
3 1091 1323 1387 
3 1361 1302 1392 
3 129 1328 1362 
3 928 1214 1369 
3 1203 940 1385 
3 141 928 1371 
3 944 140 1371 
3 1159 1134 1372 
3 1288 1354 1373 
3 1224 1218 1374 
3 1191 1328 1370 
3 1168 1171 1375 
3 1160 1140 1376 
3 945 136 1377 
3 137 925 1377 
3 1142 1151 1378 
3 1205 1206 1366 
3 90 940 1379 
3 150 941 1380 
3 97 924 1381 
3 950 96 1381 
3 139 944 1382 
3 925 138 1382 
3 1161 1345 1383 
3 152 1288 1384 
3 941 151 1384 
3 1215 1323 1386 
3 1328 943 1370 
3 1275 950 1375 
3 1323 1335 1386 
3 1223 952 1390 
3 127 6 1388 
3 107 5 1389 
3 6 128 1388 
3 5 108 1389 
3 147 7 1390 
3 167 4 1391 
3 7 148 1390 
3 4 88 1391 
3 1199 953 1391 
3 938 1225 1372 
3 1256 1160 1367 
3 940 91 1385 
3 1067 1156 1363 
3 1043 1042 1364 
3 1151 1256 1367 
3 1263 1264 1368 
3 1095 1358 1386 
3 1277 934 1365 
3 1357 1263 1368 
3 1361 1043 1364 
3 954 1362 1393 
3 1172 1205 1366 
3 949 1280 1367 
3 1271 945 1368 
3 943 1342 1370 
3 1214 1215 1369 
3 1190 1191 1370 
3 1223 149 1380 
3 1199 89 1379 
3 140 141 1371 
3 1134 1161 1372 
3 1354 1132 1373 
3 1218 1220 1374 
3 1291 1168 1375 
3 1140 1162 1376 
3 136 137 1377 
3 1148 1142 1378 
3 92 1206 1385 
3 108 1360 1389 
3 149 150 1380 
3 89 90 1379 
3 1200 1199 1379 
3 1219 1223 1380 
3 96 97 1381 
3 138 139 1382 
3 1345 1148 1383 
3 91 92 1385 
3 151 152 1384 
3 1206 1203 1385 
3 1335 1095 1386 
3 1213 1212 1387 
3 128 1362 1388 
3 1192 954 1393 
3 1161 1383 1396 
3 1359 1091 1387 
3 1224 1374 1394 
3 954 127 1388 
3 955 107 1389 
3 952 147 1390 
3 953 167 1391 
3 1302 1365 1392 
3 1265 1330 1392 
3 1360 955 1389 
3 1212 1359 1387 
3 1207 938 1396 
3 1370 1342 1395 
3 1362 954 1388 
3 1190 1370 1395 
3 1342 1361 1395 
3 1361 1364 1395 
3 1094 1359 1394 
3 1365 1265 1392 
3 1364 1190 1395 
3 1374 1094 1394 
3 1383 1207 1396 
3 1421 1831 1641 
3 1607 1797 1765 
3 13 1674 1406 
3 1402 1708 62 
3 1655 1658 1409 
3 1689 1756 1407 
3 1654 1655 1409 
3 1424 1761 1724 
3 1641 1849 1421 
3 1637 1755 1406 
3 1428 1751 1627 
3 1704 1705 1426 
3 1535 1654 1601 
3 45 1658 46 
3 43 1653 44 
3 1645 1653 43 
3 42 1645 43 
3 1418 1620 1619 
3 1417 1622 1621 
3 32 1659 33 
3 1644 1659 32 
3 31 1644 32 
3 1415 1625 1623 
3 1765 1797 1617 
3 1647 1748 1620 
3 1649 1727 1622 
3 1627 1833 1428 
3 1619 1660 1418 
3 1407 1850 1689 
3 1419 1773 1636 
3 1640 1642 1422 
3 1651 1838 1399 
3 1416 1839 1695 
3 1761 1848 1724 
3 29 1652 30 
3 38 1646 39 
3 34 1648 35 
3 1603 1745 1650 
3 36 1651 37 
3 1659 1837 1408 
3 12 1674 13 
3 62 1708 63 
3 8 1667 9 
3 1397 1636 1628 
3 1639 1640 1398 
3 1674 1841 1406 
3 1402 1844 1708 
3 1765 1842 1607 
3 1399 1838 1647 
3 1408 1837 1649 
3 1637 1847 1755 
3 1426 1854 1704 
3 1751 1846 1627 
3 1597 1748 1647 
3 1604 1727 1649 
3 1769 1836 1657 
3 1536 1654 1535 
3 53 1696 1407 
3 1401 1650 1618 
3 1621 1651 1417 
3 1418 1646 1620 
3 1417 1648 1622 
3 1415 1652 1625 
3 52 1696 53 
3 46 1658 1425 
3 1409 1658 45 
3 1401 1645 42 
3 1618 1645 1401 
3 1415 1644 31 
3 1623 1644 1415 
3 44 1653 1409 
3 33 1659 1408 
3 1702 1704 1411 
3 1668 1670 1413 
3 1601 1654 1653 
3 1642 1643 1422 
3 8 1864 1667 
3 1646 1647 1620 
3 1648 1649 1622 
3 1398 1641 1639 
3 1836 1865 1657 
3 1770 1858 1752 
3 1650 1660 1619 
3 1399 1646 38 
3 39 1646 1418 
3 1408 1648 34 
3 35 1648 1417 
3 1650 1745 1618 
3 1603 1650 1619 
3 30 1652 1415 
3 37 1651 1399 
3 1417 1651 36 
3 1670 1671 1413 
3 1411 1706 1702 
3 1695 1855 1416 
3 1406 1841 1637 
3 1652 1833 1627 
3 1421 1843 1831 
3 1636 1856 1419 
3 1422 1857 1640 
3 1705 1835 1426 
3 1724 1842 1424 
3 29 1833 1652 
3 1689 1843 1756 
3 1752 1858 1750 
3 1640 1857 1398 
3 1397 1856 1636 
3 1628 1848 1397 
3 1670 1672 1671 
3 1702 1706 1703 
3 1419 1847 1773 
3 1536 1655 1654 
3 1752 1852 1770 
3 1706 1707 1703 
3 1672 1673 1671 
3 1625 1652 1627 
3 40 1660 41 
3 1653 1654 1409 
3 1641 1830 1639 
3 1416 1851 1839 
3 1839 1840 1694 
3 1399 1647 1646 
3 1408 1649 1648 
3 1401 1660 1650 
3 41 1660 1401 
3 1418 1660 40 
3 1642 1832 1643 
3 1536 1656 1655 
3 1707 1709 1703 
3 1706 1708 1707 
3 1704 1854 1411 
3 1413 1853 1668 
3 1672 1679 1673 
3 1673 1679 1638 
3 1562 1791 1709 
3 1709 1791 1703 
3 1696 1850 1407 
3 1709 1711 1562 
3 1656 1657 1655 
3 1673 1674 1671 
3 1707 1710 1709 
3 1711 1712 1562 
3 1710 1711 1709 
3 1559 1712 1555 
3 1555 1712 1553 
3 1562 1712 1559 
3 1663 1775 1472 
3 1662 1775 1663 
3 1521 1789 1662 
3 1662 1789 1775 
3 1600 1824 1818 
3 1521 1662 1661 
3 1661 1732 1521 
3 1795 1825 1817 
3 1723 1732 1661 
3 1720 1810 1796 
3 1666 1669 1668 
3 1539 1672 1670 
3 1465 1732 1723 
3 1719 1810 1720 
3 1669 1670 1668 
3 1719 1720 1578 
3 1465 1723 1664 
3 1539 1670 1669 
3 1561 1791 1562 
3 1598 1787 1746 
3 1692 1694 1516 
3 1741 1806 1576 
3 1679 1754 1514 
3 1721 1767 1718 
3 1431 1669 1666 
3 1576 1806 1779 
3 1675 1803 1499 
3 1677 1714 1676 
3 1481 1805 1676 
3 1576 1774 1741 
3 1790 1805 1481 
3 1496 1734 1493 
3 1541 1803 1675 
3 1516 1788 1692 
3 1677 1679 1514 
3 1514 1714 1677 
3 1672 1754 1679 
3 1485 1781 1487 
3 1472 1812 1663 
3 1578 1721 1719 
3 19 1761 1424 
3 1530 1809 1540 
3 1487 1728 1680 
3 1664 1772 1569 
3 1664 1792 1465 
3 1686 1687 1685 
3 1610 1792 1664 
3 1663 1812 1774 
3 1506 1734 1496 
3 1487 1781 1728 
3 1518 1691 1508 
3 1526 1760 1727 
3 1487 1682 1483 
3 1796 1810 1610 
3 1564 1791 1561 
3 1719 1721 1718 
3 1436 1754 1434 
3 1433 1808 1598 
3 1676 1714 1481 
3 1610 1810 1792 
3 1514 1754 1436 
3 1517 1784 1725 
3 1723 1772 1664 
3 1540 1809 1678 
3 1488 1781 1485 
3 1681 1683 1682 
3 1537 1744 1513 
3 1692 1788 1691 
3 1539 1754 1672 
3 1483 1682 1474 
3 1431 1666 1665 
3 85 1665 86 
3 1680 1728 1630 
3 1544 1717 1684 
3 1685 1767 1721 
3 1691 1788 1508 
3 1685 1687 1684 
3 1680 1682 1487 
3 1725 1784 1716 
3 1499 1783 1675 
3 1681 1790 1683 
3 1735 1812 1472 
3 1502 1744 1743 
3 1685 1721 1686 
3 1727 1760 1596 
3 1479 1784 1517 
3 1717 1725 1611 
3 1715 1793 1615 
3 1611 1725 1716 
3 1684 1687 1544 
3 1513 1744 1502 
3 1684 1717 1611 
3 1726 1804 1581 
3 1538 1691 1518 
3 1774 1812 1741 
3 1569 1772 1570 
3 1540 1803 1541 
3 1581 1809 1530 
3 1430 1808 1433 
3 1594 1801 1597 
3 1482 1713 1542 
3 1454 1793 1715 
3 86 1665 1427 
3 1410 1665 85 
3 1730 1731 1501 
3 1502 1743 1478 
3 1505 1760 1526 
3 1493 1734 1495 
3 1565 1722 1613 
3 1581 1804 1802 
3 1598 1746 1435 
3 1635 1677 1676 
3 1470 1726 1581 
3 1746 1787 1737 
3 1729 1731 1730 
3 1588 1768 1624 
3 1678 1803 1540 
3 1697 1698 1564 
3 1682 1683 1474 
3 1618 1745 1537 
3 1729 1730 1495 
3 1681 1805 1790 
3 1800 1801 1594 
3 1521 1732 1452 
3 1610 1664 1569 
3 1688 1689 1538 
3 1560 1722 1565 
3 1743 1744 1742 
3 1615 1811 1715 
3 1526 1727 1604 
3 1731 1797 1522 
3 1632 1680 1630 
3 1469 1470 1468 
3 1570 1572 1571 
3 1567 1610 1569 
3 1482 1483 1474 
3 1520 1594 1525 
3 1568 1807 1558 
3 1777 1811 1783 
3 1544 1687 1545 
3 1529 1533 1528 
3 1548 1687 1686 
3 1776 1778 1592 
3 1452 1732 1455 
3 81 1762 1403 
3 1689 1690 1538 
3 1718 1767 1461 
3 1469 1726 1470 
3 1584 1768 1588 
3 1545 1687 1548 
3 1637 1638 1635 
3 1698 1699 1564 
3 1467 1716 1471 
3 1594 1597 1595 
3 1522 1797 1607 
3 1570 1571 1568 
3 1467 1469 1468 
3 1777 1783 1490 
3 1439 1440 1438 
3 1438 1714 1514 
3 1403 1813 1794 
3 1606 1749 1642 
3 1554 1796 1556 
3 1458 1718 1461 
3 1457 1458 1456 
3 1585 1733 1583 
3 1544 1545 1534 
3 1608 1609 1582 
3 1567 1569 1568 
3 1477 1503 1500 
3 1519 1529 1528 
3 1501 1511 1488 
3 1466 1467 1464 
3 1463 1767 1473 
3 1448 1482 1474 
3 79 1420 80 
3 1520 1525 1507 
3 1527 1583 1506 
3 1552 1553 1551 
3 1737 1739 1738 
3 1535 1601 1537 
3 1452 1455 1453 
3 1501 1731 1522 
3 1529 1717 1544 
3 1470 1510 1468 
3 1567 1796 1610 
3 1482 1484 1483 
3 1594 1595 1525 
3 1520 1800 1594 
3 1508 1788 1480 
3 1690 1691 1538 
3 1638 1677 1635 
3 1441 1735 1472 
3 1510 1778 1776 
3 1467 1471 1469 
3 1786 1798 1747 
3 1495 1733 1729 
3 1457 1460 1458 
3 1458 1459 1456 
3 1608 1628 1609 
3 1569 1570 1568 
3 1501 1522 1511 
3 1466 1716 1467 
3 1467 1468 1464 
3 79 1757 1420 
3 1527 1584 1583 
3 1455 1456 1453 
3 1632 1681 1680 
3 1434 1754 1539 
3 1473 1767 1685 
3 1461 1767 1463 
3 1439 1735 1441 
3 1554 1555 1553 
3 1437 1439 1438 
3 1570 1573 1572 
3 1529 1534 1533 
3 1448 1713 1482 
3 1563 1564 1561 
3 1479 1508 1480 
3 1606 1640 1639 
3 1698 1700 1699 
3 1440 1714 1438 
3 1439 1441 1440 
3 1447 1789 1450 
3 1747 1798 1793 
3 1686 1721 1578 
3 1470 1530 1510 
3 1522 1607 1532 
3 1484 1485 1483 
3 1482 1542 1484 
3 1595 1596 1525 
3 1638 1679 1677 
3 1471 1475 1469 
3 1460 1718 1458 
3 1457 1792 1460 
3 1458 1461 1459 
3 1459 1786 1456 
3 1625 1627 1626 
3 1628 1629 1609 
3 1522 1532 1511 
3 1584 1585 1583 
3 1455 1457 1456 
3 1489 1730 1501 
3 1681 1682 1680 
3 1543 1800 1520 
3 1556 1796 1567 
3 78 1757 79 
3 1611 1716 1466 
3 1802 1809 1581 
3 1554 1556 1555 
3 1573 1574 1572 
3 1468 1776 1464 
3 1529 1544 1534 
3 1479 1517 1508 
3 1606 1642 1640 
3 1700 1702 1699 
3 1441 1442 1440 
3 1470 1581 1530 
3 1530 1531 1510 
3 1485 1487 1483 
3 1484 1486 1485 
3 1595 1621 1596 
3 1442 1790 1481 
3 1556 1558 1557 
3 1471 1476 1475 
3 1460 1719 1718 
3 1461 1462 1459 
3 1628 1636 1629 
3 1532 1582 1511 
3 1629 1630 1609 
3 1455 1465 1457 
3 1584 1586 1585 
3 1574 1577 1572 
3 1573 1575 1574 
3 1566 1749 1549 
3 1722 1807 1613 
3 1549 1749 1547 
3 1517 1518 1508 
3 1702 1703 1699 
3 1442 1481 1440 
3 1441 1443 1442 
3 1547 1749 1606 
3 1530 1540 1531 
3 1486 1488 1485 
3 1621 1622 1596 
3 1556 1567 1558 
3 1476 1477 1475 
3 1461 1463 1462 
3 1462 1592 1459 
3 1532 1608 1582 
3 1455 1732 1465 
3 1629 1631 1630 
3 1586 1587 1585 
3 1584 1588 1586 
3 1577 1795 1572 
3 1575 1576 1574 
3 1573 1579 1575 
3 1703 1791 1699 
3 1517 1519 1518 
3 1443 1444 1442 
3 1441 1472 1443 
3 1665 1666 1427 
3 1540 1541 1531 
3 1486 1489 1488 
3 1622 1727 1596 
3 1567 1568 1558 
3 1477 1500 1475 
3 1587 1590 1585 
3 26 1751 1428 
3 1476 1478 1477 
3 1463 1464 1462 
3 1631 1632 1630 
3 1588 1589 1586 
3 1429 1430 1410 
3 1666 1667 1427 
3 1579 1580 1575 
3 84 1410 85 
3 24 1412 25 
3 1666 1668 1667 
3 64 1411 65 
3 1519 1528 1518 
3 26 1428 27 
3 1472 1775 1443 
3 1443 1445 1444 
3 1412 1751 25 
3 44 1409 45 
3 66 1426 67 
3 1489 1501 1488 
3 1486 1490 1489 
3 1541 1593 1531 
3 46 1425 47 
3 1430 1432 1431 
3 1587 1591 1590 
3 1430 1433 1432 
3 1588 1623 1589 
3 1463 1466 1464 
3 1476 1479 1478 
3 86 1427 87 
3 25 1751 26 
3 1430 1431 1410 
3 1631 1633 1632 
3 1433 1434 1432 
3 1588 1624 1623 
3 1539 1669 1432 
3 1433 1435 1434 
3 1579 1661 1580 
3 1591 1612 1590 
3 1528 1538 1518 
3 1434 1539 1432 
3 1445 1446 1444 
3 1432 1669 1431 
3 1433 1598 1435 
3 1550 1686 1578 
3 61 1402 62 
3 41 1401 42 
3 1624 1659 1644 
3 1435 1436 1434 
3 1490 1491 1489 
3 1624 1644 1623 
3 1541 1615 1593 
3 1591 1617 1612 
3 1612 1729 1590 
3 1463 1473 1466 
3 1631 1634 1633 
3 1435 1437 1436 
3 1612 1731 1729 
3 1437 1438 1436 
3 1438 1514 1436 
3 1579 1723 1661 
3 1445 1447 1446 
3 1661 1662 1580 
3 1490 1492 1491 
3 1550 1578 1552 
3 1473 1611 1466 
3 1447 1448 1446 
3 1448 1474 1446 
3 1492 1493 1491 
3 1473 1684 1611 
3 33 1408 34 
3 1634 1635 1633 
3 1473 1685 1684 
3 59 1422 60 
3 1497 1505 1496 
3 35 1417 36 
3 39 1418 40 
3 55 1421 56 
3 1497 1507 1505 
3 1492 1494 1493 
3 1493 1495 1491 
3 13 1406 14 
3 57 1398 58 
3 37 1399 38 
3 1494 1496 1493 
3 1494 1497 1496 
3 81 1403 82 
3 53 1407 54 
3 1497 1512 1507 
3 77 1400 78 
3 15 1419 16 
3 14 1755 15 
3 15 1755 1419 
3 1512 1520 1507 
3 1494 1766 1497 
3 1406 1755 14 
3 75 1423 76 
3 17 1397 18 
3 19 1424 20 
3 20 1764 21 
3 1512 1678 1543 
3 1424 1764 20 
3 21 1404 22 
3 1512 1543 1520 
3 1578 1720 1552 
3 1492 1499 1494 
3 1497 1766 1512 
3 77 1782 1400 
3 76 1782 77 
3 1591 1770 1617 
3 1662 1663 1580 
3 1499 1766 1494 
3 1423 1782 76 
3 1543 1802 1800 
3 1526 1604 1527 
3 1505 1526 1506 
3 21 1764 1404 
3 1512 1766 1678 
3 1505 1506 1496 
3 1764 1765 1404 
3 1526 1527 1506 
3 1623 1625 1589 
3 1605 1770 1591 
3 1626 1771 1589 
3 1551 1566 1549 
3 1548 1686 1550 
3 1587 1605 1591 
3 1550 1552 1551 
3 1613 1614 1600 
3 30 1415 31 
3 10 1413 11 
3 1550 1551 1549 
3 70 1414 71 
3 1738 1741 1736 
3 50 1416 51 
3 1403 1794 1753 
3 49 1769 50 
3 1625 1626 1589 
3 1431 1665 1410 
3 1619 1620 1602 
3 1589 1771 1586 
3 1548 1550 1549 
3 50 1769 1416 
3 1535 1537 1513 
3 1565 1613 1600 
3 1737 1738 1736 
3 1515 1536 1535 
3 1548 1549 1547 
3 1603 1619 1602 
3 1575 1774 1576 
3 1509 1516 1515 
3 1580 1774 1575 
3 1443 1775 1445 
3 1629 1773 1631 
3 1515 1535 1513 
3 1565 1600 1599 
3 1450 1789 1521 
3 1498 1737 1736 
3 1631 1773 1634 
3 1663 1774 1580 
3 1547 1606 1546 
3 1545 1548 1547 
3 1523 1603 1602 
3 1586 1771 1587 
3 1509 1515 1513 
3 1465 1792 1457 
3 1565 1599 1563 
3 1452 1453 1451 
3 1450 1521 1452 
3 1484 1777 1486 
3 1462 1776 1592 
3 1771 1780 1605 
3 1498 1736 1735 
3 1464 1776 1462 
3 1587 1771 1605 
3 1486 1777 1490 
3 1626 1780 1771 
3 1400 1759 1758 
3 1545 1547 1546 
3 1519 1725 1717 
3 1740 1806 1738 
3 1601 1645 1618 
3 1523 1602 1524 
3 1524 1616 1504 
3 1636 1773 1629 
3 1616 1801 1800 
3 1693 1696 1695 
3 1557 1722 1560 
3 1510 1776 1468 
3 1509 1513 1502 
3 1676 1805 1633 
3 1537 1745 1744 
3 1456 1786 1453 
3 1450 1452 1451 
3 1451 1454 1449 
3 1560 1565 1563 
3 1742 1745 1603 
3 1498 1735 1439 
3 1400 1757 78 
3 1400 1782 1759 
3 1615 1793 1593 
3 1423 1785 1782 
3 1404 1752 22 
3 1552 1554 1553 
3 1491 1730 1489 
3 1445 1789 1447 
3 1400 1758 1757 
3 1782 1785 1759 
3 1545 1546 1534 
3 1601 1618 1537 
3 1519 1717 1529 
3 1739 1740 1738 
3 1699 1791 1564 
3 1523 1524 1504 
3 1592 1786 1459 
3 1693 1695 1694 
3 1500 1726 1475 
3 1572 1795 1571 
3 1542 1777 1484 
3 22 1752 23 
3 1480 1509 1502 
3 1481 1714 1440 
3 1495 1730 1491 
3 1475 1726 1469 
3 1450 1451 1449 
3 1560 1563 1561 
3 1557 1560 1559 
3 1766 1803 1678 
3 1437 1498 1439 
3 1479 1480 1478 
3 1606 1639 1546 
3 1612 1797 1731 
3 1601 1653 1645 
3 24 1750 1412 
3 1503 1523 1504 
3 1795 1799 1571 
3 1634 1637 1635 
3 1447 1449 1448 
3 1635 1676 1633 
3 1500 1804 1726 
3 1541 1675 1615 
3 1454 1713 1449 
3 1499 1803 1766 
3 1503 1504 1500 
3 23 1752 1750 
3 1558 1807 1722 
3 1693 1694 1692 
3 1590 1733 1585 
3 1778 1798 1592 
3 1407 1756 54 
3 55 1756 1421 
3 1700 1705 1704 
3 1556 1557 1555 
3 1449 1713 1448 
3 73 1405 74 
3 1444 1790 1442 
3 1542 1811 1777 
3 1738 1806 1741 
3 1517 1725 1519 
3 1815 1816 1740 
3 1480 1502 1478 
3 1617 1797 1612 
3 1758 1816 1815 
3 1490 1783 1492 
3 1560 1561 1559 
3 1527 1768 1584 
3 1630 1728 1609 
3 80 1762 81 
3 1720 1796 1554 
3 1561 1562 1559 
3 1531 1778 1510 
3 1447 1450 1449 
3 23 1750 24 
3 1557 1559 1555 
3 1592 1798 1786 
3 1528 1688 1538 
3 1775 1789 1445 
3 1792 1810 1460 
3 1571 1807 1568 
3 1729 1733 1590 
3 1700 1704 1702 
3 1558 1722 1557 
3 54 1756 55 
3 1793 1798 1593 
3 1596 1760 1525 
3 1552 1720 1554 
3 1716 1784 1471 
3 1480 1788 1509 
3 1420 1762 80 
3 1543 1809 1802 
3 1492 1783 1499 
3 1474 1683 1446 
3 1583 1734 1506 
3 1451 1747 1454 
3 1715 1811 1542 
3 1604 1768 1527 
3 1504 1804 1500 
3 1597 1801 1748 
3 1593 1778 1531 
3 1507 1760 1505 
3 84 1429 1410 
3 1454 1715 1713 
3 1453 1786 1747 
3 1579 1772 1723 
3 1570 1772 1573 
3 1616 1804 1504 
3 1532 1724 1608 
3 1509 1788 1516 
3 1460 1810 1719 
3 1403 1753 82 
3 1511 1781 1488 
3 1593 1798 1778 
3 1476 1784 1479 
3 1747 1793 1454 
3 1690 1693 1692 
3 1744 1745 1742 
3 1523 1742 1603 
3 1429 1808 1430 
3 1524 1801 1616 
3 1602 1748 1524 
3 1736 1812 1735 
3 1609 1728 1582 
3 1678 1809 1543 
3 1478 1743 1477 
3 1799 1807 1571 
3 1498 1746 1737 
3 1613 1799 1614 
3 1633 1805 1632 
3 1713 1715 1542 
3 1683 1790 1444 
3 1563 1697 1564 
3 1690 1692 1691 
3 1574 1779 1577 
3 1794 1813 1787 
3 1607 1724 1532 
3 1453 1747 1451 
3 1525 1760 1507 
3 1783 1811 1675 
3 1435 1746 1437 
3 1533 1688 1528 
3 1806 1816 1779 
3 1675 1811 1615 
3 1613 1807 1799 
3 1423 1819 1785 
3 1446 1683 1444 
3 1737 1787 1739 
3 1762 1813 1403 
3 1495 1734 1733 
3 83 1429 84 
3 1800 1802 1616 
3 1573 1772 1579 
3 83 1753 1429 
3 82 1753 83 
3 1503 1743 1742 
3 1471 1784 1476 
3 1728 1781 1582 
3 1598 1794 1787 
3 1802 1804 1616 
3 1632 1805 1681 
3 1748 1801 1524 
3 1620 1748 1602 
3 1741 1812 1736 
3 1477 1743 1503 
3 1503 1742 1523 
3 1733 1734 1583 
3 1818 1824 1405 
3 1437 1746 1498 
3 72 1826 1820 
3 1576 1779 1574 
3 1582 1781 1511 
3 1599 1701 1697 
3 18 1761 19 
3 1753 1808 1429 
3 1758 1815 1757 
3 75 1763 1423 
3 1817 1825 1785 
3 1405 1763 74 
3 1598 1808 1794 
3 1794 1808 1753 
3 1820 1826 1701 
3 1739 1814 1740 
3 1740 1816 1806 
3 1599 1697 1563 
3 1814 1815 1740 
3 1599 1818 1701 
3 1762 1814 1813 
3 1799 1817 1614 
3 1785 1819 1817 
3 1577 1825 1795 
3 1813 1814 1739 
3 1614 1824 1600 
3 1420 1815 1814 
3 1757 1815 1420 
3 1397 1761 18 
3 1787 1813 1739 
3 1420 1814 1762 
3 1795 1817 1799 
3 74 1763 75 
3 1818 1820 1701 
3 1821 1825 1577 
3 1779 1821 1577 
3 1700 1822 1705 
3 1698 1823 1822 
3 73 1820 1405 
3 1600 1818 1599 
3 1817 1819 1614 
3 69 1827 70 
3 71 1826 72 
3 1763 1819 1423 
3 1405 1820 1818 
3 1822 1823 1414 
3 1758 1821 1816 
3 1697 1823 1698 
3 1759 1821 1758 
3 1816 1821 1779 
3 1414 1826 71 
3 70 1827 1414 
3 72 1820 73 
3 1698 1822 1700 
3 1759 1825 1821 
3 1405 1824 1763 
3 1701 1823 1697 
3 1819 1824 1614 
3 1785 1825 1759 
3 1822 1827 1705 
3 1763 1824 1819 
3 1823 1826 1414 
3 1701 1826 1823 
3 1414 1827 1822 
3 1551 1828 1566 
3 1711 1828 1712 
3 1712 1828 1553 
3 1647 1838 1597 
3 1649 1837 1604 
3 1553 1828 1551 
3 1828 1829 1566 
3 1710 1829 1711 
3 1711 1829 1828 
3 1534 1830 1533 
3 1639 1830 1546 
3 1546 1830 1534 
3 1830 1831 1533 
3 28 1833 29 
3 1412 1867 1846 
3 1621 1838 1651 
3 1641 1831 1830 
3 1749 1832 1642 
3 1829 1834 1832 
3 1829 1832 1566 
3 1846 1867 1780 
3 1656 1840 1839 
3 68 1835 69 
3 48 1836 49 
3 1827 1835 1705 
3 1655 1865 1658 
3 1533 1831 1688 
3 1566 1832 1749 
3 1832 1834 1643 
3 1643 1845 1422 
3 1624 1837 1659 
3 1604 1837 1768 
3 1597 1838 1595 
3 52 1855 1696 
3 1657 1865 1655 
3 1536 1840 1656 
3 1694 1840 1516 
3 1515 1840 1536 
3 1398 1849 1641 
3 1764 1842 1765 
3 1397 1848 1761 
3 1637 1841 1638 
3 49 1836 1769 
3 69 1835 1827 
3 1710 1834 1829 
3 1411 1859 1706 
3 1671 1860 1413 
3 61 1845 1402 
3 1422 1845 60 
3 1627 1846 1626 
3 1708 1844 1707 
3 1634 1847 1637 
3 1724 1848 1608 
3 1421 1849 56 
3 57 1849 1398 
3 1689 1850 1690 
3 1693 1850 1696 
3 1673 1841 1674 
3 1404 1852 1752 
3 10 1853 1413 
3 1411 1854 65 
3 66 1854 1426 
3 1416 1855 51 
3 17 1856 1397 
3 1419 1856 16 
3 59 1857 1422 
3 1398 1857 58 
3 1780 1858 1605 
3 1755 1847 1419 
3 1844 1866 1834 
3 1 1863 68 
3 27 1861 3 
3 87 1864 0 
3 47 1862 2 
3 67 1863 1 
3 1667 1864 1427 
3 2 1862 48 
3 0 1864 8 
3 3 1861 28 
3 1412 1846 1751 
3 1607 1842 1724 
3 64 1859 1411 
3 1413 1860 11 
3 1768 1837 1624 
3 1595 1838 1621 
3 1710 1844 1834 
3 1695 1839 1694 
3 1516 1840 1515 
3 1688 1843 1689 
3 1831 1843 1688 
3 1696 1855 1695 
3 1617 1852 1765 
3 1425 1865 1836 
3 1638 1841 1673 
3 1656 1851 1657 
3 1424 1842 1764 
3 1756 1843 1421 
3 1707 1844 1710 
3 1402 1866 1844 
3 1657 1851 1769 
3 1667 1853 9 
3 60 1845 61 
3 1769 1851 1416 
3 1626 1846 1780 
3 1773 1847 1634 
3 1770 1852 1617 
3 1608 1848 1628 
3 56 1849 57 
3 1690 1850 1693 
3 12 1860 1674 
3 1708 1859 63 
3 28 1861 1833 
3 1839 1851 1656 
3 1765 1852 1404 
3 9 1853 10 
3 1668 1853 1667 
3 65 1854 66 
3 51 1855 52 
3 16 1856 17 
3 58 1857 59 
3 1605 1858 1770 
3 11 1860 12 
3 63 1859 64 
3 1706 1859 1708 
3 1674 1860 1671 
3 68 1863 1835 
3 48 1862 1836 
3 1658 1865 1425 
3 1780 1867 1858 
3 1845 1866 1402 
3 1428 1861 27 
3 1427 1864 87 
3 1425 1862 47 
3 1426 1863 67 
3 1833 1861 1428 
3 1750 1867 1412 
3 1835 1863 1426 
3 1836 1862 1425 
3 1834 1866 1643 
3 1643 1866 1845 
3 1858 1867 1750 
